<svg width="95" height="24" viewBox="0 0 95 24" fill="none" xmlns="http://www.w3.org/2000/svg">
<path d="M13.7901 18.3643C13.9334 18.3643 14.0736 18.4071 14.1928 18.4872C14.312 18.5672 14.4049 18.681 14.4598 18.8142C14.5146 18.9473 14.529 19.0939 14.501 19.2352C14.473 19.3766 14.404 19.5064 14.3026 19.6083C14.2012 19.7102 14.0721 19.7796 13.9315 19.8078C13.7909 19.8359 13.6451 19.8214 13.5127 19.7663C13.3802 19.7111 13.267 19.6177 13.1874 19.4979C13.1077 19.3781 13.0652 19.2372 13.0652 19.0931C13.0637 18.9969 13.0814 18.9015 13.1173 18.8124C13.1532 18.7233 13.2065 18.6424 13.2742 18.5744C13.3418 18.5064 13.4223 18.4528 13.5109 18.4167C13.5995 18.3807 13.6945 18.3628 13.7901 18.3643ZM25.6465 13.7248C25.5509 13.7261 25.4561 13.7082 25.3675 13.672C25.279 13.6359 25.1986 13.5822 25.131 13.5143C25.0634 13.4464 25.0101 13.3655 24.9741 13.2765C24.9381 13.1875 24.9203 13.0921 24.9216 12.9961C24.9347 12.8072 25.0152 12.6295 25.1485 12.4958C25.2817 12.3621 25.4587 12.2814 25.6465 12.2686C25.7419 12.2673 25.8366 12.2852 25.925 12.3212C26.0134 12.3573 26.0937 12.4109 26.1612 12.4787C26.2286 12.5465 26.2819 12.6272 26.3178 12.7161C26.3537 12.805 26.3715 12.9002 26.3701 12.9961C26.3574 13.1849 26.2772 13.3627 26.1441 13.4967C26.0111 13.6307 25.8343 13.7117 25.6465 13.7248ZM25.6465 10.6309C25.0268 10.6427 24.4358 10.8954 23.9976 11.3359C23.5594 11.7765 23.308 12.3706 23.2962 12.9936C23.2962 13.2671 23.2962 13.5395 23.3878 13.7223L15.6938 17.8159C15.4639 17.4847 15.1526 17.2189 14.7902 17.0444C14.4278 16.87 14.0267 16.7927 13.6259 16.8203C13.225 16.8478 12.8381 16.9792 12.5027 17.2016C12.1673 17.424 11.8949 17.7299 11.7119 18.0895L4.82444 14.4522C4.10081 14.0879 3.55777 12.8145 3.64807 11.7165C3.64807 11.1706 3.92021 10.7216 4.19111 10.5339C4.29071 10.489 4.39862 10.4658 4.50777 10.4658C4.61692 10.4658 4.72483 10.489 4.82444 10.5339H4.91474C6.72568 11.5349 12.7893 14.6276 12.9699 14.8104C13.3324 14.9919 13.6033 15.0827 14.2379 14.7183L26.6423 8.26942C26.7471 8.22129 26.8364 8.14467 26.9003 8.04822C26.9641 7.95176 26.9998 7.8393 27.0035 7.72351C27.0035 7.35916 26.6423 7.17761 26.6423 7.17761C25.9174 6.81326 24.8313 6.35813 23.8356 5.80973C21.5731 4.71792 19.0398 3.53533 17.8622 2.98942C17.5752 2.8165 17.2468 2.72516 16.9122 2.72516C16.5776 2.72516 16.2492 2.8165 15.9622 2.98942L15.6901 3.0802C10.6184 5.62818 3.83362 8.99439 3.47242 9.17346C2.74755 9.62859 2.38635 10.4481 2.29605 11.4479C2.20452 13.0856 3.01969 14.8153 4.28635 15.452L11.6179 19.2734C11.6962 19.8232 11.9671 20.3269 12.3818 20.6939C12.7965 21.0609 13.3279 21.2671 13.8804 21.2754C15.147 21.2754 16.2306 20.2744 16.2306 18.9998L24.2858 14.6325C24.7386 14.9969 25.1913 15.0877 25.7343 15.0877C26.354 15.0759 26.945 14.8232 27.3832 14.3826C27.8215 13.942 28.0729 13.3479 28.0846 12.725C27.9089 11.6269 26.9132 10.6321 25.6465 10.6321" fill="#3681FC"/>
<path d="M43.2941 16.8174C42.7605 17.3546 42.1101 17.7599 41.3941 18.0013C40.5194 18.299 39.6025 18.4522 38.679 18.4552C37.1402 18.4552 35.8735 18.0013 34.968 17.0002C34.0626 16.09 33.5195 14.7246 33.5195 13.0869V12.092C33.5195 10.9082 33.7014 9.90842 34.1541 9.08894C34.6056 8.17868 35.1437 7.54199 35.8735 7.08686C36.6638 6.6028 37.573 6.35081 38.4984 6.3594C39.9456 6.3594 41.122 6.72376 41.9372 7.35422C42.7523 7.98469 43.2038 8.99194 43.3857 10.3561H40.6705C40.579 9.7194 40.3984 9.26427 40.0359 8.98821C39.6451 8.68905 39.1665 8.52895 38.6753 8.53308C37.9516 8.53308 37.4086 8.80666 37.0462 9.44334C36.6837 10.08 36.5031 10.8983 36.4128 11.9901V12.7188C36.4128 13.9014 36.5934 14.8116 37.0462 15.3575C37.4086 15.9034 38.0419 16.2666 38.9462 16.2666C39.671 16.2666 40.2141 16.085 40.5753 15.8114V13.9971H38.5936V12.0871H43.3906V16.8125L43.2941 16.8174Z" fill="white"/>
<path d="M44.9233 18.2736H47.6447V9.53908H44.9233V18.2736ZM44.833 7.26468C44.8486 6.8845 45.011 6.5254 45.2857 6.26364C45.5579 5.99007 45.9191 5.89929 46.3718 5.89929C46.8245 5.89929 47.187 5.99007 47.4579 6.26364C47.7288 6.53722 47.9106 6.80955 47.9106 7.26468C47.895 7.64487 47.7326 8.00396 47.4579 8.26572C47.187 8.53805 46.8245 8.62883 46.3718 8.62883C45.9191 8.62883 45.5579 8.53805 45.2857 8.26572C44.9233 7.99214 44.833 7.71981 44.833 7.26468Z" fill="white"/>
<path d="M52.5268 7.35547V9.5391H53.9741V11.4491H52.5268V15.4533C52.5207 15.7077 52.5831 15.9591 52.7074 16.1808C52.7977 16.2715 53.0699 16.3636 53.4311 16.3636C53.7032 16.3636 53.8838 16.3636 54.0644 16.2715V18.1828C53.5731 18.3688 53.0517 18.4612 52.5268 18.4552C51.6214 18.4552 50.8977 18.2736 50.445 17.8185C49.9923 17.3633 49.8117 16.7267 49.8117 15.8164V11.4491H48.7256V9.5391H49.8117V7.35547H52.5268Z" fill="white"/>
<path d="M57.9571 13.2696V16.0899H59.7668C60.3098 16.0899 60.6723 15.9992 60.9432 15.7256C61.2141 15.452 61.3959 15.1797 61.3959 14.7308C61.3959 13.7359 60.9432 13.2758 59.9474 13.2758L57.9571 13.2696ZM57.9571 11.4491H59.4044C60.0377 11.4491 60.4904 11.3583 60.765 11.086C61.0359 10.9032 61.1262 10.5401 61.1262 10.0912C61.1281 9.888 61.089 9.68653 61.0114 9.49891C60.9339 9.31128 60.8193 9.14136 60.6747 8.99937C60.2664 8.74671 59.7933 8.62003 59.3141 8.63502H57.9534L57.9571 11.4491ZM55.1504 18.2736V6.53595H59.4044C60.9432 6.53595 62.0292 6.80952 62.8444 7.35543C63.6596 7.90134 64.0208 8.72331 64.0208 9.81139C64.0233 10.3604 63.8659 10.8982 63.568 11.3583C63.2971 11.8135 62.8444 12.087 62.3014 12.2686C62.9347 12.4501 63.3874 12.7237 63.7486 13.1789C64.1098 13.634 64.2014 14.1737 64.2014 14.8166C64.2014 15.9992 63.8402 16.8174 63.1153 17.4553C62.3917 18.0012 61.3056 18.3643 59.8571 18.3643L55.1504 18.2736Z" fill="white"/>
<path d="M68.0032 13.9971C68.0032 14.8166 68.0935 15.365 68.3656 15.8164C68.488 15.9903 68.6511 16.1312 68.8405 16.2267C69.03 16.3221 69.2399 16.3691 69.4517 16.3635C70.4413 16.3635 70.9002 15.6348 70.9002 14.0879V13.8156C70.9002 12.2686 70.3572 11.4529 69.3614 11.4529C68.4559 11.4529 68.0007 12.0908 67.9129 13.4549L68.0032 13.9971ZM65.2818 13.8156C65.2693 12.9954 65.4557 12.1844 65.8249 11.4529C66.1873 10.8162 66.64 10.2703 67.2734 9.90718C67.9067 9.54407 68.6341 9.36127 69.5358 9.36127C70.8025 9.36127 71.8861 9.72438 72.6134 10.5439C73.3408 11.3633 73.6995 12.4539 73.6995 13.8193V14.0009C73.6995 15.3687 73.337 16.4581 72.5231 17.2763C71.7982 18.0958 70.7122 18.4589 69.4455 18.4589C68.1788 18.4589 67.1831 18.0958 66.4582 17.3671C65.7333 16.6384 65.2818 15.6386 65.2818 14.3652V13.8156Z" fill="white"/>
<path d="M77.3264 13.9971C77.3264 14.8166 77.4167 15.365 77.6876 15.8164C77.8101 15.9902 77.9732 16.1311 78.1626 16.2265C78.352 16.3219 78.5619 16.369 78.7737 16.3635C79.7633 16.3635 80.2222 15.6348 80.2222 14.0879V13.8156C80.2222 12.2686 79.6792 11.4529 78.6834 11.4529C77.7779 11.4529 77.3227 12.0908 77.2349 13.4549L77.3264 13.9971ZM74.6051 13.8156C74.5926 12.9954 74.779 12.1844 75.1481 11.4529C75.5106 10.8162 75.9633 10.2703 76.5966 9.90718C77.2299 9.54407 77.9573 9.36127 78.8591 9.36127C80.127 9.36127 81.2093 9.72438 81.9367 10.5439C82.664 11.3633 83.0227 12.4539 83.0227 13.8193V14.0009C83.0227 15.3687 82.6603 16.4581 81.8464 17.2763C81.1227 18.0958 80.0367 18.4589 78.7688 18.4589C77.5009 18.4589 76.5063 18.0958 75.7827 17.3671C75.0591 16.6384 74.6051 15.6386 74.6051 14.3652V13.8156Z" fill="white"/>
<path d="M87.7344 15.0889L86.9193 15.8164V18.2736H84.2041V5.89929H86.9193V12.4502L87.1914 12.0871L89.2732 9.53908H92.5265L89.4489 13.1789L92.7071 18.2773H89.6344L87.7344 15.0889Z" fill="white"/>
</svg>
