<svg width="100" height="28" viewBox="0 0 100 28" fill="none" xmlns="http://www.w3.org/2000/svg">
<path d="M5.61523 22L6.66992 12.4053H6.96289L8.01758 22H12.207L12.9688 0.994141H9.51172L9.96582 18.543H9.51172L8.16406 7H5.46875L4.10645 18.543H3.66699L4.10645 0.994141H0.664062L1.41113 22H5.61523ZM19.1211 17.6494C19.1211 18.543 19.0625 19.1436 18.9453 19.4512C18.8281 19.7588 18.6377 19.9053 18.374 19.9053C18.1836 19.9053 18.0371 19.8174 17.9346 19.627C17.7148 19.2754 17.4658 17.752 17.4658 14.9541H21.8164L21.9043 14.6172C22.0801 14.2217 22.2705 13.0938 22.2705 11.8047C22.2705 9.68066 21.9189 8.09863 21.2012 7.05859C20.4834 6.01855 19.5898 5.50586 18.5205 5.50586C15.6201 5.50586 14.1699 8.30371 14.1699 13.8994C14.1699 19.4951 15.6201 22.293 18.5205 22.293C19.5166 22.293 20.3662 21.8975 21.0693 21.1064C21.7725 20.3301 22.124 19.2754 22.124 17.957C22.1094 17.2539 22.0068 16.6973 21.8164 16.3018H18.9746L19.1211 17.6494ZM17.4658 12.8447C17.4658 11.4531 17.5244 10.3691 17.627 9.59277C17.7295 8.81641 17.832 8.34766 17.9346 8.15723C18.0371 7.98145 18.1836 7.89355 18.374 7.89355C18.5498 7.89355 18.6816 7.95215 18.7842 8.06934C18.96 8.31836 19.1211 9.28516 19.1211 11.2041C19.1211 11.8047 19.0771 12.3467 18.9746 12.8447H17.4658ZM25.4053 22L25.7129 18.9971H26.167L26.3721 19.8467C26.4893 20.3887 26.7529 20.9307 27.1484 21.4727C27.5439 22.0146 28.0127 22.293 28.5547 22.293C29.3164 22.293 29.9463 21.8096 30.5615 20.6377C31.1768 19.4805 31.5576 17.1074 31.5576 13.8994C31.5576 10.6914 31.1768 8.31836 30.5615 7.14648C29.9463 5.98926 29.3164 5.50586 28.5547 5.50586C27.8955 5.50586 27.2656 6.07715 26.9434 6.64844C26.7822 6.94141 26.6211 7.27832 26.4893 7.65918C26.2109 8.4209 26.2109 8.64062 26.167 8.80176H25.7129L26.6064 5.50586V0.994141H23.457V22H25.4053ZM27.5146 19.9053C27.3389 19.9053 27.1924 19.8027 27.0898 19.5977C26.8555 19.2021 26.6064 17.3711 26.6064 13.8994C26.6064 12.1562 26.665 10.8232 26.7676 9.88574C26.8701 8.96289 26.9727 8.3916 27.0898 8.18652C27.1924 7.99609 27.3389 7.89355 27.5146 7.89355C28.0127 7.89355 28.2617 9.90039 28.2617 13.8994C28.2617 17.8984 28.0127 19.9053 27.5146 19.9053ZM32.9492 14.3242C32.7881 14.7197 32.627 15.7158 32.627 16.7559C32.627 18.5576 33.0078 19.9199 33.7695 20.8721C34.5166 21.8242 35.4834 22.293 36.6699 22.293C37.8857 22.293 38.8965 21.7363 39.6875 20.6084C40.4785 19.4951 40.874 17.8105 40.874 15.5547C40.8594 11.1455 39.3066 8.94824 36.2158 8.94824V8.65527L38.0176 8.20117L40.5664 3.7041V0.994141H32.7734V3.99707H36.9775L33.9746 9.25586V12.0977H34.4287L34.5752 11.9805C34.7363 11.8193 35.1758 11.6436 35.6299 11.6436C36.2598 11.6436 36.7285 11.9072 37.0068 12.4199C37.2852 12.9473 37.417 13.9873 37.417 15.5547C37.417 16.7559 37.3877 17.6641 37.3145 18.2646C37.2412 18.8652 37.168 19.2461 37.0801 19.3779C36.9922 19.5244 36.8604 19.5977 36.6846 19.5977C36.1719 19.627 35.9668 19.2754 35.9229 16.9023C35.9229 15.9941 35.9668 15.042 36.0693 14.0459H33.0664L32.9492 14.3242ZM46.1621 16.6533C46.0889 16.9902 45.957 17.6787 45.957 18.3965C45.957 20.7988 47.4512 22.293 49.8535 22.293C51.0693 22.293 52.0508 21.8975 52.7979 21.1211C53.5303 20.3447 53.8965 19.29 53.8965 17.957C53.8965 16.3604 53.1787 14.8809 52.2559 13.8262C50.9521 12.3174 49.2383 10.7354 49.2529 8.80176C49.2529 8.20117 49.458 7.89355 49.8535 7.89355C50.3516 7.9082 50.6006 8.55273 50.6006 9.85645V11.2041H53.457L53.5449 10.9551C53.6182 10.6768 53.75 10.0029 53.75 9.40234C53.75 7 52.2559 5.50586 49.8535 5.50586C48.7109 5.50586 47.7734 5.88672 47.0557 6.64844C46.3232 7.4248 45.957 8.43555 45.957 9.69531C45.957 11.3799 46.6895 12.8887 47.583 13.9287C48.8867 15.4082 50.6445 16.917 50.6006 18.8506C50.6006 19.5537 50.3516 19.9053 49.8535 19.9053C49.3262 19.9053 49.1064 19.4805 49.1064 17.957V16.4482H46.25L46.1621 16.6533ZM58.2471 27.4053V22.293L57.3535 18.9971H57.8076L58.0127 19.8467C58.1299 20.3887 58.3936 20.9307 58.7891 21.4727C59.1846 22.0146 59.6533 22.293 60.1953 22.293C60.957 22.293 61.5869 21.8096 62.2021 20.6377C62.8174 19.4805 63.1982 17.1074 63.1982 13.8994C63.1982 10.6914 62.8174 8.31836 62.2021 7.14648C61.5869 5.98926 60.957 5.50586 60.1953 5.50586C59.5361 5.50586 58.9062 6.07715 58.584 6.64844C58.4229 6.94141 58.2617 7.27832 58.1299 7.65918C57.8516 8.4209 57.8516 8.64062 57.8076 8.80176H57.3535L58.2471 6.10645V5.79883H55.0977V27.4053H58.2471ZM59.1553 19.9053C58.9795 19.9053 58.833 19.8027 58.7305 19.5977C58.4961 19.2021 58.2471 17.3711 58.2471 13.8994C58.2471 12.1562 58.3057 10.8232 58.4082 9.88574C58.5107 8.96289 58.6133 8.3916 58.7305 8.18652C58.833 7.99609 58.9795 7.89355 59.1553 7.89355C59.6533 7.89355 59.9023 9.90039 59.9023 13.8994C59.9023 17.8984 59.6533 19.9053 59.1553 19.9053ZM72.8076 22V21.707L72.6611 21.6338C72.4707 21.5166 72.207 21.0625 72.207 20.3447V11.6143C72.207 9.41699 71.9141 7.84961 71.3281 6.91211C70.7275 5.97461 69.7754 5.50586 68.457 5.50586C67.3877 5.50586 66.4941 5.88672 65.7764 6.64844C65.0586 7.4248 64.707 8.43555 64.707 9.69531C64.7217 10.5156 64.8242 11.1162 65.0146 11.4971H67.8564V10.0029C67.8564 8.59668 68.0615 7.89355 68.457 7.89355C68.8525 7.9082 69.0576 8.61133 69.0576 10.0029V12.5518L69.9658 15.9941H69.5117L69.3359 15.1592C69.1895 14.6172 68.8965 14.0752 68.4717 13.5186C68.0469 12.9766 67.5342 12.6982 66.9629 12.6982C66.2012 12.6982 65.542 13.1084 64.9707 13.9434C64.3994 14.7783 64.1064 15.9502 64.1064 17.4883C64.1064 19.0264 64.3994 20.2129 64.9707 21.0479C65.542 21.8828 66.2012 22.293 66.9629 22.293C67.6807 22.293 68.3691 21.7217 68.7207 21.1357C68.8818 20.8574 69.043 20.5205 69.1895 20.1396C69.4678 19.3779 69.4678 19.1582 69.5117 18.9971H69.9658L69.2188 21.707V22H72.8076ZM68.1641 19.9053C67.7393 19.9053 67.417 19.5977 67.417 17.4883C67.417 15.3789 67.7393 15.1006 68.1641 15.1006C68.6621 15.1006 68.9111 15.9062 68.9111 17.5029C68.9111 19.0996 68.6621 19.9053 68.1641 19.9053ZM78.5059 17.1953C78.5059 18.9971 78.2568 19.9053 77.7588 19.9053C77.5684 19.9053 77.4219 19.8027 77.3193 19.5977C77.0996 19.2021 76.8506 17.3711 76.8506 13.8994C76.8506 12.1562 76.9092 10.8232 77.0117 9.88574C77.1143 8.96289 77.2168 8.3916 77.334 8.18652C77.4365 7.99609 77.583 7.89355 77.7588 7.89355C78.2568 7.9082 78.5059 8.80176 78.5059 10.6035C78.5059 11.1895 78.4619 11.79 78.3594 12.4053H81.2012L81.2891 12.1855C81.3623 11.9072 81.5088 11.0723 81.5088 10.1494C81.5088 7.10254 80.1172 5.50586 77.9053 5.50586C75.0049 5.50586 73.5547 8.30371 73.5547 13.8994C73.5547 19.4951 75.0049 22.293 77.9053 22.293C80.1172 22.293 81.5088 20.6963 81.5088 17.6494C81.4941 16.6094 81.3916 15.8477 81.2012 15.3936H78.3594L78.5059 17.1953ZM87.5 17.6494C87.5 18.543 87.4414 19.1436 87.3242 19.4512C87.207 19.7588 87.0166 19.9053 86.7529 19.9053C86.5625 19.9053 86.416 19.8174 86.3135 19.627C86.0938 19.2754 85.8447 17.752 85.8447 14.9541H90.1953L90.2832 14.6172C90.459 14.2217 90.6494 13.0938 90.6494 11.8047C90.6494 9.68066 90.2979 8.09863 89.5801 7.05859C88.8623 6.01855 87.9688 5.50586 86.8994 5.50586C83.999 5.50586 82.5488 8.30371 82.5488 13.8994C82.5488 19.4951 83.999 22.293 86.8994 22.293C87.8955 22.293 88.7451 21.8975 89.4482 21.1064C90.1514 20.3301 90.5029 19.2754 90.5029 17.957C90.4883 17.2539 90.3857 16.6973 90.1953 16.3018H87.3535L87.5 17.6494ZM85.8447 12.8447C85.8447 11.4531 85.9033 10.3691 86.0059 9.59277C86.1084 8.81641 86.2109 8.34766 86.3135 8.15723C86.416 7.98145 86.5625 7.89355 86.7529 7.89355C86.9287 7.89355 87.0605 7.95215 87.1631 8.06934C87.3389 8.31836 87.5 9.28516 87.5 11.2041C87.5 11.8047 87.4561 12.3467 87.3535 12.8447H85.8447ZM91.748 16.6533C91.6748 16.9902 91.543 17.6787 91.543 18.3965C91.543 20.7988 93.0371 22.293 95.4395 22.293C96.6553 22.293 97.6367 21.8975 98.3838 21.1211C99.1162 20.3447 99.4824 19.29 99.4824 17.957C99.4824 16.3604 98.7646 14.8809 97.8418 13.8262C96.5381 12.3174 94.8242 10.7354 94.8389 8.80176C94.8389 8.20117 95.0439 7.89355 95.4395 7.89355C95.9375 7.9082 96.1865 8.55273 96.1865 9.85645V11.2041H99.043L99.1309 10.9551C99.2041 10.6768 99.3359 10.0029 99.3359 9.40234C99.3359 7 97.8418 5.50586 95.4395 5.50586C94.2969 5.50586 93.3594 5.88672 92.6416 6.64844C91.9092 7.4248 91.543 8.43555 91.543 9.69531C91.543 11.3799 92.2754 12.8887 93.1689 13.9287C94.4727 15.4082 96.2305 16.917 96.1865 18.8506C96.1865 19.5537 95.9375 19.9053 95.4395 19.9053C94.9121 19.9053 94.6924 19.4805 94.6924 17.957V16.4482H91.8359L91.748 16.6533Z" fill="white"/>
</svg>
