<svg width="240" height="240" viewBox="0 0 240 240" fill="none" xmlns="http://www.w3.org/2000/svg">
<g filter="url(#filter0_d_1390_936)">
<path d="M210 119.836C210 169.451 169.706 209.672 120 209.672C70.2944 209.672 30 169.451 30 119.836C30 70.2211 70.2944 30.0001 120 30.0001C169.706 30.0001 210 70.2211 210 119.836Z" fill="#FEAA7B"/>
<path d="M208.445 103.983C200.598 145.403 163.984 176.74 120 176.74C76.0162 176.74 39.4016 145.403 31.5547 103.983C30.5339 109.371 30 114.93 30 120.613C30 169.98 70.2944 210 120 210C169.706 210 210 169.98 210 120.613C210 114.93 209.466 109.371 208.445 103.983Z" fill="#DA8E63"/>
<path d="M82.9412 93.4138C82.9412 101.197 76.6205 107.506 68.8236 107.506C61.0266 107.506 54.7059 101.197 54.7059 93.4138C54.7059 85.6311 61.0266 79.3219 68.8236 79.3219C76.6205 79.3219 82.9412 85.6311 82.9412 93.4138Z" fill="#DA8E63"/>
<path d="M121.765 130.405C121.765 135.269 117.814 139.213 112.941 139.213C108.068 139.213 104.118 135.269 104.118 130.405C104.118 125.541 108.068 121.598 112.941 121.598C117.814 121.598 121.765 125.541 121.765 130.405Z" fill="#DA8E63"/>
<path d="M174.706 107.506C174.706 115.289 168.385 121.598 160.588 121.598C152.791 121.598 146.471 115.289 146.471 107.506C146.471 99.723 152.791 93.4138 160.588 93.4138C168.385 93.4138 174.706 99.723 174.706 107.506Z" fill="#DA8E63"/>
<path d="M185.294 70.5144C185.294 75.3786 181.344 79.3218 176.471 79.3218C171.597 79.3218 167.647 75.3786 167.647 70.5144C167.647 65.6502 171.597 61.7069 176.471 61.7069C181.344 61.7069 185.294 65.6502 185.294 70.5144Z" fill="#DA8E63"/>
</g>
<defs>
<filter id="filter0_d_1390_936" x="0" y="6.10352e-05" width="240" height="240" filterUnits="userSpaceOnUse" color-interpolation-filters="sRGB">
<feFlood flood-opacity="0" result="BackgroundImageFix"/>
<feColorMatrix in="SourceAlpha" type="matrix" values="0 0 0 0 0 0 0 0 0 0 0 0 0 0 0 0 0 0 127 0" result="hardAlpha"/>
<feOffset/>
<feGaussianBlur stdDeviation="15"/>
<feComposite in2="hardAlpha" operator="out"/>
<feColorMatrix type="matrix" values="0 0 0 0 0.996078 0 0 0 0 0.741176 0 0 0 0 0.588235 0 0 0 1 0"/>
<feBlend mode="normal" in2="BackgroundImageFix" result="effect1_dropShadow_1390_936"/>
<feBlend mode="normal" in="SourceGraphic" in2="effect1_dropShadow_1390_936" result="shape"/>
</filter>
</defs>
</svg>
