<svg width="353" height="550" viewBox="0 0 353 550" fill="none" xmlns="http://www.w3.org/2000/svg">
<g filter="url(#filter0_d_2443_3988)">
<mask id="path-1-outside-1_2443_3988" maskUnits="userSpaceOnUse" x="32" y="32" width="289" height="486" fill="black">
<rect fill="white" x="32" y="32" width="289" height="486"/>
<path fill-rule="evenodd" clip-rule="evenodd" d="M36.5823 73.788C34.5619 74.1579 33 75.8587 33 77.9127L33 323.023C33 323.377 33.2949 323.659 33.6494 323.659C42.6147 323.659 49.8825 330.921 49.8825 339.879C49.8825 348.837 42.6147 356.099 33.6494 356.099C33.2949 356.099 33 356.381 33 356.736L33 473.385C33 475.439 34.5617 477.14 36.5821 477.51C54.8095 480.847 69.1809 495.206 72.5219 513.419C72.8925 515.439 74.5931 517 76.6469 517H276.353C278.407 517 280.108 515.439 280.478 513.419C283.819 495.206 298.191 480.847 316.418 477.51C318.438 477.14 320 475.439 320 473.385V356.183C320 356.13 319.956 356.088 319.904 356.09C319.72 356.096 319.535 356.099 319.35 356.099C310.385 356.099 303.117 348.837 303.117 339.879C303.117 330.921 310.385 323.659 319.35 323.659C319.705 323.659 320 323.377 320 323.022V77.9127C320 75.8587 318.438 74.1579 316.418 73.7879C297.799 70.3786 283.204 55.4693 280.278 36.7001C279.955 34.627 278.233 33 276.135 33L76.8654 33C74.7672 33 73.045 34.627 72.7219 36.7001C69.7965 55.4693 55.2012 70.3787 36.5823 73.788Z"/>
</mask>
<path fill-rule="evenodd" clip-rule="evenodd" d="M36.5823 73.788C34.5619 74.1579 33 75.8587 33 77.9127L33 323.023C33 323.377 33.2949 323.659 33.6494 323.659C42.6147 323.659 49.8825 330.921 49.8825 339.879C49.8825 348.837 42.6147 356.099 33.6494 356.099C33.2949 356.099 33 356.381 33 356.736L33 473.385C33 475.439 34.5617 477.14 36.5821 477.51C54.8095 480.847 69.1809 495.206 72.5219 513.419C72.8925 515.439 74.5931 517 76.6469 517H276.353C278.407 517 280.108 515.439 280.478 513.419C283.819 495.206 298.191 480.847 316.418 477.51C318.438 477.14 320 475.439 320 473.385V356.183C320 356.13 319.956 356.088 319.904 356.09C319.72 356.096 319.535 356.099 319.35 356.099C310.385 356.099 303.117 348.837 303.117 339.879C303.117 330.921 310.385 323.659 319.35 323.659C319.705 323.659 320 323.377 320 323.022V77.9127C320 75.8587 318.438 74.1579 316.418 73.7879C297.799 70.3786 283.204 55.4693 280.278 36.7001C279.955 34.627 278.233 33 276.135 33L76.8654 33C74.7672 33 73.045 34.627 72.7219 36.7001C69.7965 55.4693 55.2012 70.3787 36.5823 73.788Z" fill="#1F1D2E"/>
<path d="M72.7219 36.7001L71.7338 36.5461L72.7219 36.7001ZM316.418 477.51L316.598 478.493L316.418 477.51ZM280.478 513.419L281.462 513.599L280.478 513.419ZM72.5219 513.419L71.5383 513.599L72.5219 513.419ZM280.278 36.7001L279.29 36.8541L280.278 36.7001ZM36.5821 477.51L36.7622 476.526L36.5821 477.51ZM316.418 73.7879L316.598 72.8043L316.418 73.7879ZM32 77.9127L32 323.023H34L34 77.9127H32ZM33.6494 324.659C42.0632 324.659 48.8825 331.474 48.8825 339.879H50.8825C50.8825 330.368 43.1662 322.659 33.6494 322.659V324.659ZM48.8825 339.879C48.8825 348.284 42.0632 355.099 33.6494 355.099V357.099C43.1662 357.099 50.8825 349.39 50.8825 339.879H48.8825ZM32 356.736L32 473.385H34L34 356.736H32ZM36.402 478.493C54.2212 481.756 68.2724 495.796 71.5383 513.599L73.5055 513.238C70.0895 494.617 55.3979 479.938 36.7622 476.526L36.402 478.493ZM76.6469 518H276.353V516H76.6469V518ZM281.462 513.599C284.728 495.796 298.779 481.756 316.598 478.493L316.238 476.526C297.602 479.938 282.911 494.617 279.495 513.238L281.462 513.599ZM321 473.385V356.183H319V473.385H321ZM319.87 355.09C319.698 355.096 319.524 355.099 319.35 355.099V357.099C319.546 357.099 319.742 357.096 319.937 357.089L319.87 355.09ZM319.35 355.099C310.936 355.099 304.117 348.284 304.117 339.879H302.117C302.117 349.39 309.833 357.099 319.35 357.099V355.099ZM304.117 339.879C304.117 331.474 310.936 324.659 319.35 324.659V322.659C309.833 322.659 302.117 330.368 302.117 339.879H304.117ZM321 323.022V77.9127H319V323.022H321ZM316.598 72.8043C298.396 69.4713 284.126 54.8935 281.266 36.5461L279.29 36.8541C282.281 56.045 297.202 71.286 316.238 74.7716L316.598 72.8043ZM276.135 32L76.8654 32V34L276.135 34V32ZM71.7338 36.5461C68.8742 54.8936 54.6042 69.4714 36.4022 72.8043L36.7624 74.7716C55.7981 71.286 70.7189 56.0451 73.7099 36.8541L71.7338 36.5461ZM76.8654 32C74.224 32 72.1248 34.0375 71.7338 36.5461L73.7099 36.8541C73.9652 35.2164 75.3104 34 76.8654 34V32ZM319.35 324.659C320.232 324.659 321 323.954 321 323.022H319C319 322.799 319.178 322.659 319.35 322.659V324.659ZM321 356.183C321 355.561 320.484 355.07 319.87 355.09L319.937 357.089C319.428 357.106 319 356.699 319 356.183H321ZM316.598 478.493C319.044 478.045 321 475.97 321 473.385H319C319 474.907 317.833 476.234 316.238 476.526L316.598 478.493ZM276.353 518C278.938 518 281.013 516.044 281.462 513.599L279.495 513.238C279.202 514.833 277.876 516 276.353 516V518ZM71.5383 513.599C71.9869 516.044 74.0618 518 76.6469 518V516C75.1245 516 73.7981 514.833 73.5055 513.238L71.5383 513.599ZM281.266 36.5461C280.875 34.0375 278.776 32 276.135 32V34C277.69 34 279.035 35.2164 279.29 36.8541L281.266 36.5461ZM32 473.385C32 475.97 33.9561 478.045 36.402 478.493L36.7622 476.526C35.1673 476.234 34 474.907 34 473.385H32ZM32 323.023C32 323.955 32.7682 324.659 33.6494 324.659V322.659C33.8215 322.659 34 322.8 34 323.023H32ZM321 77.9127C321 75.3273 319.044 73.2521 316.598 72.8043L316.238 74.7716C317.833 75.0636 319 76.3902 319 77.9127H321ZM33.6494 355.099C32.7682 355.099 32 355.804 32 356.736H34C34 356.959 33.8215 357.099 33.6494 357.099V355.099ZM34 77.9127C34 76.3902 35.1674 75.0636 36.7624 74.7716L36.4022 72.8043C33.9564 73.2522 32 75.3273 32 77.9127H34Z" fill="#9DE5D8" mask="url(#path-1-outside-1_2443_3988)"/>
</g>
<mask id="mask0_2443_3988" style="mask-type:alpha" maskUnits="userSpaceOnUse" x="33" y="33" width="287" height="484">
<path fill-rule="evenodd" clip-rule="evenodd" d="M36.5823 73.788C34.5619 74.1579 33 75.8587 33 77.9127V323.023C33 323.377 33.2949 323.659 33.6494 323.659C42.6147 323.659 49.8825 330.921 49.8825 339.879C49.8825 348.837 42.6147 356.099 33.6494 356.099C33.2949 356.099 33 356.381 33 356.736V473.385C33 475.439 34.5617 477.14 36.5821 477.51C54.8095 480.847 69.1809 495.206 72.5219 513.419C72.8925 515.439 74.5931 517 76.6469 517H276.353C278.407 517 280.108 515.439 280.478 513.419C283.819 495.206 298.191 480.847 316.418 477.51C318.438 477.14 320 475.439 320 473.385V356.737C320 356.382 319.705 356.099 319.35 356.099C310.385 356.099 303.117 348.837 303.117 339.879C303.117 330.921 310.385 323.659 319.35 323.659C319.705 323.659 320 323.377 320 323.022V77.9127C320 75.8587 318.438 74.1579 316.418 73.7879C297.799 70.3786 283.204 55.4693 280.278 36.7001C279.955 34.627 278.233 33 276.135 33H76.8654C74.7672 33 73.045 34.627 72.7219 36.7001C69.7965 55.4693 55.2012 70.3787 36.5823 73.788Z" fill="#FBF6ED"/>
</mask>
<g mask="url(#mask0_2443_3988)">
<ellipse opacity="0.1" cx="158.799" cy="22.3209" rx="13.3824" ry="13.3715" fill="white"/>
<path d="M160.259 259.799L225.037 251.431L280 519.213H121L160.259 259.799Z" fill="url(#paint0_linear_2443_3988)"/>
<ellipse cx="134.03" cy="151.162" rx="7.94998" ry="7.94352" fill="white"/>
<ellipse cx="219.89" cy="151.162" rx="7.94998" ry="7.94352" fill="white"/>
<path fill-rule="evenodd" clip-rule="evenodd" d="M202.128 251.25L183.318 255.077L188.319 279.615L188.378 279.603L191.44 293.768L222.523 287.061L221.031 280.155C219.631 273.677 213.244 269.559 206.766 270.957L206.17 271.085L202.128 251.25Z" fill="white"/>
<rect width="19.1952" height="20.4221" transform="matrix(0.979927 -0.199357 0.199668 0.979863 183.32 255.077)" fill="#9DE5D8"/>
<path fill-rule="evenodd" clip-rule="evenodd" d="M153.339 251.238L172.149 255.064L167.149 279.602L167.089 279.59L164.028 293.755L132.944 287.048L134.437 280.142C135.837 273.664 142.224 269.546 148.702 270.944L149.297 271.073L153.339 251.238Z" fill="white"/>
<rect width="19.1952" height="20.1847" transform="matrix(-0.979927 -0.199357 -0.199668 0.979863 172.15 255.064)" fill="#9DE5D8"/>
<rect x="154.7" y="190.88" width="69.9598" height="66.7256" rx="6" fill="#9DE5D8"/>
<path fill-rule="evenodd" clip-rule="evenodd" d="M177.104 110.857C184.45 108.651 188.627 100.905 186.421 93.559C182.466 94.7464 179.429 97.5399 177.813 101.013C177.147 99.6316 176.137 98.3919 174.806 97.4319C171.722 101.701 172.687 107.66 176.958 110.74C176.984 110.703 177.011 110.666 177.037 110.628C177.059 110.704 177.081 110.781 177.104 110.857Z" fill="#FEAA7B"/>
<path fill-rule="evenodd" clip-rule="evenodd" d="M176.96 187.702C196.279 187.702 211.94 172.054 211.94 152.751C211.94 133.448 196.279 117.799 176.96 117.799C157.641 117.799 141.98 133.448 141.98 152.751C141.98 172.054 157.641 187.702 176.96 187.702ZM176.96 197.235C201.548 197.235 221.48 177.318 221.48 152.751C221.48 128.183 201.548 108.267 176.96 108.267C152.372 108.267 132.44 128.183 132.44 152.751C132.44 177.318 152.372 197.235 176.96 197.235Z" fill="white"/>
<rect x="142" y="187.702" width="69.9598" height="73.0804" rx="6" fill="white"/>
<rect width="19.9869" height="29.9952" transform="matrix(0.442419 -0.896808 0.897093 0.441841 117 203.409)" fill="white"/>
<ellipse cx="116" cy="191.479" rx="12" ry="11.9902" fill="white"/>
<rect width="19.9869" height="29.9952" transform="matrix(-0.442419 -0.896808 -0.897093 0.441841 236.751 203.409)" fill="white"/>
<ellipse rx="12" ry="11.9902" transform="matrix(-1 0 0 1 237.751 191.48)" fill="white"/>
<rect x="153" y="206.767" width="48" height="19.9837" rx="2" fill="#9DE5D8"/>
<path fill-rule="evenodd" clip-rule="evenodd" d="M211.362 159.106C208.372 175.375 194.106 187.702 176.959 187.702C159.812 187.702 145.547 175.375 142.556 159.106H132.89C135.976 180.663 154.531 197.234 176.959 197.234C199.387 197.234 217.942 180.663 221.028 159.106H211.362Z" fill="#9DE5D8"/>
<ellipse cx="176.497" cy="152.372" rx="35.8012" ry="35.7721" fill="#1F1D2E"/>
<path opacity="0.2" d="M194.488 183.107C202.71 178.364 208.71 170.551 211.168 161.387C213.625 152.223 212.339 142.459 207.591 134.243C202.844 126.027 195.025 120.032 185.853 117.577C176.682 115.121 166.91 116.407 158.688 121.15L176.588 152.129L194.488 183.107Z" fill="white"/>
<ellipse rx="21.8272" ry="21.8272" transform="matrix(-0.707394 0.706819 -0.707394 -0.706819 64.363 70.9752)" fill="#9DE5D8"/>
<circle r="14.7915" transform="matrix(-0.707394 0.706819 -0.707394 -0.706819 134.918 70.0693)" fill="#DDB4FF"/>
<path fill-rule="evenodd" clip-rule="evenodd" d="M180.326 24.0312C185.415 22.6688 190.646 25.6863 192.009 30.771C193.373 35.8557 190.353 41.0821 185.264 42.4445C180.175 43.807 174.944 40.7895 173.581 35.7048C172.217 30.6201 175.237 25.3937 180.326 24.0312ZM178.136 15.8654C187.739 13.2945 197.609 18.9884 200.182 28.5829C202.755 38.1775 197.056 48.0396 187.454 50.6104C177.851 53.1813 167.981 47.4874 165.408 37.8928C162.835 28.2983 168.534 18.4362 178.136 15.8654Z" fill="#C4FCA3"/>
<line x1="297" y1="340.75" x2="42.9999" y2="340.75" stroke="white" stroke-width="2" stroke-dasharray="10 10"/>
<path fill-rule="evenodd" clip-rule="evenodd" d="M259 506.615L259 476.639L256 476.639L256 506.615L259 506.615ZM252 506.615L252 476.639L249 476.639L249 506.615L252 506.615ZM245 476.639L245 506.615L242 506.615L242 476.639L245 476.639ZM238 506.615L238 476.639L235 476.639L235 506.615L238 506.615ZM231 476.639L231 506.615L228 506.615L228 476.639L231 476.639ZM224 506.615L224 476.639L221 476.639L221 506.615L224 506.615ZM217 476.639L217 506.615L214 506.615L214 476.639L217 476.639ZM210 506.615L210 476.639L207 476.639L207 506.615L210 506.615ZM203 476.639L203 506.615L200 506.615L200 476.639L203 476.639ZM196 506.615L196 476.639L193 476.639L193 506.615L196 506.615ZM189 476.639L189 506.615L186 506.615L186 476.639L189 476.639ZM182 506.615L182 476.639L179 476.639L179 506.615L182 506.615ZM175 476.639L175 506.615L172 506.615L172 476.639L175 476.639ZM168 506.615L168 476.639L165 476.639L165 506.615L168 506.615ZM161 476.639L161 506.615L158 506.615L158 476.639L161 476.639ZM154 506.615L154 476.639L151 476.639L151 506.615L154 506.615ZM147 476.639L147 506.615L144 506.615L144 476.639L147 476.639ZM140 506.615L140 476.639L137 476.639L137 506.615L140 506.615ZM133 476.639L133 506.615L130 506.615L130 476.639L133 476.639ZM126 506.615L126 476.639L123 476.639L123 506.615L126 506.615ZM119 476.639L119 506.615L116 506.615L116 476.639L119 476.639ZM111.999 506.615L111.999 476.639L108.999 476.639L108.999 506.615L111.999 506.615ZM104.999 476.639L104.999 506.615L101.999 506.615L101.999 476.639L104.999 476.639ZM97.9993 506.615L97.9993 476.639L94.9993 476.639L94.9993 506.615L97.9993 506.615Z" fill="white"/>
</g>
<path d="M111.198 444.482L112.64 433.873H112.991L114.433 444.482H120.919L121.991 419.295H116.419L117.14 439.441H116.595L114.626 425.952H111.022L109.036 439.441H108.491L109.212 419.295H103.64L104.712 444.482H111.198Z" fill="white"/>
<path d="M131.535 438.369C131.535 440.179 131.237 441.074 130.639 441.057C129.848 441.074 129.426 439.388 129.373 436.033H136.035L136.176 435.7C136.369 435.226 136.58 433.856 136.58 432.257C136.58 429.658 136.053 427.691 134.981 426.338C133.908 425.003 132.52 424.336 130.815 424.336C128.793 424.336 127.158 425.179 125.893 426.883C124.61 428.586 123.977 431.168 123.977 434.593C123.977 438.018 124.61 440.582 125.893 442.286C127.158 443.99 128.793 444.833 130.815 444.833C132.344 444.833 133.627 444.288 134.664 443.217C135.701 442.146 136.211 440.758 136.211 439.09C136.211 438.492 136.158 438.018 136.035 437.649H131.535V438.369ZM129.373 433.153C129.426 431.73 129.514 430.641 129.672 429.851C129.813 429.078 129.953 428.586 130.112 428.393C130.252 428.2 130.428 428.112 130.639 428.112C131.237 428.112 131.535 429.5 131.535 432.257V433.153H129.373Z" fill="white"/>
<path d="M144.332 440.547C144.191 440.337 144.068 439.739 143.945 438.756C143.822 437.772 143.769 436.385 143.769 434.576C143.769 432.784 143.822 431.397 143.945 430.413C144.068 429.429 144.191 428.832 144.332 428.604C144.595 428.182 145.105 428.182 145.369 428.604C145.492 428.832 145.632 429.429 145.755 430.413C145.878 431.397 145.931 432.784 145.931 434.576C145.931 436.385 145.878 437.772 145.755 438.756C145.632 439.739 145.492 440.337 145.369 440.547C145.105 440.986 144.595 440.986 144.332 440.547ZM142.152 444.482L142.679 440.161H143.048L143.365 441.32C143.558 442.111 143.98 442.883 144.595 443.656C145.211 444.447 145.966 444.833 146.828 444.833C148.005 444.833 149.043 444.007 149.957 442.356C150.871 440.705 151.328 438.124 151.328 434.593C151.328 431.063 150.871 428.481 149.957 426.812C149.043 425.161 148.005 424.336 146.828 424.336C145.773 424.336 144.753 425.126 144.261 425.952C143.998 426.356 143.769 426.83 143.558 427.374C143.119 428.446 143.101 428.78 143.048 429.008H142.503L143.769 424.336V419.295H138.724V444.482H142.152Z" fill="white"/>
<path d="M153.366 435.77C153.278 436.121 153.12 437.035 153.12 438.001C153.12 440.126 153.7 441.812 154.86 443.094C156.02 444.376 157.479 445.026 159.237 445.026C161.206 445.026 162.806 444.288 164.054 442.796C165.284 441.32 165.899 439.248 165.899 436.56C165.899 434.014 165.266 432.029 164.018 430.606C162.753 429.184 161.1 428.481 159.061 428.481V428.112L162.12 427.568L165.354 423.44V419.295H153.472V423.985H159.413L155.634 428.832V433.329H156.354L156.53 433.188C156.829 432.995 157.427 432.784 157.972 432.784C158.763 432.784 159.36 433.048 159.747 433.592C160.116 434.137 160.309 435.12 160.309 436.56C160.309 437.79 160.257 438.738 160.169 439.388C160.081 440.056 159.958 440.477 159.835 440.635C159.694 440.793 159.518 440.881 159.307 440.881C158.657 440.881 158.341 439.915 158.341 438.001V435.489H153.472L153.366 435.77Z" fill="white"/>
<path d="M174.634 436.35C174.494 436.754 174.353 437.755 174.353 438.721C174.353 440.618 174.933 442.146 176.076 443.287C177.218 444.447 178.747 445.026 180.646 445.026C182.474 445.026 183.986 444.394 185.181 443.129C186.359 441.882 186.956 440.231 186.956 438.194C186.956 435.647 185.831 433.346 184.425 431.748C182.369 429.429 179.714 427.252 179.749 424.705C179.749 423.616 180.048 423.071 180.646 423.071C181.367 423.089 181.736 424.108 181.736 426.145V427.761H186.587L186.658 427.497C186.816 427.129 186.956 426.286 186.956 425.425C186.956 423.458 186.359 421.859 185.181 420.612C183.986 419.383 182.474 418.768 180.663 418.768C178.835 418.768 177.324 419.4 176.146 420.683C174.951 421.965 174.353 423.668 174.353 425.776C174.353 426.988 174.599 428.147 175.091 429.236C175.583 430.343 176.181 431.274 176.902 432.064C178.941 434.365 181.595 436.525 181.56 439.09C181.542 440.161 181.244 440.705 180.646 440.705C179.925 440.705 179.574 439.687 179.574 437.649V436.033H174.704L174.634 436.35Z" fill="white"/>
<path d="M194.708 440.547C194.567 440.337 194.444 439.739 194.321 438.756C194.198 437.772 194.145 436.385 194.145 434.576C194.145 432.784 194.198 431.397 194.321 430.413C194.444 429.429 194.567 428.832 194.708 428.604C194.971 428.182 195.481 428.182 195.745 428.604C195.868 428.832 196.008 429.429 196.132 430.413C196.255 431.397 196.307 432.784 196.307 434.576C196.307 436.385 196.255 437.772 196.132 438.756C196.008 439.739 195.868 440.337 195.745 440.547C195.481 440.986 194.971 440.986 194.708 440.547ZM194.145 450.963V444.833L192.88 440.161H193.424L193.741 441.32C193.934 442.111 194.356 442.883 194.971 443.656C195.587 444.447 196.342 444.833 197.204 444.833C198.382 444.833 199.419 444.007 200.333 442.356C201.247 440.705 201.704 438.124 201.704 434.593C201.704 431.063 201.247 428.481 200.333 426.812C199.419 425.161 198.382 424.336 197.204 424.336C196.149 424.336 195.13 425.126 194.637 425.952C194.374 426.356 194.145 426.83 193.934 427.374C193.495 428.446 193.477 428.78 193.424 429.008H192.88L194.145 425.056V424.705H189.1V450.963H194.145Z" fill="white"/>
<path d="M208.348 438.896C208.348 437.474 208.646 436.754 209.262 436.754C209.859 436.754 210.158 437.474 210.158 438.896C210.158 440.337 209.859 441.057 209.262 441.057C208.646 441.057 208.348 440.337 208.348 438.896ZM216.451 444.482V444.13L216.205 444.043C215.906 443.99 215.555 443.375 215.555 442.321V431.537C215.555 426.742 213.568 424.336 209.613 424.336C208.031 424.336 206.713 424.828 205.641 425.829C204.568 426.83 204.023 428.007 204.023 429.377C204.041 430.343 204.164 431.063 204.393 431.537H208.893V430.273C208.893 428.832 209.156 428.112 209.684 428.112C210.228 428.112 210.51 428.832 210.51 430.273V432.977L211.775 437.649H211.23L210.949 436.49C210.773 435.7 210.369 434.927 209.754 434.137C209.139 433.364 208.365 432.977 207.451 432.977C206.309 432.977 205.324 433.504 204.516 434.541C203.707 435.577 203.303 437.035 203.303 438.896C203.303 440.776 203.707 442.233 204.516 443.27C205.324 444.306 206.309 444.833 207.451 444.833C208.594 444.833 209.596 444.025 210.105 443.217C210.352 442.813 210.58 442.339 210.773 441.794C211.16 440.705 211.178 440.389 211.23 440.161H211.775L210.51 444.482H216.451Z" fill="white"/>
<path d="M225.275 437.649C225.275 439.933 224.976 441.074 224.378 441.057C223.534 441.057 223.113 438.896 223.113 434.576C223.113 430.273 223.534 428.112 224.378 428.112C224.976 428.112 225.275 429.254 225.275 431.537V432.784H229.775L229.845 432.538C229.986 432.257 230.126 431.414 230.126 430.448C230.126 428.586 229.616 427.093 228.579 425.987C227.542 424.88 226.206 424.336 224.554 424.336C222.532 424.336 220.898 425.179 219.632 426.883C218.349 428.586 217.716 431.168 217.716 434.593C217.716 438.018 218.349 440.582 219.632 442.286C220.898 443.99 222.532 444.833 224.554 444.833C226.206 444.833 227.542 444.288 228.579 443.182C229.616 442.075 230.126 440.6 230.126 438.721C230.126 437.649 230.003 436.859 229.775 436.385H225.275V437.649Z" fill="white"/>
<path d="M239.495 438.369C239.495 440.179 239.196 441.074 238.598 441.057C237.807 441.074 237.385 439.388 237.333 436.033H243.995L244.135 435.7C244.329 435.226 244.54 433.856 244.54 432.257C244.54 429.658 244.012 427.691 242.94 426.338C241.868 425.003 240.479 424.336 238.774 424.336C236.752 424.336 235.118 425.179 233.852 426.883C232.569 428.586 231.936 431.168 231.936 434.593C231.936 438.018 232.569 440.582 233.852 442.286C235.118 443.99 236.752 444.833 238.774 444.833C240.303 444.833 241.586 444.288 242.624 443.217C243.661 442.146 244.17 440.758 244.17 439.09C244.17 438.492 244.118 438.018 243.995 437.649H239.495V438.369ZM237.333 433.153C237.385 431.73 237.473 430.641 237.631 429.851C237.772 429.078 237.913 428.586 238.071 428.393C238.211 428.2 238.387 428.112 238.598 428.112C239.196 428.112 239.495 429.5 239.495 432.257V433.153H237.333Z" fill="white"/>
<path d="M246.578 438.036C246.49 438.334 246.332 439.037 246.332 439.81C246.332 441.303 246.877 442.497 247.949 443.428C249.021 444.359 250.533 444.833 252.449 444.833C254.33 444.833 255.806 444.306 256.914 443.252C258.021 442.198 258.566 440.811 258.566 439.09C258.566 437.86 258.197 436.736 257.441 435.7C256.685 434.663 255.859 433.856 254.963 433.258C254.066 432.661 253.258 431.994 252.502 431.274C251.746 430.554 251.359 429.869 251.359 429.201C251.359 428.481 251.799 428.112 252.344 428.112C253.012 428.112 253.346 428.78 253.346 430.097V431.168H257.846L257.951 430.957C258.039 430.676 258.215 430.009 258.215 429.377C258.215 427.884 257.687 426.672 256.633 425.741C255.578 424.81 254.119 424.336 252.273 424.336C250.498 424.336 249.056 424.845 247.967 425.864C246.877 426.883 246.332 428.165 246.332 429.728C246.332 430.659 246.508 431.537 246.859 432.327C247.545 433.943 248.617 434.909 249.847 435.946C250.463 436.455 251.025 436.912 251.535 437.28C252.572 438.053 253.346 439.019 253.346 439.985C253.346 440.705 252.924 441.057 252.379 441.057C251.553 441.057 251.183 440.547 251.183 438.914V437.825H246.683L246.578 438.036Z" fill="white"/>
<path d="M77.2538 394.4C77.2538 393.301 77.4991 392.32 77.9898 391.456C78.4911 390.581 79.1685 389.904 80.0218 389.424C80.8858 388.933 81.8511 388.688 82.9178 388.688C84.1658 388.688 85.2591 389.008 86.1978 389.648C87.1365 390.288 87.7925 391.173 88.1658 392.304H85.5898C85.3338 391.771 84.9711 391.371 84.5018 391.104C84.0431 390.837 83.5098 390.704 82.9018 390.704C82.2511 390.704 81.6698 390.859 81.1578 391.168C80.6565 391.467 80.2618 391.893 79.9738 392.448C79.6965 393.003 79.5578 393.653 79.5578 394.4C79.5578 395.136 79.6965 395.787 79.9738 396.352C80.2618 396.907 80.6565 397.339 81.1578 397.648C81.6698 397.947 82.2511 398.096 82.9018 398.096C83.5098 398.096 84.0431 397.963 84.5018 397.696C84.9711 397.419 85.3338 397.013 85.5898 396.48H88.1658C87.7925 397.621 87.1365 398.512 86.1978 399.152C85.2698 399.781 84.1765 400.096 82.9178 400.096C81.8511 400.096 80.8858 399.856 80.0218 399.376C79.1685 398.885 78.4911 398.208 77.9898 397.344C77.4991 396.48 77.2538 395.499 77.2538 394.4Z" fill="white"/>
<path d="M98.719 398.224H102.399V400H96.479V388.832H98.719V398.224Z" fill="white"/>
<path d="M117.071 397.872H112.623L111.887 400H109.535L113.551 388.816H116.159L120.175 400H117.807L117.071 397.872ZM116.463 396.08L114.847 391.408L113.231 396.08H116.463Z" fill="white"/>
<path d="M131.932 400.112C131.153 400.112 130.449 399.979 129.82 399.712C129.201 399.445 128.711 399.061 128.348 398.56C127.985 398.059 127.799 397.467 127.788 396.784H130.188C130.22 397.243 130.38 397.605 130.668 397.872C130.967 398.139 131.372 398.272 131.884 398.272C132.407 398.272 132.817 398.149 133.116 397.904C133.415 397.648 133.564 397.317 133.564 396.912C133.564 396.581 133.463 396.309 133.26 396.096C133.057 395.883 132.801 395.717 132.492 395.6C132.193 395.472 131.777 395.333 131.244 395.184C130.519 394.971 129.927 394.763 129.468 394.56C129.02 394.347 128.631 394.032 128.3 393.616C127.98 393.189 127.82 392.624 127.82 391.92C127.82 391.259 127.985 390.683 128.316 390.192C128.647 389.701 129.111 389.328 129.708 389.072C130.305 388.805 130.988 388.672 131.756 388.672C132.908 388.672 133.841 388.955 134.556 389.52C135.281 390.075 135.681 390.853 135.756 391.856H133.292C133.271 391.472 133.105 391.157 132.796 390.912C132.497 390.656 132.097 390.528 131.596 390.528C131.159 390.528 130.807 390.64 130.54 390.864C130.284 391.088 130.156 391.413 130.156 391.84C130.156 392.139 130.252 392.389 130.444 392.592C130.647 392.784 130.892 392.944 131.18 393.072C131.479 393.189 131.895 393.328 132.428 393.488C133.153 393.701 133.745 393.915 134.204 394.128C134.663 394.341 135.057 394.661 135.388 395.088C135.719 395.515 135.884 396.075 135.884 396.768C135.884 397.365 135.729 397.92 135.42 398.432C135.111 398.944 134.657 399.355 134.06 399.664C133.463 399.963 132.753 400.112 131.932 400.112Z" fill="white"/>
<path d="M148.082 400.112C147.303 400.112 146.599 399.979 145.97 399.712C145.351 399.445 144.861 399.061 144.498 398.56C144.135 398.059 143.949 397.467 143.938 396.784H146.338C146.37 397.243 146.53 397.605 146.818 397.872C147.117 398.139 147.522 398.272 148.034 398.272C148.557 398.272 148.967 398.149 149.266 397.904C149.565 397.648 149.714 397.317 149.714 396.912C149.714 396.581 149.613 396.309 149.41 396.096C149.207 395.883 148.951 395.717 148.642 395.6C148.343 395.472 147.927 395.333 147.394 395.184C146.669 394.971 146.077 394.763 145.618 394.56C145.17 394.347 144.781 394.032 144.45 393.616C144.13 393.189 143.97 392.624 143.97 391.92C143.97 391.259 144.135 390.683 144.466 390.192C144.797 389.701 145.261 389.328 145.858 389.072C146.455 388.805 147.138 388.672 147.906 388.672C149.058 388.672 149.991 388.955 150.706 389.52C151.431 390.075 151.831 390.853 151.906 391.856H149.442C149.421 391.472 149.255 391.157 148.946 390.912C148.647 390.656 148.247 390.528 147.746 390.528C147.309 390.528 146.957 390.64 146.69 390.864C146.434 391.088 146.306 391.413 146.306 391.84C146.306 392.139 146.402 392.389 146.594 392.592C146.797 392.784 147.042 392.944 147.33 393.072C147.629 393.189 148.045 393.328 148.578 393.488C149.303 393.701 149.895 393.915 150.354 394.128C150.813 394.341 151.207 394.661 151.538 395.088C151.869 395.515 152.034 396.075 152.034 396.768C152.034 397.365 151.879 397.92 151.57 398.432C151.261 398.944 150.807 399.355 150.21 399.664C149.613 399.963 148.903 400.112 148.082 400.112Z" fill="white"/>
<path d="M162.616 388.832V400H160.376V388.832H162.616Z" fill="white"/>
<path d="M170.685 394.4C170.685 393.301 170.93 392.32 171.421 391.456C171.922 390.581 172.6 389.904 173.453 389.424C174.317 388.933 175.282 388.688 176.349 388.688C177.597 388.688 178.69 389.008 179.629 389.648C180.568 390.288 181.224 391.173 181.597 392.304H179.021C178.765 391.771 178.402 391.371 177.933 391.104C177.474 390.837 176.941 390.704 176.333 390.704C175.682 390.704 175.101 390.859 174.589 391.168C174.088 391.467 173.693 391.893 173.405 392.448C173.128 393.003 172.989 393.653 172.989 394.4C172.989 395.136 173.128 395.787 173.405 396.352C173.693 396.907 174.088 397.339 174.589 397.648C175.101 397.947 175.682 398.096 176.333 398.096C176.941 398.096 177.474 397.963 177.933 397.696C178.402 397.419 178.765 397.013 179.021 396.48H181.597C181.224 397.621 180.568 398.512 179.629 399.152C178.701 399.781 177.608 400.096 176.349 400.096C175.282 400.096 174.317 399.856 173.453 399.376C172.6 398.885 171.922 398.208 171.421 397.344C170.93 396.48 170.685 395.499 170.685 394.4Z" fill="white"/>
<path d="M207.723 388.832V390.64H204.747V400H202.507V390.64H199.531V388.832H207.723Z" fill="white"/>
<path d="M220.941 400.112C219.896 400.112 218.936 399.867 218.061 399.376C217.187 398.885 216.493 398.208 215.981 397.344C215.469 396.469 215.213 395.483 215.213 394.384C215.213 393.296 215.469 392.32 215.981 391.456C216.493 390.581 217.187 389.899 218.061 389.408C218.936 388.917 219.896 388.672 220.941 388.672C221.997 388.672 222.957 388.917 223.821 389.408C224.696 389.899 225.384 390.581 225.885 391.456C226.397 392.32 226.653 393.296 226.653 394.384C226.653 395.483 226.397 396.469 225.885 397.344C225.384 398.208 224.696 398.885 223.821 399.376C222.947 399.867 221.986 400.112 220.941 400.112ZM220.941 398.112C221.613 398.112 222.205 397.963 222.717 397.664C223.229 397.355 223.629 396.917 223.917 396.352C224.205 395.787 224.349 395.131 224.349 394.384C224.349 393.637 224.205 392.987 223.917 392.432C223.629 391.867 223.229 391.435 222.717 391.136C222.205 390.837 221.613 390.688 220.941 390.688C220.269 390.688 219.672 390.837 219.149 391.136C218.637 391.435 218.237 391.867 217.949 392.432C217.661 392.987 217.517 393.637 217.517 394.384C217.517 395.131 217.661 395.787 217.949 396.352C218.237 396.917 218.637 397.355 219.149 397.664C219.672 397.963 220.269 398.112 220.941 398.112Z" fill="white"/>
<path d="M241.024 400L236.96 395.024V400H234.72V388.832H236.96V393.84L241.024 388.832H243.728L239.12 394.368L243.856 400H241.024Z" fill="white"/>
<path d="M253.969 390.64V393.44H257.729V395.216H253.969V398.176H258.209V400H251.729V388.816H258.209V390.64H253.969Z" fill="white"/>
<path d="M276.197 400H273.957L268.885 392.336V400H266.645V388.816H268.885L273.957 396.496V388.816H276.197V400Z" fill="white"/>
<defs>
<filter id="filter0_d_2443_3988" x="0" y="0" width="353" height="550" filterUnits="userSpaceOnUse" color-interpolation-filters="sRGB">
<feFlood flood-opacity="0" result="BackgroundImageFix"/>
<feColorMatrix in="SourceAlpha" type="matrix" values="0 0 0 0 0 0 0 0 0 0 0 0 0 0 0 0 0 0 127 0" result="hardAlpha"/>
<feOffset/>
<feGaussianBlur stdDeviation="16"/>
<feComposite in2="hardAlpha" operator="out"/>
<feColorMatrix type="matrix" values="0 0 0 0 0.576471 0 0 0 0 0.886275 0 0 0 0 0.831373 0 0 0 1 0"/>
<feBlend mode="normal" in2="BackgroundImageFix" result="effect1_dropShadow_2443_3988"/>
<feBlend mode="normal" in="SourceGraphic" in2="effect1_dropShadow_2443_3988" result="shape"/>
</filter>
<linearGradient id="paint0_linear_2443_3988" x1="200.5" y1="251.431" x2="200.5" y2="519.213" gradientUnits="userSpaceOnUse">
<stop stop-color="#FEAA7B"/>
<stop offset="1" stop-color="#FEAA7B" stop-opacity="0"/>
</linearGradient>
</defs>
</svg>
