<svg width="413" height="576" viewBox="0 0 413 576" fill="none" xmlns="http://www.w3.org/2000/svg">
<g filter="url(#filter0_d_1508_1164)">
<mask id="path-1-outside-1_1508_1164" maskUnits="userSpaceOnUse" x="25.8555" y="25.5663" width="361.469" height="525.226" fill="black">
<rect fill="white" x="25.8555" y="25.5663" width="361.469" height="525.226"/>
<path fill-rule="evenodd" clip-rule="evenodd" d="M99.8714 67.5566C97.818 67.606 96.0093 69.0415 95.688 71.0702L57.3443 313.162C57.2889 313.513 57.536 313.838 57.8862 313.893C66.741 315.295 72.7833 323.605 71.382 332.453C69.9806 341.3 61.6663 347.336 52.8115 345.933C52.4613 345.878 52.1259 346.111 52.0704 346.461L33.8225 461.673C33.5012 463.702 34.7776 465.626 36.7152 466.308C54.1962 472.456 66.1444 488.886 66.5952 507.397C66.6452 509.45 68.0806 511.258 70.1091 511.579L267.357 542.82C269.385 543.142 271.309 541.866 271.991 539.928C278.14 522.463 294.581 510.529 313.106 510.084C315.159 510.034 316.968 508.599 317.289 506.57L335.623 390.811C335.632 390.759 335.595 390.711 335.543 390.704C335.36 390.682 335.178 390.656 334.995 390.627C326.14 389.224 320.097 380.915 321.499 372.067C322.9 363.219 331.214 357.184 340.069 358.586C340.42 358.642 340.755 358.409 340.811 358.059L379.155 115.967C379.476 113.938 378.199 112.014 376.262 111.333C358.405 105.053 346.322 88.0436 346.369 69.0478C346.374 66.9497 344.928 65.0733 342.855 64.7451L146.039 33.5725C143.967 33.2443 142.011 34.5818 141.368 36.5789C135.542 54.6594 118.794 67.102 99.8714 67.5566Z"/>
</mask>
<path fill-rule="evenodd" clip-rule="evenodd" d="M99.8714 67.5566C97.818 67.606 96.0093 69.0415 95.688 71.0702L57.3443 313.162C57.2889 313.513 57.536 313.838 57.8862 313.893C66.741 315.295 72.7833 323.605 71.382 332.453C69.9806 341.3 61.6663 347.336 52.8115 345.933C52.4613 345.878 52.1259 346.111 52.0704 346.461L33.8225 461.673C33.5012 463.702 34.7776 465.626 36.7152 466.308C54.1962 472.456 66.1444 488.886 66.5952 507.397C66.6452 509.45 68.0806 511.258 70.1091 511.579L267.357 542.82C269.385 543.142 271.309 541.866 271.991 539.928C278.14 522.463 294.581 510.529 313.106 510.084C315.159 510.034 316.968 508.599 317.289 506.57L335.623 390.811C335.632 390.759 335.595 390.711 335.543 390.704C335.36 390.682 335.178 390.656 334.995 390.627C326.14 389.224 320.097 380.915 321.499 372.067C322.9 363.219 331.214 357.184 340.069 358.586C340.42 358.642 340.755 358.409 340.811 358.059L379.155 115.967C379.476 113.938 378.199 112.014 376.262 111.333C358.405 105.053 346.322 88.0436 346.369 69.0478C346.374 66.9497 344.928 65.0733 342.855 64.7451L146.039 33.5725C143.967 33.2443 142.011 34.5818 141.368 36.5789C135.542 54.6594 118.794 67.102 99.8714 67.5566Z" fill="#1F1D2E"/>
<path d="M340.811 358.059L339.823 357.902L340.811 358.059ZM335.623 390.811L334.636 390.655L335.623 390.811ZM313.106 510.084L313.13 511.083L313.106 510.084ZM317.289 506.57L316.301 506.414L317.289 506.57ZM267.357 542.82L267.2 543.808L267.357 542.82ZM66.5952 507.397L65.5955 507.421L66.5952 507.397ZM70.1091 511.579L70.2655 510.592L70.1091 511.579ZM346.369 69.0478L345.369 69.0454L346.369 69.0478ZM36.7152 466.308L37.047 465.364L36.7152 466.308ZM379.155 115.967L380.142 116.123L379.155 115.967ZM376.262 111.333L376.593 110.389L376.262 111.333ZM99.8714 67.5566L99.8954 68.5563L99.8714 67.5566ZM94.7003 70.9138L56.3566 313.006L58.332 313.319L96.6757 71.2267L94.7003 70.9138ZM57.7297 314.881C66.0399 316.197 71.7091 323.995 70.3943 332.296L72.3697 332.609C73.8575 323.215 67.4422 314.394 58.0426 312.905L57.7297 314.881ZM70.3943 332.296C69.0795 340.598 61.2781 346.262 52.9679 344.946L52.655 346.921C62.0546 348.41 70.8818 342.003 72.3697 332.609L70.3943 332.296ZM51.0827 346.304L32.8348 461.517L34.8102 461.83L53.0581 346.617L51.0827 346.304ZM36.3834 467.251C53.4729 473.261 65.1548 489.326 65.5955 507.421L67.5949 507.373C67.1339 488.446 54.9195 471.65 37.047 465.364L36.3834 467.251ZM69.9527 512.567L267.2 543.808L267.513 541.833L70.2655 510.592L69.9527 512.567ZM272.934 540.261C278.945 523.187 295.02 511.519 313.13 511.083L313.082 509.084C294.142 509.539 277.335 521.739 271.048 539.596L272.934 540.261ZM318.277 506.727L336.611 390.967L334.636 390.655L316.301 506.414L318.277 506.727ZM335.666 389.712C335.495 389.691 335.323 389.666 335.151 389.639L334.838 391.614C335.032 391.645 335.226 391.673 335.42 391.697L335.666 389.712ZM335.151 389.639C326.841 388.323 321.172 380.525 322.486 372.224L320.511 371.911C319.023 381.305 325.439 390.126 334.838 391.614L335.151 389.639ZM322.486 372.224C323.801 363.922 331.603 358.258 339.913 359.574L340.226 357.599C330.826 356.11 321.999 362.517 320.511 371.911L322.486 372.224ZM341.799 358.215L380.142 116.123L378.167 115.81L339.823 357.902L341.799 358.215ZM376.593 110.389C359.137 104.25 347.323 87.6192 347.369 69.0503L345.369 69.0454C345.321 88.468 357.674 105.855 375.93 112.276L376.593 110.389ZM343.012 63.7574L146.196 32.5848L145.883 34.5602L342.699 65.7328L343.012 63.7574ZM140.416 36.2722C134.721 53.9464 118.347 66.1124 99.8474 66.5569L99.8954 68.5563C119.242 68.0915 136.363 55.3723 142.32 36.8855L140.416 36.2722ZM146.196 32.5848C143.587 32.1716 141.195 33.8557 140.416 36.2722L142.32 36.8855C142.828 35.3079 144.347 34.3169 145.883 34.5602L146.196 32.5848ZM339.913 359.574C340.783 359.712 341.653 359.136 341.799 358.215L339.823 357.902C339.858 357.682 340.056 357.572 340.226 357.599L339.913 359.574ZM336.611 390.967C336.708 390.353 336.276 389.788 335.666 389.712L335.419 391.697C334.914 391.634 334.555 391.165 334.636 390.655L336.611 390.967ZM313.13 511.083C315.616 511.024 317.872 509.28 318.277 506.727L316.301 506.414C316.063 507.918 314.703 509.045 313.082 509.084L313.13 511.083ZM267.2 543.808C269.754 544.213 272.109 542.606 272.934 540.261L271.048 539.596C270.51 541.126 269.017 542.071 267.513 541.833L267.2 543.808ZM65.5955 507.421C65.656 509.907 67.3994 512.163 69.9527 512.567L70.2655 510.592C68.7619 510.354 67.6343 508.993 67.5949 507.373L65.5955 507.421ZM347.369 69.0503C347.375 66.5115 345.621 64.1706 343.012 63.7574L342.699 65.7328C344.235 65.976 345.373 67.3879 345.369 69.0454L347.369 69.0503ZM32.8348 461.517C32.4304 464.071 34.0377 466.426 36.3834 467.251L37.047 465.364C35.5174 464.826 34.572 463.334 34.8102 461.83L32.8348 461.517ZM56.3566 313.006C56.2108 313.927 56.8594 314.743 57.7297 314.881L58.0426 312.905C58.2125 312.932 58.3669 313.099 58.332 313.319L56.3566 313.006ZM380.142 116.123C380.547 113.57 378.939 111.214 376.593 110.389L375.93 112.276C377.459 112.814 378.405 114.307 378.167 115.81L380.142 116.123ZM52.9679 344.946C52.0976 344.808 51.2285 345.384 51.0827 346.304L53.0581 346.617C53.0232 346.837 52.825 346.948 52.655 346.921L52.9679 344.946ZM96.6757 71.2267C96.9138 69.7229 98.2744 68.5953 99.8954 68.5563L99.8474 66.5569C97.3616 66.6166 95.1047 68.3602 94.7003 70.9138L96.6757 71.2267Z" fill="#9DE5D8" mask="url(#path-1-outside-1_1508_1164)"/>
</g>
<mask id="mask0_1508_1164" style="mask-type:alpha" maskUnits="userSpaceOnUse" x="33" y="33" width="347" height="510">
<path fill-rule="evenodd" clip-rule="evenodd" d="M99.8714 67.5566C97.818 67.606 96.0093 69.0415 95.688 71.0702L57.3443 313.162C57.2889 313.513 57.536 313.838 57.8862 313.893C66.741 315.295 72.7833 323.605 71.382 332.453C69.9806 341.3 61.6663 347.336 52.8115 345.933C52.4613 345.878 52.1259 346.111 52.0704 346.461L33.8225 461.673C33.5012 463.702 34.7776 465.626 36.7152 466.308C54.1962 472.456 66.1444 488.886 66.5952 507.397C66.6452 509.45 68.0806 511.258 70.1091 511.579L267.357 542.82C269.385 543.142 271.309 541.866 271.991 539.928C278.14 522.463 294.581 510.529 313.106 510.084C315.159 510.034 316.968 508.599 317.289 506.57L335.537 391.358C335.592 391.007 335.345 390.682 334.995 390.627C326.14 389.224 320.097 380.915 321.499 372.067C322.9 363.219 331.214 357.184 340.069 358.586C340.42 358.642 340.755 358.409 340.811 358.058L379.155 115.967C379.476 113.938 378.199 112.014 376.262 111.333C358.405 105.053 346.322 88.0436 346.369 69.0478C346.374 66.9497 344.928 65.0733 342.855 64.7451L146.039 33.5725C143.967 33.2443 142.011 34.5818 141.368 36.5789C135.542 54.6594 118.794 67.102 99.8714 67.5566Z" fill="#FBF6ED"/>
</mask>
<g mask="url(#mask0_1508_1164)">
<g opacity="0.5">
<ellipse opacity="0.1" cx="228.635" cy="35.8423" rx="13.3824" ry="13.3715" transform="rotate(9 228.635 35.8423)" fill="white"/>
<g opacity="0.5">
<path d="M192.927 270.625L258.216 272.493L270.612 545.576L113.57 520.703L192.927 270.625Z" fill="url(#paint0_linear_1508_1164)"/>
<ellipse cx="184.016" cy="159.222" rx="7.94998" ry="7.94352" transform="rotate(9 184.016 159.222)" fill="white"/>
<ellipse cx="268.818" cy="172.654" rx="7.94998" ry="7.94352" transform="rotate(9 268.818 172.654)" fill="white"/>
<path fill-rule="evenodd" clip-rule="evenodd" d="M235.618 268.731L216.441 269.568L217.541 294.586L217.602 294.584L218.41 309.053L250.16 307.291L249.766 300.237C249.396 293.62 243.732 288.553 237.115 288.921L236.507 288.954L235.618 268.731Z" fill="white"/>
<rect width="19.1952" height="20.4221" transform="matrix(0.999049 -0.0436082 0.0439258 0.999035 216.443 269.569)" fill="#9DE5D8"/>
<path fill-rule="evenodd" clip-rule="evenodd" d="M187.432 261.086L205.412 267.808L196.635 291.262L196.577 291.241L191.338 304.752L161.686 293.265L164.241 286.678C166.637 280.499 173.589 277.431 179.769 279.825L180.337 280.045L187.432 261.086Z" fill="white"/>
<rect width="19.1952" height="20.1847" transform="matrix(-0.936676 -0.350197 -0.350495 0.936565 205.412 267.809)" fill="#9DE5D8"/>
<rect x="198.218" y="201.685" width="69.9598" height="66.7256" rx="6" transform="rotate(9 198.218 201.685)" fill="#9DE5D8"/>
<path fill-rule="evenodd" clip-rule="evenodd" d="M232.864 126.151C240.465 125.122 245.802 118.125 244.773 110.524C240.681 111.078 237.244 113.362 235.105 116.539C234.663 115.071 233.859 113.689 232.694 112.532C228.981 116.266 229.002 122.303 232.738 126.013C232.77 125.981 232.802 125.948 232.834 125.915C232.843 125.994 232.853 126.073 232.864 126.151Z" fill="#FEAA7B"/>
<path fill-rule="evenodd" clip-rule="evenodd" d="M220.701 202.028C239.782 205.051 257.698 192.045 260.718 172.979C263.737 153.914 250.717 136.008 231.636 132.986C212.555 129.964 194.639 142.97 191.619 162.035C188.599 181.101 201.62 199.006 220.701 202.028ZM219.209 211.443C243.494 215.29 266.297 198.737 270.14 174.472C273.983 150.206 257.412 127.418 233.127 123.571C208.842 119.725 186.04 136.278 182.196 160.543C178.353 184.808 194.925 207.597 219.209 211.443Z" fill="white"/>
<rect x="186.171" y="196.559" width="69.9598" height="73.0804" rx="6" transform="rotate(9 186.171 196.559)" fill="white"/>
<rect width="19.9869" height="29.9952" transform="matrix(0.577264 -0.816558 0.81693 0.576737 159.021 208.162)" fill="white"/>
<ellipse cx="159.9" cy="196.223" rx="12" ry="11.9902" transform="rotate(9 159.9 196.223)" fill="white"/>
<rect width="19.9869" height="29.9952" transform="matrix(-0.29668 -0.954977 -0.955168 0.296065 277.299 226.895)" fill="white"/>
<ellipse rx="12" ry="11.9902" transform="matrix(-0.987688 -0.156434 -0.156434 0.987688 280.153 215.269)" fill="white"/>
<rect x="194.054" y="217.11" width="48" height="19.9837" rx="2" transform="rotate(9 194.054 217.11)" fill="#9DE5D8"/>
<path fill-rule="evenodd" clip-rule="evenodd" d="M259.153 179.166C253.654 194.766 237.635 204.711 220.699 202.028C203.764 199.346 191.602 184.938 191.193 168.402L181.646 166.89C181.322 188.665 197.056 207.935 219.208 211.443C241.36 214.952 262.279 201.487 268.699 180.678L259.153 179.166Z" fill="#9DE5D8"/>
<ellipse cx="225.77" cy="167.061" rx="35.8012" ry="35.7721" transform="rotate(9 225.77 167.061)" fill="#1F1D2E"/>
<path opacity="0.2" d="M238.732 200.232C247.595 196.833 254.743 190.055 258.604 181.388C262.465 172.722 262.722 162.877 259.318 154.019C255.914 145.162 249.129 138.017 240.455 134.157C231.781 130.298 221.928 130.038 213.064 133.437L225.898 166.835L238.732 200.232Z" fill="white"/>
</g>
<ellipse rx="21.8272" ry="21.8272" transform="matrix(-0.809256 0.587456 -0.588114 -0.808778 127.75 69.1244)" fill="#9DE5D8"/>
<circle r="14.7915" transform="matrix(-0.809256 0.587456 -0.588114 -0.808778 197.578 79.2669)" fill="#DDB4FF"/>
<path fill-rule="evenodd" clip-rule="evenodd" d="M249.629 40.8991C254.868 40.3495 259.563 44.1481 260.114 49.3835C260.665 54.6189 256.865 59.3086 251.626 59.8582C246.386 60.4078 241.692 56.6092 241.141 51.3738C240.589 46.1384 244.39 41.4487 249.629 40.8991ZM248.744 32.4912C258.63 31.4542 267.488 38.6219 268.528 48.5009C269.569 58.3798 262.397 67.229 252.511 68.2661C242.625 69.3032 233.767 62.1354 232.727 52.2564C231.686 42.3775 238.857 33.5283 248.744 32.4912Z" fill="#C4FCA3"/>
</g>
<line x1="315.321" y1="371.971" x2="64.4483" y2="332.236" stroke="white" stroke-width="2" stroke-dasharray="10 10"/>
<path fill-rule="evenodd" clip-rule="evenodd" d="M251.841 529.848L256.53 500.242L253.567 499.773L248.878 529.379L251.841 529.848ZM244.927 528.753L249.616 499.147L246.653 498.677L241.964 528.284L244.927 528.753ZM242.703 498.052L238.013 527.658L235.05 527.189L239.74 497.582L242.703 498.052ZM231.1 526.563L235.789 496.957L232.826 496.487L228.137 526.094L231.1 526.563ZM228.875 495.862L224.186 525.468L221.223 524.999L225.912 495.392L228.875 495.862ZM217.272 524.373L221.961 494.767L218.998 494.297L214.309 523.904L217.272 524.373ZM215.048 493.672L210.358 523.278L207.395 522.809L212.084 493.202L215.048 493.672ZM203.444 522.183L208.134 492.577L205.171 492.107L200.481 521.714L203.444 522.183ZM201.22 491.482L196.531 521.088L193.568 520.619L198.257 491.012L201.22 491.482ZM189.617 519.993L194.306 490.386L191.343 489.917L186.654 519.524L189.617 519.993ZM187.392 489.291L182.703 518.898L179.74 518.429L184.429 488.822L187.392 489.291ZM175.789 517.803L180.479 488.196L177.515 487.727L172.826 517.334L175.789 517.803ZM173.565 487.101L168.876 516.708L165.912 516.239L170.602 486.632L173.565 487.101ZM161.962 515.613L166.651 486.006L163.688 485.537L158.999 515.144L161.962 515.613ZM159.737 484.911L155.048 514.518L152.085 514.049L156.774 484.442L159.737 484.911ZM148.134 513.423L152.823 483.816L149.86 483.347L145.171 512.954L148.134 513.423ZM145.91 482.721L141.22 512.328L138.257 511.858L142.947 482.252L145.91 482.721ZM134.307 511.233L138.996 481.626L136.033 481.157L131.343 510.763L134.307 511.233ZM132.082 480.531L127.393 510.138L124.43 509.668L129.119 480.062L132.082 480.531ZM120.479 509.043L125.168 479.436L122.205 478.967L117.516 508.573L120.479 509.043ZM118.254 478.341L113.565 507.948L110.602 507.478L115.291 477.872L118.254 478.341ZM106.65 506.852L111.34 477.246L108.377 476.777L103.687 506.383L106.65 506.852ZM104.426 476.151L99.7366 505.757L96.7735 505.288L101.463 475.682L104.426 476.151ZM92.8228 504.662L97.512 475.056L94.549 474.587L89.8598 504.193L92.8228 504.662Z" fill="white"/>
</g>
<path d="M115.58 445.359L118.663 435.106L119.01 435.161L118.774 445.865L125.181 446.88L130.18 422.171L124.676 421.299L122.237 441.31L121.698 441.224L121.864 427.593L118.305 427.03L114.233 440.042L113.695 439.957L117.558 420.172L112.054 419.3L109.173 444.344L115.58 445.359Z" fill="white"/>
<path d="M136.623 442.503C136.34 444.29 135.904 445.128 135.317 445.017C134.533 444.911 134.38 443.18 134.853 439.858L141.433 440.9L141.624 440.593C141.889 440.154 142.312 438.834 142.562 437.256C142.968 434.688 142.755 432.663 141.908 431.159C141.057 429.673 139.79 428.797 138.106 428.53C136.11 428.214 134.363 428.791 132.847 430.275C131.313 431.757 130.284 434.208 129.748 437.591C129.212 440.974 129.436 443.606 130.437 445.489C131.42 447.37 132.903 448.458 134.9 448.775C136.41 449.014 137.763 448.677 138.955 447.781C140.147 446.885 140.867 445.594 141.128 443.946C141.222 443.356 141.244 442.88 141.18 442.496L136.735 441.792L136.623 442.503ZM135.303 437.013C135.578 435.616 135.835 434.554 136.115 433.798C136.375 433.057 136.591 432.593 136.777 432.427C136.946 432.258 137.134 432.199 137.342 432.232C137.932 432.326 138.01 433.743 137.579 436.466L137.439 437.351L135.303 437.013Z" fill="white"/>
<path d="M148.921 446.656C148.815 446.426 148.787 445.817 148.819 444.826C148.851 443.836 149.016 442.457 149.299 440.67C149.58 438.901 149.849 437.538 150.124 436.586C150.399 435.634 150.614 435.063 150.789 434.86C151.115 434.485 151.619 434.565 151.813 435.022C151.899 435.267 151.945 435.879 151.912 436.869C151.88 437.86 151.715 439.239 151.435 441.008C151.152 442.795 150.883 444.157 150.607 445.11C150.332 446.062 150.1 446.63 149.945 446.819C149.616 447.211 149.112 447.131 148.921 446.656ZM146.152 450.201L147.349 446.016L147.714 446.074L147.845 447.268C147.912 448.079 148.208 448.909 148.695 449.768C149.179 450.645 149.865 451.145 150.716 451.28C151.879 451.464 153.032 450.811 154.193 449.323C155.354 447.835 156.21 445.357 156.762 441.87C157.314 438.383 157.267 435.761 156.625 433.97C155.98 432.197 155.085 431.219 153.922 431.035C152.88 430.87 151.75 431.491 151.134 432.229C150.811 432.587 150.511 433.02 150.217 433.525C149.616 434.514 149.546 434.841 149.458 435.058L148.92 434.973L150.901 430.556L151.69 425.578L146.707 424.788L142.767 449.665L146.152 450.201Z" fill="white"/>
<path d="M158.591 443.351C158.449 443.684 158.15 444.562 157.999 445.516C157.667 447.615 157.976 449.371 158.921 450.819C159.867 452.267 161.206 453.137 162.942 453.412C164.887 453.72 166.582 453.241 168.048 451.962C169.494 450.697 170.426 448.746 170.846 446.092C171.245 443.577 170.93 441.518 169.92 439.917C168.893 438.314 167.371 437.362 165.357 437.043L165.414 436.678L168.52 436.619L172.361 433.048L173.009 428.954L161.273 427.095L160.539 431.727L166.407 432.657L161.916 436.853L161.213 441.294L161.925 441.407L162.12 441.296C162.446 441.152 163.069 441.037 163.607 441.122C164.388 441.246 164.937 441.6 165.234 442.198C165.514 442.794 165.551 443.795 165.325 445.218C165.133 446.432 164.933 447.361 164.744 447.989C164.553 448.634 164.366 449.031 164.219 449.168C164.056 449.302 163.868 449.362 163.66 449.329C163.018 449.227 162.856 448.223 163.156 446.332L163.549 443.852L158.739 443.09L158.591 443.351Z" fill="white"/>
<path d="M179.507 447.251C179.305 447.628 179.009 448.594 178.858 449.548C178.561 451.422 178.895 453.022 179.845 454.328C180.792 455.652 182.212 456.464 184.087 456.761C185.893 457.047 187.485 456.659 188.863 455.597C190.222 454.549 191.07 453.012 191.389 451C191.787 448.484 191.036 446.036 189.897 444.237C188.229 441.626 185.948 439.059 186.381 436.549C186.551 435.474 186.931 434.983 187.522 435.076C188.231 435.206 188.436 436.27 188.117 438.283L187.865 439.879L192.656 440.637L192.767 440.388C192.981 440.049 193.252 439.238 193.386 438.388C193.694 436.445 193.354 434.773 192.386 433.357C191.397 431.956 190.001 431.112 188.212 430.829C186.407 430.543 184.815 430.931 183.451 432.013C182.07 433.092 181.213 434.682 180.883 436.763C180.694 437.96 180.755 439.144 181.071 440.296C181.384 441.466 181.829 442.479 182.417 443.372C184.071 445.964 186.355 448.513 185.919 451.04C185.734 452.096 185.353 452.587 184.763 452.493C184.051 452.38 183.863 451.319 184.182 449.307L184.435 447.711L179.626 446.949L179.507 447.251Z" fill="white"/>
<path d="M198.677 454.537C198.571 454.307 198.543 453.698 198.575 452.707C198.607 451.716 198.772 450.337 199.055 448.551C199.335 446.781 199.605 445.419 199.88 444.467C200.155 443.515 200.37 442.944 200.545 442.74C200.871 442.365 201.375 442.445 201.569 442.903C201.655 443.147 201.701 443.759 201.668 444.75C201.636 445.741 201.471 447.119 201.191 448.889C200.908 450.676 200.638 452.038 200.363 452.99C200.088 453.942 199.855 454.51 199.701 454.699C199.372 455.092 198.868 455.012 198.677 454.537ZM196.492 464.736L197.451 458.682L196.931 453.869L197.47 453.954L197.601 455.149C197.668 455.96 197.964 456.789 198.451 457.649C198.935 458.525 199.621 459.025 200.471 459.16C201.635 459.344 202.788 458.691 203.949 457.204C205.11 455.716 205.966 453.237 206.518 449.75C207.07 446.264 207.023 443.642 206.381 441.851C205.736 440.077 204.841 439.1 203.678 438.915C202.636 438.75 201.506 439.372 200.89 440.11C200.567 440.468 200.267 440.9 199.973 441.405C199.372 442.395 199.302 442.721 199.214 442.939L198.676 442.853L200.544 439.148L200.599 438.801L195.616 438.012L191.509 463.947L196.492 464.736Z" fill="white"/>
<path d="M212.407 455.04C212.629 453.635 213.037 452.97 213.645 453.066C214.235 453.16 214.418 453.918 214.195 455.323C213.97 456.746 213.562 457.41 212.972 457.317C212.364 457.22 212.182 456.462 212.407 455.04ZM219.537 461.824L219.592 461.477L219.362 461.352C219.076 461.253 218.824 460.591 218.989 459.55L220.676 448.899C221.426 444.163 219.841 441.475 215.935 440.857C214.372 440.609 212.993 440.889 211.777 441.71C210.562 442.531 209.839 443.608 209.625 444.961C209.491 445.918 209.5 446.648 209.652 447.153L214.096 447.857L214.294 446.607C214.519 445.185 214.892 444.515 215.413 444.597C215.952 444.683 216.117 445.438 215.891 446.86L215.468 449.532L215.987 454.344L215.449 454.259L215.353 453.07C215.303 452.262 215.024 451.436 214.54 450.559C214.054 449.699 213.35 449.197 212.447 449.054C211.319 448.875 210.264 449.241 209.303 450.138C208.343 451.035 207.715 452.412 207.424 454.251C207.13 456.107 207.301 457.61 207.938 458.76C208.574 459.91 209.464 460.584 210.593 460.763C211.721 460.942 212.837 460.301 213.467 459.582C213.773 459.222 214.073 458.789 214.349 458.282C214.902 457.267 214.969 456.957 215.056 456.74L215.595 456.825L213.669 460.895L219.537 461.824Z" fill="white"/>
<path d="M229.321 456.456C228.963 458.711 228.49 459.792 227.902 459.681C227.069 459.549 226.99 457.35 227.666 453.082C228.339 448.832 229.094 446.764 229.927 446.896C230.517 446.99 230.634 448.164 230.277 450.419L230.082 451.651L234.526 452.355L234.634 452.123C234.817 451.867 235.088 451.057 235.239 450.103C235.53 448.264 235.26 446.71 234.409 445.454C233.558 444.199 232.323 443.452 230.691 443.194C228.695 442.878 226.948 443.455 225.432 444.939C223.898 446.421 222.869 448.873 222.333 452.255C221.797 455.638 222.021 458.27 223.022 460.153C224.006 462.034 225.488 463.122 227.485 463.439C229.117 463.697 230.522 463.368 231.719 462.438C232.916 461.507 233.651 460.13 233.945 458.273C234.112 457.215 234.114 456.415 233.963 455.911L229.518 455.207L229.321 456.456Z" fill="white"/>
<path d="M243.253 459.392C242.97 461.179 242.535 462.017 241.947 461.906C241.163 461.8 241.01 460.068 241.483 456.746L248.063 457.789L248.254 457.481C248.519 457.043 248.942 455.723 249.192 454.144C249.598 451.577 249.385 449.551 248.538 448.048C247.688 446.562 246.42 445.685 244.736 445.418C242.74 445.102 240.993 445.679 239.477 447.164C237.943 448.646 236.914 451.097 236.378 454.48C235.842 457.863 236.066 460.494 237.067 462.378C238.051 464.258 239.533 465.347 241.53 465.663C243.04 465.902 244.393 465.565 245.585 464.669C246.777 463.773 247.497 462.483 247.758 460.835C247.852 460.245 247.874 459.768 247.81 459.385L243.365 458.681L243.253 459.392ZM241.933 453.901C242.208 452.505 242.465 451.443 242.745 450.687C243.005 449.946 243.221 449.482 243.407 449.316C243.576 449.147 243.764 449.088 243.972 449.121C244.562 449.214 244.64 450.631 244.209 453.355L244.069 454.24L241.933 453.901Z" fill="white"/>
<path d="M250.301 460.17C250.168 460.452 249.901 461.121 249.781 461.884C249.547 463.359 249.898 464.623 250.812 465.711C251.725 466.798 253.144 467.503 255.037 467.802C256.894 468.097 258.435 467.807 259.694 466.94C260.952 466.072 261.708 464.787 261.977 463.087C262.169 461.872 261.98 460.704 261.396 459.563C260.812 458.421 260.122 457.494 259.33 456.764C258.538 456.033 257.844 455.248 257.21 454.418C256.576 453.589 256.301 452.852 256.406 452.193C256.518 451.481 257.01 451.186 257.548 451.271C258.208 451.375 258.433 452.087 258.227 453.388L258.06 454.446L262.504 455.15L262.641 454.958C262.772 454.695 263.05 454.063 263.149 453.438C263.383 451.964 263.051 450.684 262.155 449.6C261.259 448.516 259.892 447.819 258.069 447.53C256.316 447.253 254.813 447.53 253.577 448.366C252.341 449.201 251.602 450.383 251.358 451.927C251.212 452.846 251.248 453.741 251.472 454.576C251.896 456.28 252.804 457.402 253.857 458.618C254.385 459.217 254.869 459.756 255.315 460.2C256.219 461.125 256.831 462.201 256.68 463.155C256.568 463.866 256.096 464.147 255.558 464.062C254.742 463.932 254.457 463.372 254.712 461.758L254.883 460.683L250.438 459.979L250.301 460.17Z" fill="white"/>
<g clip-path="url(#clip0_1508_1164)">
<path d="M229.619 232.273L234.393 233.029C235.026 233.129 235.593 233.477 235.97 233.996C236.347 234.514 236.502 235.161 236.402 235.794L231.865 264.437C231.765 265.07 231.417 265.637 230.899 266.014C230.38 266.391 229.733 266.546 229.1 266.446L190.91 260.397C190.277 260.297 189.709 259.949 189.333 259.431C188.956 258.912 188.801 258.265 188.901 257.632L193.438 228.989C193.538 228.356 193.885 227.789 194.404 227.412C194.922 227.035 195.569 226.88 196.202 226.98L200.976 227.736L201.354 225.35C201.956 221.551 204.042 218.148 207.153 215.887C210.264 213.627 214.146 212.695 217.944 213.296C221.742 213.898 225.146 215.984 227.407 219.095C229.667 222.206 230.599 226.088 229.997 229.886L229.619 232.273ZM209.988 248.082L209.13 253.496L213.904 254.252L214.762 248.838C215.755 248.457 216.595 247.759 217.151 246.852C217.707 245.944 217.948 244.879 217.836 243.821C217.725 242.763 217.268 241.771 216.535 240.999C215.803 240.227 214.836 239.719 213.786 239.552C212.735 239.386 211.658 239.571 210.723 240.079C209.788 240.586 209.047 241.388 208.614 242.36C208.181 243.332 208.081 244.42 208.33 245.454C208.578 246.489 209.161 247.413 209.988 248.082ZM224.845 231.517L225.223 229.13C225.625 226.598 225.003 224.01 223.496 221.936C221.989 219.862 219.72 218.471 217.188 218.07C214.656 217.669 212.068 218.29 209.994 219.797C207.92 221.304 206.529 223.573 206.128 226.106L205.75 228.493L224.845 231.517Z" fill="white"/>
</g>
<defs>
<filter id="filter0_d_1508_1164" x="0.772461" y="0.5224" width="411.432" height="575.348" filterUnits="userSpaceOnUse" color-interpolation-filters="sRGB">
<feFlood flood-opacity="0" result="BackgroundImageFix"/>
<feColorMatrix in="SourceAlpha" type="matrix" values="0 0 0 0 0 0 0 0 0 0 0 0 0 0 0 0 0 0 127 0" result="hardAlpha"/>
<feOffset/>
<feGaussianBlur stdDeviation="16"/>
<feComposite in2="hardAlpha" operator="out"/>
<feColorMatrix type="matrix" values="0 0 0 0 0.576471 0 0 0 0 0.886275 0 0 0 0 0.831373 0 0 0 1 0"/>
<feBlend mode="normal" in2="BackgroundImageFix" result="effect1_dropShadow_1508_1164"/>
<feBlend mode="normal" in="SourceGraphic" in2="effect1_dropShadow_1508_1164" result="shape"/>
</filter>
<linearGradient id="paint0_linear_1508_1164" x1="233.981" y1="268.655" x2="192.091" y2="533.14" gradientUnits="userSpaceOnUse">
<stop stop-color="#FEAA7B"/>
<stop offset="1" stop-color="#FEAA7B" stop-opacity="0"/>
</linearGradient>
<clipPath id="clip0_1508_1164">
<rect width="62.1911" height="62.1405" fill="white" transform="translate(187.704 206.06) rotate(9)"/>
</clipPath>
</defs>
</svg>
