<svg width="353" height="550" viewBox="0 0 353 550" fill="none" xmlns="http://www.w3.org/2000/svg">
<g filter="url(#filter0_d_1560_1657)">
<mask id="path-1-outside-1_1560_1657" maskUnits="userSpaceOnUse" x="32" y="32" width="289" height="486" fill="black">
<rect fill="white" x="32" y="32" width="289" height="486"/>
<path fill-rule="evenodd" clip-rule="evenodd" d="M36.5823 73.788C34.5619 74.158 33 75.8588 33 77.9128L33 323.023C33 323.377 33.2948 323.66 33.6493 323.66C42.6146 323.66 49.8824 330.921 49.8824 339.879C49.8824 348.837 42.6146 356.099 33.6493 356.099C33.2948 356.099 33 356.381 33 356.736V473.385C33 475.439 34.5617 477.14 36.5821 477.509C54.8097 480.847 69.1812 495.206 72.5222 513.419C72.8928 515.439 74.5934 517 76.6472 517H276.353C278.407 517 280.107 515.439 280.478 513.419C283.819 495.206 298.19 480.847 316.418 477.509C318.438 477.14 320 475.439 320 473.385V356.736C320 356.381 319.705 356.099 319.351 356.099C310.385 356.099 303.118 348.837 303.118 339.879C303.118 330.921 310.385 323.66 319.351 323.66C319.705 323.66 320 323.377 320 323.023V77.9128C320 75.8588 318.438 74.158 316.418 73.7881C297.799 70.379 283.203 55.4695 280.278 36.7001C279.954 34.627 278.232 33 276.134 33L76.8657 33C74.7675 33 73.0453 34.627 72.7221 36.7001C69.7968 55.4694 55.2013 70.3789 36.5823 73.788Z"/>
</mask>
<path fill-rule="evenodd" clip-rule="evenodd" d="M36.5823 73.788C34.5619 74.158 33 75.8588 33 77.9128L33 323.023C33 323.377 33.2948 323.66 33.6493 323.66C42.6146 323.66 49.8824 330.921 49.8824 339.879C49.8824 348.837 42.6146 356.099 33.6493 356.099C33.2948 356.099 33 356.381 33 356.736V473.385C33 475.439 34.5617 477.14 36.5821 477.509C54.8097 480.847 69.1812 495.206 72.5222 513.419C72.8928 515.439 74.5934 517 76.6472 517H276.353C278.407 517 280.107 515.439 280.478 513.419C283.819 495.206 298.19 480.847 316.418 477.509C318.438 477.14 320 475.439 320 473.385V356.736C320 356.381 319.705 356.099 319.351 356.099C310.385 356.099 303.118 348.837 303.118 339.879C303.118 330.921 310.385 323.66 319.351 323.66C319.705 323.66 320 323.377 320 323.023V77.9128C320 75.8588 318.438 74.158 316.418 73.7881C297.799 70.379 283.203 55.4695 280.278 36.7001C279.954 34.627 278.232 33 276.134 33L76.8657 33C74.7675 33 73.0453 34.627 72.7221 36.7001C69.7968 55.4694 55.2013 70.3789 36.5823 73.788Z" fill="url(#paint0_linear_1560_1657)"/>
<path d="M72.7221 36.7001L71.7341 36.5461L72.7221 36.7001ZM320 356.736H321H320ZM316.418 477.509L316.598 478.493L316.418 477.509ZM320 473.385H321H320ZM280.478 513.419L279.494 513.238L280.478 513.419ZM36.5821 477.509L36.402 478.493L36.5821 477.509ZM280.278 36.7001L281.266 36.5461L280.278 36.7001ZM36.5823 73.788L36.7624 74.7717L36.5823 73.788ZM32 77.9128V323.023H34V77.9128H32ZM33.6493 324.66C42.0631 324.66 48.8824 331.474 48.8824 339.879H50.8824C50.8824 330.368 43.1661 322.66 33.6493 322.66V324.66ZM48.8824 339.879C48.8824 348.284 42.0631 355.099 33.6493 355.099V357.099C43.1661 357.099 50.8824 349.39 50.8824 339.879H48.8824ZM32 356.736V473.385H34V356.736H32ZM36.402 478.493C54.2213 481.756 68.2727 495.796 71.5386 513.599L73.5058 513.238C70.0897 494.617 55.3981 479.938 36.7622 476.526L36.402 478.493ZM76.6472 518H276.353V516H76.6472V518ZM281.461 513.599C284.727 495.796 298.779 481.756 316.598 478.493L316.238 476.526C297.602 479.938 282.91 494.617 279.494 513.238L281.461 513.599ZM321 473.385V356.736H319V473.385H321ZM319.351 355.099C310.937 355.099 304.118 348.284 304.118 339.879H302.118C302.118 349.39 309.834 357.099 319.351 357.099V355.099ZM304.118 339.879C304.118 331.474 310.937 324.66 319.351 324.66V322.66C309.834 322.66 302.118 330.368 302.118 339.879H304.118ZM321 323.023V77.9128H319V323.023H321ZM316.598 72.8044C298.395 69.4716 284.125 54.8937 281.266 36.5461L279.29 36.8541C282.281 56.0453 297.202 71.2863 316.238 74.7717L316.598 72.8044ZM276.134 32H76.8657V34H276.134V32ZM71.7341 36.5461C68.8745 54.8937 54.6044 69.4715 36.4022 72.8044L36.7624 74.7717C55.7982 71.2862 70.7191 56.0452 73.7102 36.8541L71.7341 36.5461ZM76.8657 32C74.2243 32 72.1251 34.0375 71.7341 36.5461L73.7102 36.8541C73.9655 35.2164 75.3107 34 76.8657 34V32ZM321 77.9128C321 75.3274 319.044 73.2522 316.598 72.8044L316.238 74.7717C317.833 75.0638 319 76.3903 319 77.9128H321ZM319.351 324.66C320.232 324.66 321 323.955 321 323.023H319C319 322.8 319.178 322.66 319.351 322.66V324.66ZM321 356.736C321 355.804 320.232 355.099 319.351 355.099V357.099C319.178 357.099 319 356.959 319 356.736H321ZM316.598 478.493C319.044 478.045 321 475.97 321 473.385H319C319 474.907 317.833 476.234 316.238 476.526L316.598 478.493ZM276.353 518C278.938 518 281.013 516.044 281.461 513.599L279.494 513.238C279.202 514.833 277.875 516 276.353 516V518ZM71.5386 513.599C71.9872 516.044 74.0621 518 76.6472 518V516C75.1248 516 73.7983 514.833 73.5058 513.238L71.5386 513.599ZM32 473.385C32 475.97 33.9561 478.045 36.402 478.493L36.7622 476.526C35.1673 476.234 34 474.907 34 473.385H32ZM32 323.023C32 323.955 32.7681 324.66 33.6493 324.66V322.66C33.8215 322.66 34 322.8 34 323.023H32ZM281.266 36.5461C280.875 34.0375 278.775 32 276.134 32V34C277.689 34 279.034 35.2164 279.29 36.8541L281.266 36.5461ZM33.6493 355.099C32.7681 355.099 32 355.804 32 356.736H34C34 356.959 33.8215 357.099 33.6493 357.099V355.099ZM34 77.9128C34 76.3903 35.1674 75.0637 36.7624 74.7717L36.4022 72.8044C33.9564 73.2522 32 75.3274 32 77.9128H34Z" fill="url(#paint1_linear_1560_1657)" mask="url(#path-1-outside-1_1560_1657)"/>
</g>
<mask id="mask0_1560_1657" style="mask-type:alpha" maskUnits="userSpaceOnUse" x="33" y="33" width="287" height="484">
<path fill-rule="evenodd" clip-rule="evenodd" d="M36.5827 73.7548C34.5621 74.1245 33 75.8254 33 77.8796L33 322.787C33 323.141 33.2948 323.423 33.6493 323.423C42.6145 323.423 49.8823 330.679 49.8823 339.63C49.8823 348.581 42.6145 355.837 33.6493 355.837C33.2948 355.837 33 356.119 33 356.473L33 473.024C33 475.078 34.5619 476.779 36.5824 477.148C54.809 480.483 69.1799 494.829 72.5218 513.026C72.8927 515.045 74.5933 516.607 76.6469 516.607H276.353C278.407 516.607 280.107 515.045 280.478 513.026C283.82 494.829 298.191 480.483 316.418 477.148C318.438 476.779 320 475.078 320 473.024V356.473C320 356.119 319.705 355.837 319.351 355.837C310.385 355.837 303.118 348.581 303.118 339.63C303.118 330.679 310.385 323.423 319.351 323.423C319.705 323.423 320 323.141 320 322.787V77.8796C320 75.8255 318.438 74.1245 316.417 73.7549C297.799 70.3485 283.204 55.4525 280.278 36.6998C279.955 34.6268 278.232 33 276.134 33L76.8655 33C74.7674 33 73.0452 34.6268 72.7217 36.6998C69.7954 55.4525 55.2006 70.3485 36.5827 73.7548Z" fill="#FBF6ED"/>
</mask>
<g mask="url(#mask0_1560_1657)">
<ellipse opacity="0.1" cx="158.799" cy="22.3297" rx="13.3824" ry="13.3606" fill="white"/>
<path d="M160.259 257.058L225.037 248.696L280 516.261H121L160.259 257.058Z" fill="url(#paint2_linear_1560_1657)"/>
<ellipse cx="134.03" cy="148.509" rx="7.94998" ry="7.93706" fill="white"/>
<ellipse cx="219.889" cy="148.509" rx="7.94998" ry="7.93706" fill="white"/>
<path fill-rule="evenodd" clip-rule="evenodd" d="M202.13 248.516L183.32 252.34L188.32 276.858L188.379 276.846L191.441 290.999L222.524 284.297L221.034 277.406C219.633 270.929 213.245 266.81 206.766 268.207L206.171 268.335L202.13 248.516Z" fill="white"/>
<rect width="19.1946" height="20.4062" transform="matrix(0.979958 -0.199201 0.199824 0.979832 183.319 252.34)" fill="url(#paint3_linear_1560_1657)"/>
<path fill-rule="evenodd" clip-rule="evenodd" d="M153.339 248.503L172.149 252.327L167.149 276.845L167.089 276.833L164.028 290.986L132.944 284.284L134.435 277.393C135.836 270.916 142.224 266.797 148.702 268.194L149.297 268.322L153.339 248.503Z" fill="white"/>
<rect width="19.1946" height="20.1689" transform="matrix(-0.979958 -0.199201 -0.199824 0.979832 172.149 252.327)" fill="url(#paint4_linear_1560_1657)"/>
<rect x="154.699" y="188.195" width="69.9598" height="66.6713" rx="6" fill="url(#paint5_linear_1560_1657)"/>
<path fill-rule="evenodd" clip-rule="evenodd" d="M177.102 108.24C184.443 106.037 188.626 98.2938 186.422 90.9529C182.469 92.1396 179.432 94.9327 177.815 98.4042C177.148 97.0228 176.138 95.7827 174.806 94.8227C171.722 99.088 172.688 105.043 176.958 108.12C176.984 108.084 177.01 108.047 177.036 108.011C177.057 108.087 177.079 108.164 177.102 108.24Z" fill="#FEAA7B"/>
<path fill-rule="evenodd" clip-rule="evenodd" d="M176.96 185.02C196.279 185.02 211.94 169.384 211.94 150.097C211.94 130.809 196.279 115.174 176.96 115.174C157.641 115.174 141.98 130.809 141.98 150.097C141.98 169.384 157.641 185.02 176.96 185.02ZM176.96 194.544C201.548 194.544 221.48 174.644 221.48 150.097C221.48 125.549 201.548 105.649 176.96 105.649C152.373 105.649 132.44 125.549 132.44 150.097C132.44 174.644 152.373 194.544 176.96 194.544Z" fill="white"/>
<rect x="142" y="185.02" width="69.9598" height="73.021" rx="6" fill="white"/>
<rect width="19.9739" height="29.9905" transform="matrix(0.442708 -0.896665 0.897236 0.441552 117 200.713)" fill="white"/>
<ellipse cx="116" cy="188.794" rx="12" ry="11.9805" fill="white"/>
<rect width="19.9739" height="29.9905" transform="matrix(-0.442708 -0.896665 -0.897236 0.441552 236.751 200.713)" fill="white"/>
<ellipse rx="12" ry="11.9805" transform="matrix(-1 0 0 1 237.751 188.794)" fill="white"/>
<rect x="153" y="204.069" width="48" height="19.9675" rx="2" fill="url(#paint6_linear_1560_1657)"/>
<path fill-rule="evenodd" clip-rule="evenodd" d="M211.363 156.446C208.372 172.702 194.107 185.02 176.96 185.02C159.813 185.02 145.547 172.702 142.557 156.446H132.891C135.977 177.986 154.531 194.544 176.96 194.544C199.388 194.544 217.943 177.986 221.029 156.446L211.363 156.446Z" fill="url(#paint7_linear_1560_1657)"/>
<ellipse cx="176.497" cy="149.718" rx="35.8012" ry="35.7431" fill="#1F1D2E"/>
<path opacity="0.2" d="M194.488 180.428C202.71 175.689 208.71 167.882 211.168 158.726C213.625 149.569 212.339 139.813 207.591 131.604C202.844 123.395 195.025 117.405 185.853 114.951C176.682 112.498 166.91 113.782 158.688 118.522L176.588 149.475L194.488 180.428Z" fill="white"/>
<circle r="21.8184" transform="matrix(-0.707681 0.706532 -0.707681 -0.706532 64.3632 70.9445)" fill="white"/>
<circle r="14.7855" transform="matrix(-0.707681 0.706532 -0.707681 -0.706532 134.918 70.0393)" fill="white"/>
<path fill-rule="evenodd" clip-rule="evenodd" d="M180.326 24.0387C185.415 22.6774 190.646 25.6924 192.009 30.7729C193.373 35.8535 190.353 41.0757 185.264 42.437C180.175 43.7983 174.945 40.7833 173.581 35.7028C172.218 30.6222 175.238 25.4 180.326 24.0387ZM178.137 15.8794C187.739 13.3107 197.609 18.9999 200.182 28.5867C202.755 38.1735 197.056 48.0275 187.454 50.5963C177.852 53.165 167.982 47.4758 165.409 37.889C162.836 28.3022 168.534 18.4482 178.137 15.8794Z" fill="white"/>
<line x1="297" y1="340.501" x2="43" y2="340.501" stroke="url(#paint8_linear_1560_1657)" stroke-width="2" stroke-dasharray="10 10"/>
<path fill-rule="evenodd" clip-rule="evenodd" d="M259 506.23L259 476.279L256 476.279L256 506.23L259 506.23ZM252 506.23L252 476.279L249 476.279L249 506.23L252 506.23ZM245 476.279L245 506.23L242 506.23L242 476.279L245 476.279ZM238 506.23L238 476.279L235 476.279L235 506.23L238 506.23ZM231 476.279L231 506.23L228 506.23L228 476.279L231 476.279ZM224 506.23L224 476.279L221 476.279L221 506.23L224 506.23ZM217 476.279L217 506.23L214 506.23L214 476.279L217 476.279ZM210 506.23L210 476.279L207 476.279L207 506.23L210 506.23ZM203 476.279L203 506.23L200 506.23L200 476.279L203 476.279ZM196 506.23L196 476.279L193 476.279L193 506.23L196 506.23ZM189 476.279L189 506.23L186 506.23L186 476.279L189 476.279ZM182 506.23L182 476.279L179 476.279L179 506.23L182 506.23ZM175 476.279L175 506.23L172 506.23L172 476.279L175 476.279ZM168 506.23L168 476.279L165 476.279L165 506.23L168 506.23ZM161 476.279L161 506.23L158 506.23L158 476.279L161 476.279ZM154 506.23L154 476.279L151 476.279L151 506.23L154 506.23ZM147 476.279L147 506.23L144 506.23L144 476.279L147 476.279ZM140 506.23L140 476.279L137 476.279L137 506.23L140 506.23ZM133 476.279L133 506.23L130 506.23L130 476.279L133 476.279ZM126 506.23L126 476.279L123 476.279L123 506.23L126 506.23ZM119 476.279L119 506.23L116 506.23L116 476.279L119 476.279ZM112 506.23L112 476.279L109 476.279L109 506.23L112 506.23ZM105 476.279L105 506.23L102 506.23L102 476.279L105 476.279ZM98 506.23L98 476.279L95 476.279L95 506.23L98 506.23Z" fill="white"/>
</g>
<path d="M111.198 444.482L112.64 433.873H112.991L114.433 444.482H120.919L121.991 419.295H116.419L117.14 439.441H116.595L114.626 425.952H111.022L109.036 439.441H108.491L109.212 419.295H103.64L104.712 444.482H111.198Z" fill="white"/>
<path d="M131.535 438.369C131.535 440.178 131.237 441.074 130.639 441.057C129.848 441.074 129.426 439.388 129.373 436.033H136.035L136.176 435.7C136.369 435.225 136.58 433.855 136.58 432.257C136.58 429.658 136.053 427.69 134.981 426.338C133.908 425.003 132.52 424.336 130.815 424.336C128.793 424.336 127.158 425.179 125.893 426.883C124.61 428.586 123.977 431.168 123.977 434.593C123.977 438.018 124.61 440.582 125.893 442.286C127.158 443.99 128.793 444.833 130.815 444.833C132.344 444.833 133.627 444.288 134.664 443.217C135.701 442.146 136.211 440.758 136.211 439.089C136.211 438.492 136.158 438.018 136.035 437.649H131.535V438.369ZM129.373 433.153C129.426 431.73 129.514 430.641 129.672 429.851C129.813 429.078 129.953 428.586 130.112 428.393C130.252 428.2 130.428 428.112 130.639 428.112C131.237 428.112 131.535 429.5 131.535 432.257V433.153H129.373Z" fill="white"/>
<path d="M144.332 440.547C144.191 440.336 144.068 439.739 143.945 438.756C143.822 437.772 143.769 436.385 143.769 434.576C143.769 432.784 143.822 431.396 143.945 430.413C144.068 429.429 144.191 428.832 144.332 428.604C144.595 428.182 145.105 428.182 145.369 428.604C145.492 428.832 145.632 429.429 145.755 430.413C145.878 431.396 145.931 432.784 145.931 434.576C145.931 436.385 145.878 437.772 145.755 438.756C145.632 439.739 145.492 440.336 145.369 440.547C145.105 440.986 144.595 440.986 144.332 440.547ZM142.152 444.482L142.679 440.161H143.048L143.365 441.32C143.558 442.11 143.98 442.883 144.595 443.656C145.211 444.446 145.966 444.833 146.828 444.833C148.005 444.833 149.043 444.007 149.957 442.356C150.871 440.705 151.328 438.123 151.328 434.593C151.328 431.063 150.871 428.481 149.957 426.812C149.043 425.161 148.005 424.336 146.828 424.336C145.773 424.336 144.753 425.126 144.261 425.952C143.998 426.356 143.769 426.83 143.558 427.374C143.119 428.446 143.101 428.779 143.048 429.008H142.503L143.769 424.336V419.295H138.724V444.482H142.152Z" fill="white"/>
<path d="M153.366 435.77C153.278 436.121 153.12 437.034 153.12 438C153.12 440.126 153.7 441.812 154.86 443.094C156.02 444.376 157.479 445.026 159.237 445.026C161.206 445.026 162.806 444.288 164.054 442.795C165.284 441.32 165.899 439.248 165.899 436.56C165.899 434.013 165.266 432.029 164.018 430.606C162.753 429.183 161.1 428.481 159.061 428.481V428.112L162.12 427.568L165.354 423.44V419.295H153.472V423.985H159.413L155.634 428.832V433.328H156.354L156.53 433.188C156.829 432.995 157.427 432.784 157.972 432.784C158.763 432.784 159.36 433.047 159.747 433.592C160.116 434.136 160.309 435.12 160.309 436.56C160.309 437.79 160.257 438.738 160.169 439.388C160.081 440.055 159.958 440.477 159.835 440.635C159.694 440.793 159.518 440.881 159.307 440.881C158.657 440.881 158.341 439.915 158.341 438V435.489H153.472L153.366 435.77Z" fill="white"/>
<path d="M174.634 436.349C174.494 436.753 174.353 437.755 174.353 438.721C174.353 440.617 174.933 442.146 176.076 443.287C177.218 444.446 178.747 445.026 180.646 445.026C182.474 445.026 183.986 444.394 185.181 443.129C186.359 441.882 186.956 440.231 186.956 438.194C186.956 435.647 185.831 433.346 184.425 431.748C182.369 429.429 179.714 427.251 179.749 424.705C179.749 423.616 180.048 423.071 180.646 423.071C181.367 423.089 181.736 424.107 181.736 426.145V427.761H186.587L186.658 427.497C186.816 427.128 186.956 426.285 186.956 425.425C186.956 423.458 186.359 421.859 185.181 420.612C183.986 419.383 182.474 418.768 180.663 418.768C178.835 418.768 177.324 419.4 176.146 420.683C174.951 421.965 174.353 423.668 174.353 425.776C174.353 426.988 174.599 428.147 175.091 429.236C175.583 430.343 176.181 431.274 176.902 432.064C178.941 434.365 181.595 436.525 181.56 439.089C181.542 440.161 181.244 440.705 180.646 440.705C179.925 440.705 179.574 439.687 179.574 437.649V436.033H174.704L174.634 436.349Z" fill="white"/>
<path d="M194.708 440.547C194.567 440.336 194.444 439.739 194.321 438.756C194.198 437.772 194.145 436.385 194.145 434.576C194.145 432.784 194.198 431.396 194.321 430.413C194.444 429.429 194.567 428.832 194.708 428.604C194.971 428.182 195.481 428.182 195.745 428.604C195.868 428.832 196.008 429.429 196.132 430.413C196.255 431.396 196.307 432.784 196.307 434.576C196.307 436.385 196.255 437.772 196.132 438.756C196.008 439.739 195.868 440.336 195.745 440.547C195.481 440.986 194.971 440.986 194.708 440.547ZM194.145 450.963V444.833L192.88 440.161H193.424L193.741 441.32C193.934 442.11 194.356 442.883 194.971 443.656C195.587 444.446 196.342 444.833 197.204 444.833C198.382 444.833 199.419 444.007 200.333 442.356C201.247 440.705 201.704 438.123 201.704 434.593C201.704 431.063 201.247 428.481 200.333 426.812C199.419 425.161 198.382 424.336 197.204 424.336C196.149 424.336 195.13 425.126 194.637 425.952C194.374 426.356 194.145 426.83 193.934 427.374C193.495 428.446 193.477 428.779 193.424 429.008H192.88L194.145 425.056V424.705H189.1V450.963H194.145Z" fill="white"/>
<path d="M208.348 438.896C208.348 437.474 208.646 436.753 209.262 436.753C209.859 436.753 210.158 437.474 210.158 438.896C210.158 440.336 209.859 441.057 209.262 441.057C208.646 441.057 208.348 440.336 208.348 438.896ZM216.451 444.482V444.13L216.205 444.042C215.906 443.99 215.555 443.375 215.555 442.321V431.537C215.555 426.742 213.568 424.336 209.613 424.336C208.031 424.336 206.713 424.828 205.641 425.829C204.568 426.83 204.023 428.007 204.023 429.377C204.041 430.343 204.164 431.063 204.393 431.537H208.893V430.272C208.893 428.832 209.156 428.112 209.684 428.112C210.228 428.112 210.51 428.832 210.51 430.272V432.977L211.775 437.649H211.23L210.949 436.49C210.773 435.7 210.369 434.927 209.754 434.136C209.139 433.364 208.365 432.977 207.451 432.977C206.309 432.977 205.324 433.504 204.516 434.54C203.707 435.577 203.303 437.034 203.303 438.896C203.303 440.776 203.707 442.233 204.516 443.27C205.324 444.306 206.309 444.833 207.451 444.833C208.594 444.833 209.596 444.025 210.105 443.217C210.352 442.813 210.58 442.339 210.773 441.794C211.16 440.705 211.178 440.389 211.23 440.161H211.775L210.51 444.482H216.451Z" fill="white"/>
<path d="M225.275 437.649C225.275 439.932 224.976 441.074 224.378 441.057C223.534 441.057 223.113 438.896 223.113 434.576C223.113 430.272 223.534 428.112 224.378 428.112C224.976 428.112 225.275 429.254 225.275 431.537V432.784H229.775L229.845 432.538C229.986 432.257 230.126 431.414 230.126 430.448C230.126 428.586 229.616 427.093 228.579 425.987C227.542 424.88 226.206 424.336 224.554 424.336C222.532 424.336 220.898 425.179 219.632 426.883C218.349 428.586 217.716 431.168 217.716 434.593C217.716 438.018 218.349 440.582 219.632 442.286C220.898 443.99 222.532 444.833 224.554 444.833C226.206 444.833 227.542 444.288 228.579 443.182C229.616 442.075 230.126 440.6 230.126 438.721C230.126 437.649 230.003 436.859 229.775 436.385H225.275V437.649Z" fill="white"/>
<path d="M239.495 438.369C239.495 440.178 239.196 441.074 238.598 441.057C237.807 441.074 237.385 439.388 237.333 436.033H243.995L244.135 435.7C244.329 435.225 244.54 433.855 244.54 432.257C244.54 429.658 244.012 427.69 242.94 426.338C241.868 425.003 240.479 424.336 238.774 424.336C236.752 424.336 235.118 425.179 233.852 426.883C232.569 428.586 231.936 431.168 231.936 434.593C231.936 438.018 232.569 440.582 233.852 442.286C235.118 443.99 236.752 444.833 238.774 444.833C240.303 444.833 241.586 444.288 242.624 443.217C243.661 442.146 244.17 440.758 244.17 439.089C244.17 438.492 244.118 438.018 243.995 437.649H239.495V438.369ZM237.333 433.153C237.385 431.73 237.473 430.641 237.631 429.851C237.772 429.078 237.913 428.586 238.071 428.393C238.211 428.2 238.387 428.112 238.598 428.112C239.196 428.112 239.495 429.5 239.495 432.257V433.153H237.333Z" fill="white"/>
<path d="M246.578 438.036C246.49 438.334 246.332 439.037 246.332 439.81C246.332 441.302 246.877 442.497 247.949 443.428C249.021 444.359 250.533 444.833 252.449 444.833C254.33 444.833 255.806 444.306 256.914 443.252C258.021 442.198 258.566 440.811 258.566 439.089C258.566 437.86 258.197 436.736 257.441 435.7C256.685 434.663 255.859 433.855 254.963 433.258C254.066 432.661 253.258 431.994 252.502 431.274C251.746 430.553 251.359 429.868 251.359 429.201C251.359 428.481 251.799 428.112 252.344 428.112C253.012 428.112 253.346 428.779 253.346 430.097V431.168H257.846L257.951 430.957C258.039 430.676 258.215 430.009 258.215 429.377C258.215 427.884 257.687 426.672 256.633 425.741C255.578 424.81 254.119 424.336 252.273 424.336C250.498 424.336 249.056 424.845 247.967 425.864C246.877 426.883 246.332 428.165 246.332 429.728C246.332 430.659 246.508 431.537 246.859 432.327C247.545 433.943 248.617 434.909 249.847 435.945C250.463 436.455 251.025 436.912 251.535 437.28C252.572 438.053 253.346 439.019 253.346 439.985C253.346 440.705 252.924 441.057 252.379 441.057C251.553 441.057 251.183 440.547 251.183 438.914V437.825H246.683L246.578 438.036Z" fill="white"/>
<path d="M117.099 389.149L120.123 398.086L123.163 389.149H125.579L121.579 400.436H118.683L114.683 389.149H117.099Z" fill="url(#paint9_linear_1560_1657)"/>
<path d="M135.452 389.149V400.436H133.196V389.149H135.452Z" fill="url(#paint10_linear_1560_1657)"/>
<path d="M146.149 396.247V400.436H143.893V389.149H148.005C149.338 389.149 150.341 389.469 151.013 390.108C151.695 390.748 152.037 391.617 152.037 392.714C152.037 393.791 151.685 394.649 150.981 395.288C150.287 395.928 149.295 396.247 148.005 396.247H146.149ZM147.765 394.441C149.087 394.441 149.749 393.865 149.749 392.714C149.749 392.149 149.594 391.718 149.285 391.419C148.975 391.121 148.469 390.972 147.765 390.972H146.149V394.441H147.765Z" fill="url(#paint11_linear_1560_1657)"/>
<path d="M177.466 389.149V390.94H174.346V400.436H172.09V390.94H168.986V389.149H177.466Z" fill="url(#paint12_linear_1560_1657)"/>
<path d="M190.404 388.989C191.46 388.989 192.415 389.235 193.268 389.725C194.132 390.215 194.81 390.902 195.3 391.787C195.802 392.661 196.052 393.652 196.052 394.761C196.052 395.869 195.802 396.866 195.3 397.75C194.81 398.635 194.132 399.322 193.268 399.813C192.415 400.303 191.46 400.548 190.404 400.548C189.348 400.548 188.388 400.303 187.524 399.813C186.671 399.322 185.994 398.635 185.492 397.75C185.002 396.866 184.756 395.869 184.756 394.761C184.756 393.652 185.002 392.661 185.492 391.787C185.994 390.902 186.671 390.215 187.524 389.725C188.388 389.235 189.348 388.989 190.404 388.989ZM190.404 391.068C189.743 391.068 189.162 391.217 188.66 391.515C188.159 391.814 187.764 392.245 187.476 392.81C187.199 393.364 187.06 394.015 187.06 394.761C187.06 395.507 187.199 396.162 187.476 396.727C187.764 397.281 188.159 397.708 188.66 398.006C189.162 398.304 189.743 398.454 190.404 398.454C191.066 398.454 191.647 398.304 192.148 398.006C192.65 397.708 193.039 397.281 193.316 396.727C193.604 396.162 193.748 395.507 193.748 394.761C193.748 394.015 193.604 393.364 193.316 392.81C193.039 392.245 192.65 391.814 192.148 391.515C191.647 391.217 191.066 391.068 190.404 391.068Z" fill="url(#paint13_linear_1560_1657)"/>
<path d="M208.533 394.697L213.317 400.436H210.581L206.405 395.272V400.436H204.149V389.149H206.405V394.217L210.597 389.149H213.317L208.533 394.697Z" fill="url(#paint14_linear_1560_1657)"/>
<path d="M223.227 390.94V393.865H227.227V395.592H223.227V398.63H227.707V400.436H220.971V389.149H227.707V390.94H223.227Z" fill="url(#paint15_linear_1560_1657)"/>
<path d="M245.345 400.436H243.089L238.033 392.762V400.436H235.777V389.149H238.033L243.089 396.887V389.149H245.345V400.436Z" fill="url(#paint16_linear_1560_1657)"/>
<defs>
<filter id="filter0_d_1560_1657" x="0" y="0" width="353" height="550" filterUnits="userSpaceOnUse" color-interpolation-filters="sRGB">
<feFlood flood-opacity="0" result="BackgroundImageFix"/>
<feColorMatrix in="SourceAlpha" type="matrix" values="0 0 0 0 0 0 0 0 0 0 0 0 0 0 0 0 0 0 127 0" result="hardAlpha"/>
<feOffset/>
<feGaussianBlur stdDeviation="16"/>
<feComposite in2="hardAlpha" operator="out"/>
<feColorMatrix type="matrix" values="0 0 0 0 0.845378 0 0 0 0 0.616807 0 0 0 0 0.253782 0 0 0 1 0"/>
<feBlend mode="normal" in2="BackgroundImageFix" result="effect1_dropShadow_1560_1657"/>
<feBlend mode="normal" in="SourceGraphic" in2="effect1_dropShadow_1560_1657" result="shape"/>
</filter>
<linearGradient id="paint0_linear_1560_1657" x1="176.5" y1="33" x2="176.5" y2="517" gradientUnits="userSpaceOnUse">
<stop stop-color="#D89D41"/>
<stop offset="0.46875" stop-color="#A2742A"/>
<stop offset="1" stop-color="#654511"/>
</linearGradient>
<linearGradient id="paint1_linear_1560_1657" x1="33" y1="314.758" x2="269.719" y2="316.273" gradientUnits="userSpaceOnUse">
<stop stop-color="#D18D21"/>
<stop offset="0.383082" stop-color="#F4EEE4"/>
<stop offset="1" stop-color="#D89D41"/>
</linearGradient>
<linearGradient id="paint2_linear_1560_1657" x1="126.52" y1="422.465" x2="273.897" y2="422.34" gradientUnits="userSpaceOnUse">
<stop stop-color="#D18D21"/>
<stop offset="0.510417" stop-color="white" stop-opacity="0"/>
<stop offset="1" stop-color="#D89D41"/>
</linearGradient>
<linearGradient id="paint3_linear_1560_1657" x1="8.0015e-09" y1="11.8793" x2="15.8308" y2="12.0401" gradientUnits="userSpaceOnUse">
<stop stop-color="#D18D21"/>
<stop offset="0.383082" stop-color="#F4EEE4"/>
<stop offset="1" stop-color="#D89D41"/>
</linearGradient>
<linearGradient id="paint4_linear_1560_1657" x1="8.0015e-09" y1="11.7412" x2="15.8308" y2="11.9039" gradientUnits="userSpaceOnUse">
<stop stop-color="#D18D21"/>
<stop offset="0.383082" stop-color="#F4EEE4"/>
<stop offset="1" stop-color="#D89D41"/>
</linearGradient>
<linearGradient id="paint5_linear_1560_1657" x1="154.699" y1="227.007" x2="212.397" y2="227.661" gradientUnits="userSpaceOnUse">
<stop stop-color="#D18D21"/>
<stop offset="0.383082" stop-color="#F4EEE4"/>
<stop offset="1" stop-color="#D89D41"/>
</linearGradient>
<linearGradient id="paint6_linear_1560_1657" x1="153" y1="215.693" x2="192.566" y2="216.72" gradientUnits="userSpaceOnUse">
<stop stop-color="#D18D21"/>
<stop offset="0.383082" stop-color="#F4EEE4"/>
<stop offset="1" stop-color="#D89D41"/>
</linearGradient>
<linearGradient id="paint7_linear_1560_1657" x1="132.891" y1="178.625" x2="205.545" y2="180.44" gradientUnits="userSpaceOnUse">
<stop stop-color="#D18D21"/>
<stop offset="0.383082" stop-color="#F4EEE4"/>
<stop offset="1" stop-color="#D89D41"/>
</linearGradient>
<linearGradient id="paint8_linear_1560_1657" x1="288.181" y1="338.852" x2="80.1539" y2="414.355" gradientUnits="userSpaceOnUse">
<stop stop-color="#D18D21"/>
<stop offset="0.453125" stop-color="#D59632"/>
<stop offset="0.9999" stop-color="#D89D41"/>
<stop offset="1" stop-color="white" stop-opacity="0"/>
</linearGradient>
<linearGradient id="paint9_linear_1560_1657" x1="114.683" y1="395.718" x2="220.875" y2="408.682" gradientUnits="userSpaceOnUse">
<stop stop-color="#D18D21"/>
<stop offset="0.383082" stop-color="#F4EEE4"/>
<stop offset="1" stop-color="#D89D41"/>
</linearGradient>
<linearGradient id="paint10_linear_1560_1657" x1="114.683" y1="395.718" x2="220.875" y2="408.682" gradientUnits="userSpaceOnUse">
<stop stop-color="#D18D21"/>
<stop offset="0.383082" stop-color="#F4EEE4"/>
<stop offset="1" stop-color="#D89D41"/>
</linearGradient>
<linearGradient id="paint11_linear_1560_1657" x1="114.683" y1="395.718" x2="220.875" y2="408.682" gradientUnits="userSpaceOnUse">
<stop stop-color="#D18D21"/>
<stop offset="0.383082" stop-color="#F4EEE4"/>
<stop offset="1" stop-color="#D89D41"/>
</linearGradient>
<linearGradient id="paint12_linear_1560_1657" x1="114.683" y1="395.718" x2="220.875" y2="408.682" gradientUnits="userSpaceOnUse">
<stop stop-color="#D18D21"/>
<stop offset="0.383082" stop-color="#F4EEE4"/>
<stop offset="1" stop-color="#D89D41"/>
</linearGradient>
<linearGradient id="paint13_linear_1560_1657" x1="114.683" y1="395.718" x2="220.875" y2="408.682" gradientUnits="userSpaceOnUse">
<stop stop-color="#D18D21"/>
<stop offset="0.383082" stop-color="#F4EEE4"/>
<stop offset="1" stop-color="#D89D41"/>
</linearGradient>
<linearGradient id="paint14_linear_1560_1657" x1="114.683" y1="395.718" x2="220.875" y2="408.682" gradientUnits="userSpaceOnUse">
<stop stop-color="#D18D21"/>
<stop offset="0.383082" stop-color="#F4EEE4"/>
<stop offset="1" stop-color="#D89D41"/>
</linearGradient>
<linearGradient id="paint15_linear_1560_1657" x1="114.683" y1="395.718" x2="220.875" y2="408.682" gradientUnits="userSpaceOnUse">
<stop stop-color="#D18D21"/>
<stop offset="0.383082" stop-color="#F4EEE4"/>
<stop offset="1" stop-color="#D89D41"/>
</linearGradient>
<linearGradient id="paint16_linear_1560_1657" x1="114.683" y1="395.718" x2="220.875" y2="408.682" gradientUnits="userSpaceOnUse">
<stop stop-color="#D18D21"/>
<stop offset="0.383082" stop-color="#F4EEE4"/>
<stop offset="1" stop-color="#D89D41"/>
</linearGradient>
</defs>
</svg>
