<svg width="2200" height="758" viewBox="0 0 1680 758" fill="none" xmlns="http://www.w3.org/2000/svg">
<path d="M295,420 C265,265 1250,190 1310,340 C1310,500 350,560 295,420" stroke="url(#paint2_linear_1501_263)" stroke-width="2" stroke-dasharray="24 24"/>
<path d="M152,425 C140,235 1370,130 1450,330 C1470,530 210,620 152,425" stroke="url(#paint1_linear_1501_263)" stroke-width="2" stroke-dasharray="24 24"/>
<path d="M16,435 C5,200 1505,80 1587,322 C1580,570 70,660 16,435" stroke="url(#paint0_linear_1501_263)" stroke-width="2" stroke-dasharray="24 24"/>
<path d="M-120,445 C-100,155 1610,45 1720,305 C1755,595 -40,720 -120,445" stroke="url(#paint3_linear_1501_263)" stroke-width="2" stroke-dasharray="24 24"/>
<path d="M-245,455 C-225,125 1720,0 1846,300 C1845,625 -100,780 -245,455" stroke="url(#paint4_linear_1501_263)" stroke-width="2" stroke-dasharray="24 24"/>
<defs>
<linearGradient id="paint0_linear_1501_263" x1="34.9183" y1="442.101" x2="784.833" y2="1144.37" gradientUnits="userSpaceOnUse">
<stop stop-color="#D18D21"/>
<stop offset="0.510417" stop-color="white" stop-opacity="0"/>
<stop offset="1" stop-color="#D89D41"/>
</linearGradient>
<linearGradient id="paint1_linear_1501_263" x1="167.343" y1="431.234" x2="787.799" y2="1012.27" gradientUnits="userSpaceOnUse">
<stop stop-color="#D18D21"/>
<stop offset="0.510417" stop-color="white" stop-opacity="0"/>
<stop offset="1" stop-color="#D89D41"/>
</linearGradient>
<linearGradient id="paint2_linear_1501_263" x1="306.613" y1="419.632" x2="791.294" y2="873.517" gradientUnits="userSpaceOnUse">
<stop stop-color="#D18D21"/>
<stop offset="0.510417" stop-color="white" stop-opacity="0"/>
<stop offset="1" stop-color="#D89D41"/>
</linearGradient>
<linearGradient id="paint3_linear_1501_263" x1="-95.7485" y1="452.91" x2="782.046" y2="1274.93" gradientUnits="userSpaceOnUse">
<stop stop-color="#D18D21"/>
<stop offset="0.510417" stop-color="white" stop-opacity="0"/>
<stop offset="1" stop-color="#D89D41"/>
</linearGradient>
<linearGradient id="paint4_linear_1501_263" x1="-218.203" y1="463.126" x2="779.579" y2="1397.51" gradientUnits="userSpaceOnUse">
<stop stop-color="#D18D21"/>
<stop offset="0.510417" stop-color="white" stop-opacity="0"/>
<stop offset="1" stop-color="#D89D41"/>
</linearGradient>
</defs>
</svg>
