<svg width="24" height="26" viewBox="0 0 24 26" fill="none" xmlns="http://www.w3.org/2000/svg">
<circle cx="1.87884" cy="13.5943" r="1.87467" fill="white"/>
<circle cx="22.1253" cy="13.5943" r="1.87467" fill="white"/>
<path fill-rule="evenodd" clip-rule="evenodd" d="M12.0371 4.08135C13.7708 3.56092 14.7543 1.73364 14.2338 0C13.3003 0.280231 12.5843 0.939374 12.2035 1.75878C12.0464 1.433 11.8082 1.14053 11.4944 0.913977C10.7672 1.92139 10.9944 3.32752 12.0018 4.05467C12.0084 4.04554 12.0149 4.03637 12.0214 4.02718C12.0265 4.04524 12.0317 4.0633 12.0371 4.08135Z" fill="#FEAA7B"/>
<path fill-rule="evenodd" clip-rule="evenodd" d="M12.0022 22.2178C16.5577 22.2178 20.2507 18.5248 20.2507 13.9692C20.2507 9.41368 16.5577 5.72067 12.0022 5.72067C7.44664 5.72067 3.75363 9.41368 3.75363 13.9692C3.75363 18.5248 7.44664 22.2178 12.0022 22.2178ZM12.0022 24.4674C17.8002 24.4674 22.5003 19.7672 22.5003 13.9692C22.5003 8.17126 17.8002 3.47107 12.0022 3.47107C6.20421 3.47107 1.50403 8.17126 1.50403 13.9692C1.50403 19.7672 6.20421 24.4674 12.0022 24.4674Z" fill="white"/>
<path fill-rule="evenodd" clip-rule="evenodd" d="M20.1141 15.469C19.4088 19.3085 16.0449 22.2178 12.0015 22.2178C7.95813 22.2178 4.59424 19.3085 3.88898 15.469H1.60968C2.3374 20.5565 6.71274 24.4674 12.0015 24.4674C17.2903 24.4674 21.6657 20.5565 22.3934 15.469H20.1141Z" fill="#9DE5D8"/>
<circle cx="11.8917" cy="13.8799" r="8.44223" fill="#1F1D2E"/>
<path opacity="0.2" d="M16.0848 21.3001C18.0646 20.157 19.5093 18.2743 20.101 16.066C20.6927 13.8578 20.383 11.5049 19.2399 9.5251C18.0968 7.54524 16.2141 6.10057 14.0058 5.50887C11.7976 4.91717 9.44476 5.22693 7.46491 6.37L11.7749 13.835L16.0848 21.3001Z" fill="white"/>
</svg>
