<svg width="234" height="447" viewBox="0 0 234 447" fill="none" xmlns="http://www.w3.org/2000/svg">
<path d="M78.8475 181.287L141.83 163.985L233.526 421.511L76.0737 443.64L78.8475 181.287Z" fill="url(#paint0_linear_1898_3774)"/>
<ellipse cx="37.7545" cy="77.3576" rx="7.94998" ry="7.94352" transform="rotate(-8 37.7545 77.3576)" fill="white"/>
<ellipse cx="122.779" cy="65.4082" rx="7.94998" ry="7.94352" transform="rotate(-8 122.779 65.4082)" fill="white"/>
<path fill-rule="evenodd" clip-rule="evenodd" d="M119.12 166.994L101.026 173.402L109.392 197.005L109.45 196.985L114.453 210.586L144.3 199.618L141.861 192.987C139.573 186.767 132.675 183.578 126.455 185.864L125.883 186.074L119.12 166.994Z" fill="white"/>
<rect width="19.1952" height="20.4221" transform="matrix(0.942645 -0.333796 0.334096 0.942539 101.027 173.401)" fill="#9DE5D8"/>
<path fill-rule="evenodd" clip-rule="evenodd" d="M70.804 173.772L89.9634 174.943L88.427 199.938L88.366 199.935L87.3055 214.388L55.5912 212.072L56.1082 205.026C56.5932 198.416 62.3446 193.449 68.9544 193.932L69.562 193.976L70.804 173.772Z" fill="white"/>
<rect width="19.1952" height="20.1847" transform="matrix(-0.998135 -0.0610374 -0.0613546 0.998116 89.9639 174.943)" fill="#9DE5D8"/>
<rect x="63.751" y="113.812" width="69.9598" height="66.7256" rx="6" transform="rotate(-8 63.751 113.812)" fill="#9DE5D8"/>
<path fill-rule="evenodd" clip-rule="evenodd" d="M74.7995 31.4497C81.7675 28.2434 84.8255 19.9916 81.6192 13.0236C77.8675 14.7499 75.2493 17.939 74.132 21.6027C73.28 20.3279 72.1073 19.2409 70.6555 18.4755C68.196 23.1318 69.9805 28.8985 74.6387 31.3545C74.6601 31.314 74.6811 31.2734 74.7019 31.2328C74.7337 31.3052 74.7663 31.3775 74.7995 31.4497Z" fill="#FEAA7B"/>
<path fill-rule="evenodd" clip-rule="evenodd" d="M85.3518 107.567C104.483 104.879 117.814 87.2032 115.127 68.0879C112.441 48.9726 94.7541 35.6561 75.6232 38.3448C56.4924 41.0335 43.1615 58.7091 45.848 77.8244C48.5345 96.9397 66.221 110.256 85.3518 107.567ZM86.6785 117.007C111.027 113.585 127.993 91.0888 124.574 66.7602C121.155 42.4316 98.645 25.4834 74.2966 28.9053C49.9482 32.3273 32.9817 54.8235 36.4009 79.1521C39.8201 103.481 62.3301 120.429 86.6785 117.007Z" fill="white"/>
<rect x="50.7324" y="112.433" width="69.9598" height="73.0804" rx="6" transform="rotate(-8 50.7324 112.433)" fill="white"/>
<rect width="19.9869" height="29.9952" transform="matrix(0.313302 -0.949654 0.949855 0.31269 28.1611 131.466)" fill="white"/>
<ellipse cx="25.5109" cy="119.792" rx="12" ry="11.9902" transform="rotate(-8 25.5109 119.792)" fill="white"/>
<rect width="19.9869" height="29.9952" transform="matrix(-0.562925 -0.826508 -0.826871 0.562392 146.747 114.8)" fill="white"/>
<ellipse rx="12" ry="11.9902" transform="matrix(-0.990268 0.139173 0.139173 0.990268 146.077 102.847)" fill="white"/>
<rect x="64.2783" y="129.781" width="48" height="19.9837" rx="2" transform="rotate(-8 64.2783 129.781)" fill="#9DE5D8"/>
<path fill-rule="evenodd" clip-rule="evenodd" d="M115.44 74.4613C114.742 90.9883 102.332 105.181 85.3515 107.568C68.3714 109.954 52.5292 99.7318 47.3033 84.0373L37.7314 85.3825C43.7877 106.301 64.4681 120.129 86.6781 117.007C108.888 113.886 124.956 94.8932 125.012 73.1161L115.44 74.4613Z" fill="#9DE5D8"/>
<ellipse cx="79.9763" cy="72.6455" rx="35.8012" ry="35.7721" transform="rotate(-8 79.9763 72.6455)" fill="#1F1D2E"/>
<path opacity="0.2" d="M102.07 100.578C109.552 94.7361 114.406 86.1641 115.564 76.7475C116.723 67.3309 114.09 57.8411 108.245 50.3658C102.401 42.8904 93.8229 38.0419 84.3992 36.8867C74.9755 35.7316 65.4777 38.3645 57.9952 44.2062L80.0324 72.392L102.07 100.578Z" fill="white"/>
<defs>
<linearGradient id="paint0_linear_1898_3774" x1="117.532" y1="167.399" x2="154.8" y2="432.576" gradientUnits="userSpaceOnUse">
<stop stop-color="#FEAA7B"/>
<stop offset="1" stop-color="#FEAA7B" stop-opacity="0"/>
</linearGradient>
</defs>
</svg>
