<svg width="340" height="525" viewBox="0 0 340 525" fill="none" xmlns="http://www.w3.org/2000/svg">
<g filter="url(#filter0_d_1507_1364)">
<mask id="path-1-outside-1_1507_1364" maskUnits="userSpaceOnUse" x="19" y="19" width="289" height="486" fill="black">
<rect fill="white" x="19" y="19" width="289" height="486"/>
<path fill-rule="evenodd" clip-rule="evenodd" d="M23.5823 60.788C21.5619 61.1579 20 62.8587 20 64.9127L20 310.023C20 310.377 20.2949 310.659 20.6494 310.659C29.6147 310.659 36.8825 317.921 36.8825 326.879C36.8825 335.837 29.6147 343.099 20.6494 343.099C20.2949 343.099 20 343.381 20 343.736L20 460.385C20 462.439 21.5617 464.14 23.5821 464.51C41.8095 467.847 56.1809 482.206 59.5219 500.419C59.8925 502.439 61.5931 504 63.6469 504H263.353C265.407 504 267.108 502.439 267.478 500.419C270.819 482.206 285.191 467.847 303.418 464.51C305.438 464.14 307 462.439 307 460.385V343.183C307 343.13 306.956 343.088 306.904 343.09C306.72 343.096 306.535 343.099 306.35 343.099C297.385 343.099 290.117 335.837 290.117 326.879C290.117 317.921 297.385 310.659 306.35 310.659C306.705 310.659 307 310.377 307 310.022V64.9127C307 62.8587 305.438 61.1579 303.418 60.7879C284.799 57.3786 270.204 42.4693 267.278 23.7001C266.955 21.627 265.233 20 263.135 20L63.8654 20C61.7672 20 60.045 21.627 59.7219 23.7001C56.7965 42.4693 42.2012 57.3787 23.5823 60.788Z"/>
</mask>
<path fill-rule="evenodd" clip-rule="evenodd" d="M23.5823 60.788C21.5619 61.1579 20 62.8587 20 64.9127L20 310.023C20 310.377 20.2949 310.659 20.6494 310.659C29.6147 310.659 36.8825 317.921 36.8825 326.879C36.8825 335.837 29.6147 343.099 20.6494 343.099C20.2949 343.099 20 343.381 20 343.736L20 460.385C20 462.439 21.5617 464.14 23.5821 464.51C41.8095 467.847 56.1809 482.206 59.5219 500.419C59.8925 502.439 61.5931 504 63.6469 504H263.353C265.407 504 267.108 502.439 267.478 500.419C270.819 482.206 285.191 467.847 303.418 464.51C305.438 464.14 307 462.439 307 460.385V343.183C307 343.13 306.956 343.088 306.904 343.09C306.72 343.096 306.535 343.099 306.35 343.099C297.385 343.099 290.117 335.837 290.117 326.879C290.117 317.921 297.385 310.659 306.35 310.659C306.705 310.659 307 310.377 307 310.022V64.9127C307 62.8587 305.438 61.1579 303.418 60.7879C284.799 57.3786 270.204 42.4693 267.278 23.7001C266.955 21.627 265.233 20 263.135 20L63.8654 20C61.7672 20 60.045 21.627 59.7219 23.7001C56.7965 42.4693 42.2012 57.3787 23.5823 60.788Z" fill="#1F1D2E"/>
<path d="M59.7219 23.7001L58.7338 23.5461L59.7219 23.7001ZM303.418 464.51L303.598 465.493L303.418 464.51ZM263.353 504V505V504ZM267.478 500.419L268.462 500.599L267.478 500.419ZM59.5219 500.419L58.5383 500.599L59.5219 500.419ZM267.278 23.7001L266.29 23.8541L267.278 23.7001ZM23.5821 464.51L23.7622 463.526L23.5821 464.51ZM303.418 60.7879L303.598 59.8043L303.418 60.7879ZM19 64.9127L19 310.023H21L21 64.9127H19ZM20.6494 311.659C29.0632 311.659 35.8825 318.474 35.8825 326.879H37.8825C37.8825 317.368 30.1662 309.659 20.6494 309.659V311.659ZM35.8825 326.879C35.8825 335.284 29.0632 342.099 20.6494 342.099V344.099C30.1662 344.099 37.8825 336.39 37.8825 326.879H35.8825ZM19 343.736L19 460.385H21L21 343.736H19ZM23.402 465.493C41.2212 468.756 55.2724 482.796 58.5383 500.599L60.5055 500.238C57.0895 481.617 42.3979 466.938 23.7622 463.526L23.402 465.493ZM63.6469 505H263.353V503H63.6469V505ZM268.462 500.599C271.728 482.796 285.779 468.756 303.598 465.493L303.238 463.526C284.602 466.938 269.911 481.617 266.495 500.238L268.462 500.599ZM308 460.385V343.183H306V460.385H308ZM306.87 342.09C306.698 342.096 306.524 342.099 306.35 342.099V344.099C306.546 344.099 306.742 344.096 306.937 344.089L306.87 342.09ZM306.35 342.099C297.936 342.099 291.117 335.284 291.117 326.879H289.117C289.117 336.39 296.833 344.099 306.35 344.099V342.099ZM291.117 326.879C291.117 318.474 297.936 311.659 306.35 311.659V309.659C296.833 309.659 289.117 317.368 289.117 326.879H291.117ZM308 310.022V64.9127H306V310.022H308ZM303.598 59.8043C285.396 56.4713 271.126 41.8935 268.266 23.5461L266.29 23.8541C269.281 43.045 284.202 58.286 303.238 61.7716L303.598 59.8043ZM263.135 19L63.8654 19V21L263.135 21V19ZM58.7338 23.5461C55.8742 41.8936 41.6042 56.4714 23.4022 59.8043L23.7624 61.7716C42.7981 58.286 57.7189 43.0451 60.7099 23.8541L58.7338 23.5461ZM63.8654 19C61.224 19 59.1248 21.0375 58.7338 23.5461L60.7099 23.8541C60.9652 22.2164 62.3104 21 63.8654 21V19ZM306.35 311.659C307.232 311.659 308 310.954 308 310.022H306C306 309.799 306.178 309.659 306.35 309.659V311.659ZM308 343.183C308 342.561 307.484 342.07 306.87 342.09L306.937 344.089C306.428 344.106 306 343.699 306 343.183H308ZM303.598 465.493C306.044 465.045 308 462.97 308 460.385H306C306 461.907 304.833 463.234 303.238 463.526L303.598 465.493ZM263.353 505C265.938 505 268.013 503.044 268.462 500.599L266.495 500.238C266.202 501.833 264.876 503 263.353 503V505ZM58.5383 500.599C58.9869 503.044 61.0618 505 63.6469 505V503C62.1245 503 60.7981 501.833 60.5055 500.238L58.5383 500.599ZM268.266 23.5461C267.875 21.0375 265.776 19 263.135 19V21C264.69 21 266.035 22.2164 266.29 23.8541L268.266 23.5461ZM19 460.385C19 462.97 20.9561 465.045 23.402 465.493L23.7622 463.526C22.1673 463.234 21 461.907 21 460.385H19ZM19 310.023C19 310.955 19.7682 311.659 20.6494 311.659V309.659C20.8215 309.659 21 309.8 21 310.023H19ZM308 64.9127C308 62.3273 306.044 60.2521 303.598 59.8043L303.238 61.7716C304.833 62.0636 306 63.3902 306 64.9127H308ZM20.6494 342.099C19.7682 342.099 19 342.804 19 343.736H21C21 343.959 20.8215 344.099 20.6494 344.099V342.099ZM21 64.9127C21 63.3902 22.1674 62.0636 23.7624 61.7716L23.4022 59.8043C20.9564 60.2522 19 62.3273 19 64.9127H21Z" fill="#9DE5D8" mask="url(#path-1-outside-1_1507_1364)"/>
</g>
<mask id="mask0_1507_1364" style="mask-type:alpha" maskUnits="userSpaceOnUse" x="20" y="20" width="287" height="484">
<path fill-rule="evenodd" clip-rule="evenodd" d="M23.5823 60.788C21.5619 61.1579 20 62.8587 20 64.9127L20 310.023C20 310.377 20.2949 310.659 20.6494 310.659C29.6147 310.659 36.8825 317.921 36.8825 326.879C36.8825 335.837 29.6147 343.099 20.6494 343.099C20.2949 343.099 20 343.381 20 343.736L20 460.385C20 462.439 21.5617 464.14 23.5821 464.51C41.8095 467.847 56.1809 482.206 59.5219 500.419C59.8925 502.439 61.5931 504 63.6469 504H263.353C265.407 504 267.108 502.439 267.478 500.419C270.819 482.206 285.191 467.847 303.418 464.51C305.438 464.14 307 462.439 307 460.385L307 343.737C307 343.382 306.705 343.099 306.35 343.099C297.385 343.099 290.117 335.837 290.117 326.879C290.117 317.921 297.385 310.659 306.35 310.659C306.705 310.659 307 310.377 307 310.022V64.9127C307 62.8587 305.438 61.1579 303.418 60.7879C284.799 57.3786 270.204 42.4693 267.278 23.7001C266.955 21.627 265.233 20 263.135 20L63.8654 20C61.7672 20 60.045 21.627 59.7219 23.7001C56.7965 42.4693 42.2012 57.3787 23.5823 60.788Z" fill="#FBF6ED"/>
</mask>
<g mask="url(#mask0_1507_1364)">
<g opacity="0.5">
<ellipse opacity="0.1" cx="145.799" cy="9.32095" rx="13.3824" ry="13.3715" fill="white"/>
<g opacity="0.5">
<path d="M147.259 246.799L212.037 238.431L267 506.213H108L147.259 246.799Z" fill="url(#paint0_linear_1507_1364)"/>
<ellipse cx="121.03" cy="138.162" rx="7.94998" ry="7.94352" fill="white"/>
<ellipse cx="206.89" cy="138.162" rx="7.94998" ry="7.94352" fill="white"/>
<path fill-rule="evenodd" clip-rule="evenodd" d="M189.128 238.25L170.319 242.077L175.319 266.615L175.379 266.603L178.44 280.768L209.523 274.061L208.031 267.155C206.631 260.677 200.244 256.559 193.766 257.957L193.17 258.085L189.128 238.25Z" fill="white"/>
<rect width="19.1952" height="20.4221" transform="matrix(0.979927 -0.199357 0.199668 0.979863 170.32 242.077)" fill="#9DE5D8"/>
<path fill-rule="evenodd" clip-rule="evenodd" d="M140.339 238.237L159.149 242.064L154.149 266.602L154.089 266.59L151.028 280.755L119.944 274.048L121.437 267.142C122.837 260.664 129.224 256.546 135.702 257.944L136.297 258.072L140.339 238.237Z" fill="white"/>
<rect width="19.1952" height="20.1847" transform="matrix(-0.979927 -0.199357 -0.199668 0.979863 159.15 242.064)" fill="#9DE5D8"/>
<rect x="141.7" y="177.88" width="69.9598" height="66.7256" rx="6" fill="#9DE5D8"/>
<path fill-rule="evenodd" clip-rule="evenodd" d="M164.104 97.8566C171.45 95.6512 175.627 87.9053 173.421 80.5589C169.466 81.7463 166.429 84.5399 164.813 88.0125C164.147 86.6315 163.137 85.3919 161.806 84.4318C158.722 88.7005 159.687 94.6595 163.958 97.7398C163.984 97.7027 164.011 97.6655 164.037 97.6281C164.059 97.7043 164.081 97.7805 164.104 97.8566Z" fill="#FEAA7B"/>
<path fill-rule="evenodd" clip-rule="evenodd" d="M163.96 174.702C183.279 174.702 198.94 159.054 198.94 139.751C198.94 120.448 183.279 104.799 163.96 104.799C144.641 104.799 128.98 120.448 128.98 139.751C128.98 159.054 144.641 174.702 163.96 174.702ZM163.96 184.234C188.548 184.234 208.48 164.318 208.48 139.751C208.48 115.183 188.548 95.267 163.96 95.267C139.372 95.267 119.44 115.183 119.44 139.751C119.44 164.318 139.372 184.234 163.96 184.234Z" fill="white"/>
<rect x="129" y="174.702" width="69.9598" height="73.0804" rx="6" fill="white"/>
<rect width="19.9869" height="29.9952" transform="matrix(0.442419 -0.896808 0.897093 0.441841 104 190.409)" fill="white"/>
<ellipse cx="103" cy="178.479" rx="12" ry="11.9902" fill="white"/>
<rect width="19.9869" height="29.9952" transform="matrix(-0.442419 -0.896808 -0.897093 0.441841 223.751 190.409)" fill="white"/>
<ellipse rx="12" ry="11.9902" transform="matrix(-1 0 0 1 224.751 178.479)" fill="white"/>
<rect x="140" y="193.767" width="48" height="19.9837" rx="2" fill="#9DE5D8"/>
<path fill-rule="evenodd" clip-rule="evenodd" d="M198.362 146.106C195.372 162.375 181.106 174.702 163.959 174.702C146.812 174.702 132.547 162.375 129.556 146.106H119.89C122.976 167.663 141.531 184.234 163.959 184.234C186.387 184.234 204.942 167.663 208.028 146.106L198.362 146.106Z" fill="#9DE5D8"/>
<ellipse cx="163.497" cy="139.372" rx="35.8012" ry="35.7721" fill="#1F1D2E"/>
<path opacity="0.2" d="M181.488 170.107C189.71 165.364 195.71 157.551 198.168 148.387C200.625 139.223 199.339 129.459 194.591 121.243C189.844 113.027 182.025 107.032 172.853 104.577C163.682 102.121 153.91 103.407 145.688 108.15L163.588 139.129L181.488 170.107Z" fill="white"/>
</g>
<ellipse rx="21.8272" ry="21.8272" transform="matrix(-0.707394 0.706819 -0.707394 -0.706819 51.3631 57.9752)" fill="#9DE5D8"/>
<circle r="14.7915" transform="matrix(-0.707394 0.706819 -0.707394 -0.706819 121.918 57.0693)" fill="#DDB4FF"/>
<path fill-rule="evenodd" clip-rule="evenodd" d="M167.326 11.0313C172.415 9.66887 177.646 12.6864 179.009 17.771C180.373 22.8557 177.353 28.0822 172.264 29.4446C167.175 30.807 161.944 27.7896 160.581 22.7049C159.217 17.6202 162.237 12.3937 167.326 11.0313ZM165.136 2.86542C174.739 0.294559 184.609 5.98841 187.182 15.583C189.755 25.1776 184.056 35.0396 174.454 37.6105C164.851 40.1813 154.981 34.4875 152.408 24.8929C149.835 15.2983 155.534 5.43628 165.136 2.86542Z" fill="#C4FCA3"/>
</g>
<line x1="284" y1="327.751" x2="29.9999" y2="327.751" stroke="white" stroke-width="2" stroke-dasharray="10 10"/>
<path fill-rule="evenodd" clip-rule="evenodd" d="M246 493.615L246 463.639L243 463.639L243 493.615L246 493.615ZM239 493.615L239 463.639L236 463.639L236 493.615L239 493.615ZM232 463.639L232 493.615L229 493.615L229 463.639L232 463.639ZM225 493.615L225 463.639L222 463.639L222 493.615L225 493.615ZM218 463.639L218 493.615L215 493.615L215 463.639L218 463.639ZM211 493.615L211 463.639L208 463.639L208 493.615L211 493.615ZM204 463.639L204 493.615L201 493.615L201 463.639L204 463.639ZM197 493.615L197 463.639L194 463.639L194 493.615L197 493.615ZM190 463.639L190 493.615L187 493.615L187 463.639L190 463.639ZM183 493.615L183 463.639L180 463.639L180 493.615L183 493.615ZM176 463.639L176 493.615L173 493.615L173 463.639L176 463.639ZM169 493.615L169 463.639L166 463.639L166 493.615L169 493.615ZM162 463.639L162 493.615L159 493.615L159 463.639L162 463.639ZM155 493.615L155 463.639L152 463.639L152 493.615L155 493.615ZM148 463.639L148 493.615L145 493.615L145 463.639L148 463.639ZM141 493.615L141 463.639L138 463.639L138 493.615L141 493.615ZM134 463.639L134 493.615L131 493.615L131 463.639L134 463.639ZM127 493.615L127 463.639L124 463.639L124 493.615L127 493.615ZM120 463.639L120 493.615L117 493.615L117 463.639L120 463.639ZM113 493.615L113 463.639L110 463.639L110 493.615L113 493.615ZM106 463.639L106 493.615L103 493.615L103 463.639L106 463.639ZM98.9993 493.615L98.9993 463.639L95.9993 463.639L95.9993 493.615L98.9993 493.615ZM91.9993 463.639L91.9993 493.615L88.9993 493.615L88.9993 463.639L91.9993 463.639ZM84.9993 493.615L84.9993 463.639L81.9993 463.639L81.9993 493.615L84.9993 493.615Z" fill="white"/>
</g>
<path d="M98.1982 431.482L99.6396 420.873H99.9912L101.433 431.482H107.919L108.991 406.295H103.419L104.14 426.441H103.595L101.626 412.952H98.0225L96.0361 426.441H95.4912L96.2119 406.295H90.6396L91.7119 431.482H98.1982Z" fill="white"/>
<path d="M118.535 425.369C118.535 427.178 118.237 428.074 117.639 428.057C116.848 428.074 116.426 426.388 116.373 423.033H123.035L123.176 422.7C123.369 422.225 123.58 420.855 123.58 419.257C123.58 416.658 123.053 414.691 121.981 413.338C120.908 412.003 119.52 411.336 117.815 411.336C115.793 411.336 114.158 412.179 112.893 413.883C111.61 415.586 110.977 418.168 110.977 421.593C110.977 425.018 111.61 427.582 112.893 429.286C114.158 430.99 115.793 431.833 117.815 431.833C119.344 431.833 120.627 431.288 121.664 430.217C122.701 429.146 123.211 427.758 123.211 426.09C123.211 425.492 123.158 425.018 123.035 424.649H118.535V425.369ZM116.373 420.153C116.426 418.73 116.514 417.641 116.672 416.851C116.813 416.078 116.953 415.586 117.112 415.393C117.252 415.2 117.428 415.112 117.639 415.112C118.237 415.112 118.535 416.5 118.535 419.257V420.153H116.373Z" fill="white"/>
<path d="M131.332 427.547C131.191 427.337 131.068 426.739 130.945 425.756C130.822 424.772 130.769 423.385 130.769 421.576C130.769 419.784 130.822 418.397 130.945 417.413C131.068 416.429 131.191 415.832 131.332 415.604C131.595 415.182 132.105 415.182 132.369 415.604C132.492 415.832 132.632 416.429 132.755 417.413C132.878 418.397 132.931 419.784 132.931 421.576C132.931 423.385 132.878 424.772 132.755 425.756C132.632 426.739 132.492 427.337 132.369 427.547C132.105 427.986 131.595 427.986 131.332 427.547ZM129.152 431.482L129.679 427.161H130.048L130.365 428.32C130.558 429.111 130.98 429.883 131.595 430.656C132.211 431.446 132.966 431.833 133.828 431.833C135.005 431.833 136.043 431.007 136.957 429.356C137.871 427.705 138.328 425.124 138.328 421.593C138.328 418.063 137.871 415.481 136.957 413.812C136.043 412.161 135.005 411.336 133.828 411.336C132.773 411.336 131.753 412.126 131.261 412.952C130.998 413.356 130.769 413.83 130.558 414.374C130.119 415.446 130.101 415.78 130.048 416.008H129.503L130.769 411.336V406.295H125.724V431.482H129.152Z" fill="white"/>
<path d="M140.366 422.77C140.278 423.121 140.12 424.035 140.12 425.001C140.12 427.126 140.7 428.812 141.86 430.094C143.02 431.376 144.479 432.026 146.237 432.026C148.206 432.026 149.806 431.288 151.054 429.795C152.284 428.32 152.899 426.248 152.899 423.56C152.899 421.014 152.266 419.029 151.018 417.606C149.753 416.184 148.1 415.481 146.061 415.481V415.112L149.12 414.568L152.354 410.44V406.295H140.472V410.985H146.413L142.634 415.832V420.329H143.354L143.53 420.188C143.829 419.995 144.427 419.784 144.972 419.784C145.763 419.784 146.36 420.048 146.747 420.592C147.116 421.137 147.309 422.12 147.309 423.56C147.309 424.79 147.257 425.738 147.169 426.388C147.081 427.056 146.958 427.477 146.835 427.635C146.694 427.793 146.518 427.881 146.307 427.881C145.657 427.881 145.341 426.915 145.341 425.001V422.489H140.472L140.366 422.77Z" fill="white"/>
<path d="M161.634 423.35C161.494 423.754 161.353 424.755 161.353 425.721C161.353 427.618 161.933 429.146 163.076 430.287C164.218 431.446 165.747 432.026 167.646 432.026C169.474 432.026 170.986 431.394 172.181 430.129C173.359 428.882 173.956 427.231 173.956 425.194C173.956 422.647 172.831 420.346 171.425 418.748C169.369 416.429 166.714 414.251 166.749 411.705C166.749 410.616 167.048 410.071 167.646 410.071C168.367 410.089 168.736 411.108 168.736 413.145V414.761H173.587L173.658 414.497C173.816 414.129 173.956 413.285 173.956 412.425C173.956 410.458 173.359 408.859 172.181 407.612C170.986 406.383 169.474 405.768 167.663 405.768C165.835 405.768 164.324 406.4 163.146 407.683C161.951 408.965 161.353 410.668 161.353 412.776C161.353 413.988 161.599 415.147 162.091 416.236C162.583 417.343 163.181 418.274 163.902 419.064C165.941 421.365 168.595 423.525 168.56 426.09C168.542 427.161 168.244 427.705 167.646 427.705C166.925 427.705 166.574 426.687 166.574 424.649V423.033H161.704L161.634 423.35Z" fill="white"/>
<path d="M181.708 427.547C181.567 427.337 181.444 426.739 181.321 425.756C181.198 424.772 181.145 423.385 181.145 421.576C181.145 419.784 181.198 418.397 181.321 417.413C181.444 416.429 181.567 415.832 181.708 415.604C181.971 415.182 182.481 415.182 182.745 415.604C182.868 415.832 183.008 416.429 183.132 417.413C183.255 418.397 183.307 419.784 183.307 421.576C183.307 423.385 183.255 424.772 183.132 425.756C183.008 426.739 182.868 427.337 182.745 427.547C182.481 427.986 181.971 427.986 181.708 427.547ZM181.145 437.963V431.833L179.88 427.161H180.424L180.741 428.32C180.934 429.111 181.356 429.883 181.971 430.656C182.587 431.446 183.342 431.833 184.204 431.833C185.382 431.833 186.419 431.007 187.333 429.356C188.247 427.705 188.704 425.124 188.704 421.593C188.704 418.063 188.247 415.481 187.333 413.812C186.419 412.161 185.382 411.336 184.204 411.336C183.149 411.336 182.13 412.126 181.637 412.952C181.374 413.356 181.145 413.83 180.934 414.374C180.495 415.446 180.477 415.78 180.424 416.008H179.88L181.145 412.056V411.705H176.1V437.963H181.145Z" fill="white"/>
<path d="M195.348 425.896C195.348 424.474 195.646 423.754 196.262 423.754C196.859 423.754 197.158 424.474 197.158 425.896C197.158 427.337 196.859 428.057 196.262 428.057C195.646 428.057 195.348 427.337 195.348 425.896ZM203.451 431.482V431.13L203.205 431.043C202.906 430.99 202.555 430.375 202.555 429.321V418.537C202.555 413.742 200.568 411.336 196.613 411.336C195.031 411.336 193.713 411.828 192.641 412.829C191.568 413.83 191.023 415.007 191.023 416.377C191.041 417.343 191.164 418.063 191.393 418.537H195.893V417.272C195.893 415.832 196.156 415.112 196.684 415.112C197.228 415.112 197.51 415.832 197.51 417.272V419.977L198.775 424.649H198.23L197.949 423.49C197.773 422.7 197.369 421.927 196.754 421.137C196.139 420.364 195.365 419.977 194.451 419.977C193.309 419.977 192.324 420.504 191.516 421.54C190.707 422.577 190.303 424.035 190.303 425.896C190.303 427.776 190.707 429.233 191.516 430.27C192.324 431.306 193.309 431.833 194.451 431.833C195.594 431.833 196.596 431.025 197.105 430.217C197.352 429.813 197.58 429.339 197.773 428.794C198.16 427.705 198.178 427.389 198.23 427.161H198.775L197.51 431.482H203.451Z" fill="white"/>
<path d="M212.275 424.649C212.275 426.933 211.976 428.074 211.378 428.057C210.534 428.057 210.113 425.896 210.113 421.576C210.113 417.272 210.534 415.112 211.378 415.112C211.976 415.112 212.275 416.254 212.275 418.537V419.784H216.775L216.845 419.538C216.986 419.257 217.126 418.414 217.126 417.448C217.126 415.586 216.616 414.093 215.579 412.987C214.542 411.88 213.206 411.336 211.554 411.336C209.532 411.336 207.898 412.179 206.632 413.883C205.349 415.586 204.716 418.168 204.716 421.593C204.716 425.018 205.349 427.582 206.632 429.286C207.898 430.99 209.532 431.833 211.554 431.833C213.206 431.833 214.542 431.288 215.579 430.182C216.616 429.075 217.126 427.6 217.126 425.721C217.126 424.649 217.003 423.859 216.775 423.385H212.275V424.649Z" fill="white"/>
<path d="M226.495 425.369C226.495 427.178 226.196 428.074 225.598 428.057C224.807 428.074 224.385 426.388 224.333 423.033H230.995L231.135 422.7C231.329 422.225 231.54 420.855 231.54 419.257C231.54 416.658 231.012 414.691 229.94 413.338C228.868 412.003 227.479 411.336 225.774 411.336C223.752 411.336 222.118 412.179 220.852 413.883C219.569 415.586 218.936 418.168 218.936 421.593C218.936 425.018 219.569 427.582 220.852 429.286C222.118 430.99 223.752 431.833 225.774 431.833C227.303 431.833 228.586 431.288 229.624 430.217C230.661 429.146 231.17 427.758 231.17 426.09C231.17 425.492 231.118 425.018 230.995 424.649H226.495V425.369ZM224.333 420.153C224.385 418.73 224.473 417.641 224.631 416.851C224.772 416.078 224.913 415.586 225.071 415.393C225.211 415.2 225.387 415.112 225.598 415.112C226.196 415.112 226.495 416.5 226.495 419.257V420.153H224.333Z" fill="white"/>
<path d="M233.578 425.036C233.49 425.334 233.332 426.037 233.332 426.81C233.332 428.303 233.877 429.497 234.949 430.428C236.021 431.359 237.533 431.833 239.449 431.833C241.33 431.833 242.806 431.306 243.914 430.252C245.021 429.198 245.566 427.811 245.566 426.09C245.566 424.86 245.197 423.736 244.441 422.7C243.685 421.663 242.859 420.855 241.963 420.258C241.066 419.661 240.258 418.994 239.502 418.274C238.746 417.553 238.359 416.869 238.359 416.201C238.359 415.481 238.799 415.112 239.344 415.112C240.012 415.112 240.346 415.78 240.346 417.097V418.168H244.846L244.951 417.957C245.039 417.676 245.215 417.009 245.215 416.377C245.215 414.884 244.687 413.672 243.633 412.741C242.578 411.81 241.119 411.336 239.273 411.336C237.498 411.336 236.056 411.845 234.967 412.864C233.877 413.883 233.332 415.165 233.332 416.728C233.332 417.659 233.508 418.537 233.859 419.327C234.545 420.943 235.617 421.909 236.847 422.946C237.463 423.455 238.025 423.912 238.535 424.28C239.572 425.053 240.346 426.019 240.346 426.985C240.346 427.705 239.924 428.057 239.379 428.057C238.553 428.057 238.183 427.547 238.183 425.914V424.825H233.683L233.578 425.036Z" fill="white"/>
<path d="M177.5 203.179H182.333C182.974 203.179 183.589 203.434 184.042 203.887C184.496 204.341 184.75 204.955 184.75 205.596V234.596C184.75 235.237 184.496 235.852 184.042 236.305C183.589 236.758 182.974 237.013 182.333 237.013H143.667C143.026 237.013 142.411 236.758 141.958 236.305C141.505 235.852 141.25 235.237 141.25 234.596V205.596C141.25 204.955 141.505 204.341 141.958 203.887C142.411 203.434 143.026 203.179 143.667 203.179H148.5V200.763C148.5 196.917 150.028 193.229 152.747 190.51C155.466 187.79 159.154 186.263 163 186.263C166.846 186.263 170.534 187.79 173.253 190.51C175.972 193.229 177.5 196.917 177.5 200.763V203.179ZM160.583 221.865V227.346H165.417V221.865C166.338 221.333 167.058 220.512 167.466 219.529C167.873 218.546 167.944 217.456 167.669 216.428C167.393 215.401 166.787 214.493 165.942 213.845C165.098 213.197 164.064 212.846 163 212.846C161.936 212.846 160.902 213.197 160.058 213.845C159.214 214.493 158.607 215.401 158.331 216.428C158.056 217.456 158.128 218.546 158.535 219.529C158.942 220.512 159.662 221.333 160.583 221.865ZM172.667 203.179V200.763C172.667 198.199 171.648 195.74 169.835 193.927C168.023 192.115 165.564 191.096 163 191.096C160.436 191.096 157.978 192.115 156.165 193.927C154.352 195.74 153.333 198.199 153.333 200.763V203.179H172.667Z" fill="white"/>
<path d="M64.2538 381.4C64.2538 380.301 64.4991 379.32 64.9898 378.456C65.4911 377.581 66.1685 376.904 67.0218 376.424C67.8858 375.933 68.8511 375.688 69.9178 375.688C71.1658 375.688 72.2591 376.008 73.1978 376.648C74.1365 377.288 74.7925 378.173 75.1658 379.304H72.5898C72.3338 378.771 71.9711 378.371 71.5018 378.104C71.0431 377.837 70.5098 377.704 69.9018 377.704C69.2511 377.704 68.6698 377.859 68.1578 378.168C67.6565 378.467 67.2618 378.893 66.9738 379.448C66.6965 380.003 66.5578 380.653 66.5578 381.4C66.5578 382.136 66.6965 382.787 66.9738 383.352C67.2618 383.907 67.6565 384.339 68.1578 384.648C68.6698 384.947 69.2511 385.096 69.9018 385.096C70.5098 385.096 71.0431 384.963 71.5018 384.696C71.9711 384.419 72.3338 384.013 72.5898 383.48H75.1658C74.7925 384.621 74.1365 385.512 73.1978 386.152C72.2698 386.781 71.1765 387.096 69.9178 387.096C68.8511 387.096 67.8858 386.856 67.0218 386.376C66.1685 385.885 65.4911 385.208 64.9898 384.344C64.4991 383.48 64.2538 382.499 64.2538 381.4Z" fill="white"/>
<path d="M85.719 385.224H89.399V387H83.479V375.832H85.719V385.224Z" fill="white"/>
<path d="M104.071 384.872H99.6228L98.8868 387H96.5348L100.551 375.816H103.159L107.175 387H104.807L104.071 384.872ZM103.463 383.08L101.847 378.408L100.231 383.08H103.463Z" fill="white"/>
<path d="M118.932 387.112C118.153 387.112 117.449 386.979 116.82 386.712C116.201 386.445 115.711 386.061 115.348 385.56C114.985 385.059 114.799 384.467 114.788 383.784H117.188C117.22 384.243 117.38 384.605 117.668 384.872C117.967 385.139 118.372 385.272 118.884 385.272C119.407 385.272 119.817 385.149 120.116 384.904C120.415 384.648 120.564 384.317 120.564 383.912C120.564 383.581 120.463 383.309 120.26 383.096C120.057 382.883 119.801 382.717 119.492 382.6C119.193 382.472 118.777 382.333 118.244 382.184C117.519 381.971 116.927 381.763 116.468 381.56C116.02 381.347 115.631 381.032 115.3 380.616C114.98 380.189 114.82 379.624 114.82 378.92C114.82 378.259 114.985 377.683 115.316 377.192C115.647 376.701 116.111 376.328 116.708 376.072C117.305 375.805 117.988 375.672 118.756 375.672C119.908 375.672 120.841 375.955 121.556 376.52C122.281 377.075 122.681 377.853 122.756 378.856H120.292C120.271 378.472 120.105 378.157 119.796 377.912C119.497 377.656 119.097 377.528 118.596 377.528C118.159 377.528 117.807 377.64 117.54 377.864C117.284 378.088 117.156 378.413 117.156 378.84C117.156 379.139 117.252 379.389 117.444 379.592C117.647 379.784 117.892 379.944 118.18 380.072C118.479 380.189 118.895 380.328 119.428 380.488C120.153 380.701 120.745 380.915 121.204 381.128C121.663 381.341 122.057 381.661 122.388 382.088C122.719 382.515 122.884 383.075 122.884 383.768C122.884 384.365 122.729 384.92 122.42 385.432C122.111 385.944 121.657 386.355 121.06 386.664C120.463 386.963 119.753 387.112 118.932 387.112Z" fill="white"/>
<path d="M135.082 387.112C134.303 387.112 133.599 386.979 132.97 386.712C132.351 386.445 131.861 386.061 131.498 385.56C131.135 385.059 130.949 384.467 130.938 383.784H133.338C133.37 384.243 133.53 384.605 133.818 384.872C134.117 385.139 134.522 385.272 135.034 385.272C135.557 385.272 135.967 385.149 136.266 384.904C136.565 384.648 136.714 384.317 136.714 383.912C136.714 383.581 136.613 383.309 136.41 383.096C136.207 382.883 135.951 382.717 135.642 382.6C135.343 382.472 134.927 382.333 134.394 382.184C133.669 381.971 133.077 381.763 132.618 381.56C132.17 381.347 131.781 381.032 131.45 380.616C131.13 380.189 130.97 379.624 130.97 378.92C130.97 378.259 131.135 377.683 131.466 377.192C131.797 376.701 132.261 376.328 132.858 376.072C133.455 375.805 134.138 375.672 134.906 375.672C136.058 375.672 136.991 375.955 137.706 376.52C138.431 377.075 138.831 377.853 138.906 378.856H136.442C136.421 378.472 136.255 378.157 135.946 377.912C135.647 377.656 135.247 377.528 134.746 377.528C134.309 377.528 133.957 377.64 133.69 377.864C133.434 378.088 133.306 378.413 133.306 378.84C133.306 379.139 133.402 379.389 133.594 379.592C133.797 379.784 134.042 379.944 134.33 380.072C134.629 380.189 135.045 380.328 135.578 380.488C136.303 380.701 136.895 380.915 137.354 381.128C137.813 381.341 138.207 381.661 138.538 382.088C138.869 382.515 139.034 383.075 139.034 383.768C139.034 384.365 138.879 384.92 138.57 385.432C138.261 385.944 137.807 386.355 137.21 386.664C136.613 386.963 135.903 387.112 135.082 387.112Z" fill="white"/>
<path d="M149.616 375.832V387H147.376V375.832H149.616Z" fill="white"/>
<path d="M157.685 381.4C157.685 380.301 157.93 379.32 158.421 378.456C158.922 377.581 159.6 376.904 160.453 376.424C161.317 375.933 162.282 375.688 163.349 375.688C164.597 375.688 165.69 376.008 166.629 376.648C167.568 377.288 168.224 378.173 168.597 379.304H166.021C165.765 378.771 165.402 378.371 164.933 378.104C164.474 377.837 163.941 377.704 163.333 377.704C162.682 377.704 162.101 377.859 161.589 378.168C161.088 378.467 160.693 378.893 160.405 379.448C160.128 380.003 159.989 380.653 159.989 381.4C159.989 382.136 160.128 382.787 160.405 383.352C160.693 383.907 161.088 384.339 161.589 384.648C162.101 384.947 162.682 385.096 163.333 385.096C163.941 385.096 164.474 384.963 164.933 384.696C165.402 384.419 165.765 384.013 166.021 383.48H168.597C168.224 384.621 167.568 385.512 166.629 386.152C165.701 386.781 164.608 387.096 163.349 387.096C162.282 387.096 161.317 386.856 160.453 386.376C159.6 385.885 158.922 385.208 158.421 384.344C157.93 383.48 157.685 382.499 157.685 381.4Z" fill="white"/>
<path d="M194.723 375.832V377.64H191.747V387H189.507V377.64H186.531V375.832H194.723Z" fill="white"/>
<path d="M207.941 387.112C206.896 387.112 205.936 386.867 205.061 386.376C204.187 385.885 203.493 385.208 202.981 384.344C202.469 383.469 202.213 382.483 202.213 381.384C202.213 380.296 202.469 379.32 202.981 378.456C203.493 377.581 204.187 376.899 205.061 376.408C205.936 375.917 206.896 375.672 207.941 375.672C208.997 375.672 209.957 375.917 210.821 376.408C211.696 376.899 212.384 377.581 212.885 378.456C213.397 379.32 213.653 380.296 213.653 381.384C213.653 382.483 213.397 383.469 212.885 384.344C212.384 385.208 211.696 385.885 210.821 386.376C209.947 386.867 208.986 387.112 207.941 387.112ZM207.941 385.112C208.613 385.112 209.205 384.963 209.717 384.664C210.229 384.355 210.629 383.917 210.917 383.352C211.205 382.787 211.349 382.131 211.349 381.384C211.349 380.637 211.205 379.987 210.917 379.432C210.629 378.867 210.229 378.435 209.717 378.136C209.205 377.837 208.613 377.688 207.941 377.688C207.269 377.688 206.672 377.837 206.149 378.136C205.637 378.435 205.237 378.867 204.949 379.432C204.661 379.987 204.517 380.637 204.517 381.384C204.517 382.131 204.661 382.787 204.949 383.352C205.237 383.917 205.637 384.355 206.149 384.664C206.672 384.963 207.269 385.112 207.941 385.112Z" fill="white"/>
<path d="M228.024 387L223.96 382.024V387H221.72V375.832H223.96V380.84L228.024 375.832H230.728L226.12 381.368L230.856 387H228.024Z" fill="white"/>
<path d="M240.969 377.64V380.44H244.729V382.216H240.969V385.176H245.209V387H238.729V375.816H245.209V377.64H240.969Z" fill="white"/>
<path d="M263.197 387H260.957L255.885 379.336V387H253.645V375.816H255.885L260.957 383.496V375.816H263.197V387Z" fill="white"/>
<defs>
<filter id="filter0_d_1507_1364" x="-13" y="-13" width="353" height="550" filterUnits="userSpaceOnUse" color-interpolation-filters="sRGB">
<feFlood flood-opacity="0" result="BackgroundImageFix"/>
<feColorMatrix in="SourceAlpha" type="matrix" values="0 0 0 0 0 0 0 0 0 0 0 0 0 0 0 0 0 0 127 0" result="hardAlpha"/>
<feOffset/>
<feGaussianBlur stdDeviation="16"/>
<feComposite in2="hardAlpha" operator="out"/>
<feColorMatrix type="matrix" values="0 0 0 0 0.576471 0 0 0 0 0.886275 0 0 0 0 0.831373 0 0 0 1 0"/>
<feBlend mode="normal" in2="BackgroundImageFix" result="effect1_dropShadow_1507_1364"/>
<feBlend mode="normal" in="SourceGraphic" in2="effect1_dropShadow_1507_1364" result="shape"/>
</filter>
<linearGradient id="paint0_linear_1507_1364" x1="187.5" y1="238.431" x2="187.5" y2="506.213" gradientUnits="userSpaceOnUse">
<stop stop-color="#FEAA7B"/>
<stop offset="1" stop-color="#FEAA7B" stop-opacity="0"/>
</linearGradient>
</defs>
</svg>
