<svg width="341" height="525" viewBox="0 0 341 525" fill="none" xmlns="http://www.w3.org/2000/svg">
<g filter="url(#filter0_d_1507_1365)">
<mask id="path-1-outside-1_1507_1365" maskUnits="userSpaceOnUse" x="32" y="19" width="289" height="486" fill="black">
<rect fill="white" x="32" y="19" width="289" height="486"/>
<path fill-rule="evenodd" clip-rule="evenodd" d="M36.5823 60.788C34.5619 61.158 33 62.8588 33 64.9128L33 310.023C33 310.377 33.2948 310.66 33.6493 310.66C42.6146 310.66 49.8824 317.921 49.8824 326.879C49.8824 335.837 42.6146 343.099 33.6493 343.099C33.2948 343.099 33 343.381 33 343.736V460.385C33 462.439 34.5617 464.14 36.5821 464.51C54.8097 467.847 69.1812 482.206 72.5222 500.419C72.8928 502.439 74.5934 504 76.6472 504H276.353C278.407 504 280.107 502.439 280.478 500.419C283.819 482.206 298.19 467.847 316.418 464.51C318.438 464.14 320 462.439 320 460.385V343.736C320 343.381 319.705 343.099 319.351 343.099C310.385 343.099 303.118 335.837 303.118 326.879C303.118 317.921 310.385 310.66 319.351 310.66C319.705 310.66 320 310.377 320 310.023V64.9128C320 62.8588 318.438 61.158 316.418 60.7881C297.799 57.379 283.203 42.4695 280.278 23.7001C279.954 21.627 278.232 20 276.134 20L76.8657 20C74.7675 20 73.0453 21.627 72.7222 23.7001C69.7968 42.4694 55.2013 57.3789 36.5823 60.788Z"/>
</mask>
<path fill-rule="evenodd" clip-rule="evenodd" d="M36.5823 60.788C34.5619 61.158 33 62.8588 33 64.9128L33 310.023C33 310.377 33.2948 310.66 33.6493 310.66C42.6146 310.66 49.8824 317.921 49.8824 326.879C49.8824 335.837 42.6146 343.099 33.6493 343.099C33.2948 343.099 33 343.381 33 343.736V460.385C33 462.439 34.5617 464.14 36.5821 464.51C54.8097 467.847 69.1812 482.206 72.5222 500.419C72.8928 502.439 74.5934 504 76.6472 504H276.353C278.407 504 280.107 502.439 280.478 500.419C283.819 482.206 298.19 467.847 316.418 464.51C318.438 464.14 320 462.439 320 460.385V343.736C320 343.381 319.705 343.099 319.351 343.099C310.385 343.099 303.118 335.837 303.118 326.879C303.118 317.921 310.385 310.66 319.351 310.66C319.705 310.66 320 310.377 320 310.023V64.9128C320 62.8588 318.438 61.158 316.418 60.7881C297.799 57.379 283.203 42.4695 280.278 23.7001C279.954 21.627 278.232 20 276.134 20L76.8657 20C74.7675 20 73.0453 21.627 72.7222 23.7001C69.7968 42.4694 55.2013 57.3789 36.5823 60.788Z" fill="url(#paint0_linear_1507_1365)"/>
<path d="M72.7222 23.7001L71.7341 23.5461L72.7222 23.7001ZM316.418 464.51L316.598 465.493L316.418 464.51ZM280.478 500.419L279.494 500.238L280.478 500.419ZM72.5222 500.419L71.5386 500.599L72.5222 500.419ZM36.5821 464.51L36.402 465.493L36.5821 464.51ZM280.278 23.7001L281.266 23.5461L280.278 23.7001ZM36.5823 60.788L36.4022 59.8044L36.5823 60.788ZM32 64.9128L32 310.023H34L34 64.9128H32ZM33.6493 311.66C42.0631 311.66 48.8824 318.474 48.8824 326.879H50.8824C50.8824 317.368 43.1661 309.66 33.6493 309.66V311.66ZM48.8824 326.879C48.8824 335.284 42.0631 342.099 33.6493 342.099V344.099C43.1661 344.099 50.8824 336.39 50.8824 326.879H48.8824ZM32 343.736V460.385H34V343.736H32ZM36.402 465.493C54.2213 468.756 68.2727 482.796 71.5386 500.599L73.5058 500.238C70.0897 481.617 55.3981 466.938 36.7622 463.526L36.402 465.493ZM76.6472 505H276.353V503H76.6472V505ZM281.461 500.599C284.727 482.796 298.779 468.756 316.598 465.493L316.238 463.526C297.602 466.938 282.91 481.617 279.494 500.238L281.461 500.599ZM321 460.385V343.736H319V460.385H321ZM319.351 342.099C310.937 342.099 304.118 335.284 304.118 326.879H302.118C302.118 336.39 309.834 344.099 319.351 344.099V342.099ZM304.118 326.879C304.118 318.474 310.937 311.66 319.351 311.66V309.66C309.834 309.66 302.118 317.368 302.118 326.879H304.118ZM321 310.023V64.9128H319V310.023H321ZM316.598 59.8044C298.395 56.4717 284.125 41.8937 281.266 23.5461L279.29 23.8541C282.281 43.0453 297.202 58.2863 316.238 61.7717L316.598 59.8044ZM276.134 19L76.8657 19V21L276.134 21V19ZM71.7341 23.5461C68.8745 41.8937 54.6044 56.4715 36.4022 59.8044L36.7624 61.7717C55.7982 58.2862 70.7191 43.0452 73.7102 23.8541L71.7341 23.5461ZM76.8657 19C74.2243 19 72.1251 21.0375 71.7341 23.5461L73.7102 23.8541C73.9655 22.2164 75.3107 21 76.8657 21V19ZM321 64.9128C321 62.3274 319.044 60.2522 316.598 59.8044L316.238 61.7717C317.833 62.0638 319 63.3903 319 64.9128H321ZM319.351 311.66C320.232 311.66 321 310.955 321 310.023H319C319 309.8 319.178 309.66 319.351 309.66V311.66ZM321 343.736C321 342.804 320.232 342.099 319.351 342.099V344.099C319.178 344.099 319 343.959 319 343.736H321ZM316.598 465.493C319.044 465.045 321 462.97 321 460.385H319C319 461.907 317.833 463.234 316.238 463.526L316.598 465.493ZM276.353 505C278.938 505 281.013 503.044 281.461 500.599L279.494 500.238C279.202 501.833 277.875 503 276.353 503V505ZM71.5386 500.599C71.9872 503.044 74.0621 505 76.6472 505V503C75.1248 503 73.7983 501.833 73.5058 500.238L71.5386 500.599ZM32 460.385C32 462.97 33.9561 465.045 36.402 465.493L36.7622 463.526C35.1673 463.234 34 461.907 34 460.385H32ZM32 310.023C32 310.955 32.7681 311.66 33.6493 311.66V309.66C33.8215 309.66 34 309.8 34 310.023H32ZM281.266 23.5461C280.875 21.0375 278.775 19 276.134 19V21C277.689 21 279.034 22.2164 279.29 23.8541L281.266 23.5461ZM33.6493 342.099C32.7681 342.099 32 342.804 32 343.736H34C34 343.959 33.8215 344.099 33.6493 344.099V342.099ZM34 64.9128C34 63.3903 35.1674 62.0637 36.7624 61.7717L36.4022 59.8044C33.9564 60.2522 32 62.3274 32 64.9128H34Z" fill="url(#paint1_linear_1507_1365)" mask="url(#path-1-outside-1_1507_1365)"/>
</g>
<mask id="mask0_1507_1365" style="mask-type:alpha" maskUnits="userSpaceOnUse" x="33" y="20" width="287" height="484">
<path fill-rule="evenodd" clip-rule="evenodd" d="M36.5827 60.7548C34.5621 61.1245 33 62.8255 33 64.8796L33 309.787C33 310.141 33.2948 310.423 33.6493 310.423C42.6145 310.423 49.8823 317.679 49.8823 326.63C49.8823 335.581 42.6145 342.837 33.6493 342.837C33.2948 342.837 33 343.119 33 343.473L33 460.024C33 462.078 34.5619 463.779 36.5824 464.148C54.809 467.483 69.1799 481.829 72.5218 500.026C72.8927 502.046 74.5933 503.607 76.6469 503.607H276.353C278.407 503.607 280.107 502.046 280.478 500.026C283.82 481.829 298.191 467.483 316.418 464.148C318.438 463.779 320 462.078 320 460.024L320 343.473C320 343.119 319.705 342.837 319.351 342.837C310.385 342.837 303.118 335.581 303.118 326.63C303.118 317.679 310.385 310.423 319.351 310.423C319.705 310.423 320 310.141 320 309.787V64.8796C320 62.8255 318.438 61.1245 316.417 60.7549C297.799 57.3485 283.204 42.4525 280.278 23.6998C279.955 21.6268 278.232 20 276.134 20L76.8655 20C74.7674 20 73.0452 21.6268 72.7217 23.6998C69.7954 42.4525 55.2006 57.3485 36.5827 60.7548Z" fill="#FBF6ED"/>
</mask>
<g mask="url(#mask0_1507_1365)">
<g opacity="0.5">
<ellipse opacity="0.1" cx="158.8" cy="9.32973" rx="13.3824" ry="13.3606" fill="white"/>
<g opacity="0.5">
<path d="M160.259 244.058L225.037 235.696L280 503.261H121L160.259 244.058Z" fill="url(#paint2_linear_1507_1365)"/>
<ellipse cx="134.03" cy="135.509" rx="7.94998" ry="7.93707" fill="white"/>
<ellipse cx="219.89" cy="135.509" rx="7.94998" ry="7.93707" fill="white"/>
<path fill-rule="evenodd" clip-rule="evenodd" d="M202.13 235.516L183.32 239.34L188.32 263.858L188.379 263.846L191.441 277.999L222.524 271.297L221.034 264.406C219.633 257.929 213.245 253.81 206.766 255.207L206.171 255.335L202.13 235.516Z" fill="white"/>
<rect width="19.1946" height="20.4062" transform="matrix(0.979959 -0.199201 0.199824 0.979832 183.32 239.34)" fill="url(#paint3_linear_1507_1365)"/>
<path fill-rule="evenodd" clip-rule="evenodd" d="M153.339 235.503L172.149 239.327L167.149 263.845L167.09 263.833L164.028 277.986L132.945 271.284L134.435 264.393C135.836 257.916 142.224 253.797 148.703 255.194L149.298 255.322L153.339 235.503Z" fill="white"/>
<rect width="19.1946" height="20.1689" transform="matrix(-0.979959 -0.199201 -0.199824 0.979832 172.149 239.327)" fill="url(#paint4_linear_1507_1365)"/>
<rect x="154.7" y="175.195" width="69.9598" height="66.6713" rx="6" fill="url(#paint5_linear_1507_1365)"/>
<path fill-rule="evenodd" clip-rule="evenodd" d="M177.102 95.2405C184.443 93.0368 188.626 85.2939 186.422 77.9529C182.469 79.1397 179.432 81.9327 177.814 85.4043C177.148 84.0228 176.137 82.7828 174.805 81.8228C171.722 86.088 172.687 92.0429 176.957 95.12C176.984 95.0836 177.01 95.0472 177.035 95.0106C177.057 95.0873 177.079 95.1639 177.102 95.2405Z" fill="#FEAA7B"/>
<path fill-rule="evenodd" clip-rule="evenodd" d="M176.96 172.02C196.279 172.02 211.94 156.384 211.94 137.097C211.94 117.809 196.279 102.174 176.96 102.174C157.641 102.174 141.98 117.809 141.98 137.097C141.98 156.384 157.641 172.02 176.96 172.02ZM176.96 181.544C201.548 181.544 221.48 161.644 221.48 137.097C221.48 112.549 201.548 92.6491 176.96 92.6491C152.372 92.6491 132.44 112.549 132.44 137.097C132.44 161.644 152.372 181.544 176.96 181.544Z" fill="white"/>
<rect x="142" y="172.02" width="69.9598" height="73.021" rx="6" fill="white"/>
<rect width="19.9739" height="29.9905" transform="matrix(0.442708 -0.896666 0.897236 0.441552 117 187.713)" fill="white"/>
<ellipse cx="116" cy="175.794" rx="12" ry="11.9805" fill="white"/>
<rect width="19.9739" height="29.9905" transform="matrix(-0.442708 -0.896666 -0.897236 0.441552 236.751 187.713)" fill="white"/>
<ellipse rx="12" ry="11.9805" transform="matrix(-1 0 0 1 237.751 175.794)" fill="white"/>
<rect x="153" y="191.069" width="48" height="19.9675" rx="2" fill="url(#paint6_linear_1507_1365)"/>
<path fill-rule="evenodd" clip-rule="evenodd" d="M211.363 143.446C208.372 159.702 194.107 172.02 176.96 172.02C159.813 172.02 145.548 159.702 142.557 143.446H132.891C135.977 164.986 154.532 181.544 176.96 181.544C199.388 181.544 217.943 164.986 221.029 143.446L211.363 143.446Z" fill="url(#paint7_linear_1507_1365)"/>
<ellipse cx="176.496" cy="136.718" rx="35.8012" ry="35.7431" fill="#1F1D2E"/>
<path opacity="0.2" d="M194.488 167.429C202.711 162.689 208.711 154.882 211.168 145.726C213.626 136.57 212.339 126.814 207.592 118.604C202.844 110.395 195.025 104.405 185.854 101.951C176.682 99.4978 166.911 100.782 158.688 105.522L176.588 136.475L194.488 167.429Z" fill="white"/>
</g>
<circle r="21.8184" transform="matrix(-0.707681 0.706532 -0.707681 -0.706532 64.3637 57.9445)" fill="white"/>
<circle r="14.7855" transform="matrix(-0.707681 0.706532 -0.707681 -0.706532 134.919 57.0393)" fill="white"/>
<path fill-rule="evenodd" clip-rule="evenodd" d="M180.327 11.0387C185.415 9.67735 190.646 12.6924 192.01 17.7729C193.373 22.8535 190.353 28.0757 185.264 29.437C180.176 30.7983 174.945 27.7833 173.581 22.7028C172.218 17.6222 175.238 12.4 180.327 11.0387ZM178.137 2.87943C187.739 0.310657 197.609 5.99988 200.182 15.5867C202.755 25.1735 197.057 35.0275 187.454 37.5963C177.852 40.165 167.982 34.4758 165.409 24.889C162.836 15.3022 168.534 5.4482 178.137 2.87943Z" fill="white"/>
</g>
<line x1="297" y1="327.501" x2="43" y2="327.501" stroke="url(#paint8_linear_1507_1365)" stroke-width="2" stroke-dasharray="10 10"/>
<path fill-rule="evenodd" clip-rule="evenodd" d="M259 493.23L259 463.279L256 463.279L256 493.23L259 493.23ZM252 493.23L252 463.279L249 463.279L249 493.23L252 493.23ZM245 463.279L245 493.23L242 493.23L242 463.279L245 463.279ZM238 493.23L238 463.279L235 463.279L235 493.23L238 493.23ZM231 463.279L231 493.23L228 493.23L228 463.279L231 463.279ZM224 493.23L224 463.279L221 463.279L221 493.23L224 493.23ZM217 463.279L217 493.23L214 493.23L214 463.279L217 463.279ZM210 493.23L210 463.279L207 463.279L207 493.23L210 493.23ZM203 463.279L203 493.23L200 493.23L200 463.279L203 463.279ZM196 493.23L196 463.279L193 463.279L193 493.23L196 493.23ZM189 463.279L189 493.23L186 493.23L186 463.279L189 463.279ZM182 493.23L182 463.279L179 463.279L179 493.23L182 493.23ZM175 463.279L175 493.23L172 493.23L172 463.279L175 463.279ZM168 493.23L168 463.279L165 463.279L165 493.23L168 493.23ZM161 463.279L161 493.23L158 493.23L158 463.279L161 463.279ZM154 493.23L154 463.279L151 463.279L151 493.23L154 493.23ZM147 463.279L147 493.23L144 493.23L144 463.279L147 463.279ZM140 493.23L140 463.279L137 463.279L137 493.23L140 493.23ZM133 463.279L133 493.23L130 493.23L130 463.279L133 463.279ZM126 493.23L126 463.279L123 463.279L123 493.23L126 493.23ZM119 463.279L119 493.23L116 493.23L116 463.279L119 463.279ZM112 493.23L112 463.279L109 463.279L109 493.23L112 493.23ZM105 463.279L105 493.23L102 493.23L102 463.279L105 463.279ZM98 493.23L98 463.279L95 463.279L95 493.23L98 493.23Z" fill="white"/>
</g>
<path d="M190.5 203.031H195.333C195.974 203.031 196.589 203.285 197.042 203.738C197.495 204.191 197.75 204.805 197.75 205.445V234.422C197.75 235.062 197.495 235.676 197.042 236.129C196.589 236.582 195.974 236.836 195.333 236.836H156.667C156.026 236.836 155.411 236.582 154.958 236.129C154.505 235.676 154.25 235.062 154.25 234.422V205.445C154.25 204.805 154.505 204.191 154.958 203.738C155.411 203.285 156.026 203.031 156.667 203.031H161.5V200.616C161.5 196.773 163.028 193.088 165.747 190.371C168.466 187.654 172.154 186.128 176 186.128C179.846 186.128 183.534 187.654 186.253 190.371C188.972 193.088 190.5 196.773 190.5 200.616V203.031ZM173.583 221.701V227.178H178.417V221.701C179.338 221.17 180.058 220.349 180.465 219.367C180.873 218.385 180.944 217.296 180.669 216.269C180.393 215.242 179.786 214.334 178.942 213.687C178.098 213.04 177.064 212.689 176 212.689C174.936 212.689 173.902 213.04 173.058 213.687C172.214 214.334 171.607 215.242 171.331 216.269C171.056 217.296 171.127 218.385 171.535 219.367C171.942 220.349 172.662 221.17 173.583 221.701ZM185.667 203.031V200.616C185.667 198.054 184.648 195.597 182.835 193.786C181.023 191.975 178.564 190.957 176 190.957C173.436 190.957 170.977 191.975 169.165 193.786C167.352 195.597 166.333 198.054 166.333 200.616V203.031H185.667Z" fill="white"/>
<path d="M111.198 431.481L112.639 420.873H112.991L114.432 431.481H120.918L121.991 406.295H116.418L117.139 426.441H116.594L114.625 412.952H111.022L109.036 426.441H108.491L109.211 406.295H103.639L104.711 431.481H111.198Z" fill="white"/>
<path d="M131.535 425.369C131.535 427.178 131.236 428.074 130.638 428.057C129.847 428.074 129.426 426.388 129.373 423.033H136.035L136.176 422.7C136.369 422.225 136.58 420.855 136.58 419.257C136.58 416.658 136.053 414.69 134.98 413.338C133.908 412.003 132.519 411.336 130.814 411.336C128.793 411.336 127.158 412.179 125.892 413.883C124.609 415.586 123.976 418.168 123.976 421.593C123.976 425.018 124.609 427.582 125.892 429.286C127.158 430.99 128.793 431.833 130.814 431.833C132.344 431.833 133.627 431.288 134.664 430.217C135.701 429.146 136.211 427.758 136.211 426.089C136.211 425.492 136.158 425.018 136.035 424.649H131.535V425.369ZM129.373 420.153C129.426 418.73 129.513 417.641 129.672 416.851C129.812 416.078 129.953 415.586 130.111 415.393C130.252 415.2 130.428 415.112 130.638 415.112C131.236 415.112 131.535 416.5 131.535 419.257V420.153H129.373Z" fill="white"/>
<path d="M144.331 427.547C144.19 427.336 144.067 426.739 143.944 425.756C143.821 424.772 143.769 423.385 143.769 421.575C143.769 419.784 143.821 418.396 143.944 417.413C144.067 416.429 144.19 415.832 144.331 415.604C144.595 415.182 145.105 415.182 145.368 415.604C145.491 415.832 145.632 416.429 145.755 417.413C145.878 418.396 145.931 419.784 145.931 421.575C145.931 423.385 145.878 424.772 145.755 425.756C145.632 426.739 145.491 427.336 145.368 427.547C145.105 427.986 144.595 427.986 144.331 427.547ZM142.151 431.481L142.679 427.161H143.048L143.364 428.32C143.558 429.11 143.98 429.883 144.595 430.656C145.21 431.446 145.966 431.833 146.827 431.833C148.005 431.833 149.042 431.007 149.956 429.356C150.87 427.705 151.327 425.123 151.327 421.593C151.327 418.063 150.87 415.481 149.956 413.812C149.042 412.161 148.005 411.336 146.827 411.336C145.773 411.336 144.753 412.126 144.261 412.952C143.997 413.356 143.769 413.83 143.558 414.374C143.118 415.446 143.101 415.779 143.048 416.008H142.503L143.769 411.336V406.295H138.724V431.481H142.151Z" fill="white"/>
<path d="M153.366 422.77C153.278 423.121 153.119 424.034 153.119 425C153.119 427.126 153.7 428.812 154.86 430.094C156.02 431.376 157.479 432.026 159.237 432.026C161.205 432.026 162.805 431.288 164.053 429.795C165.284 428.32 165.899 426.247 165.899 423.56C165.899 421.013 165.266 419.029 164.018 417.606C162.752 416.183 161.1 415.481 159.061 415.481V415.112L162.119 414.568L165.354 410.44V406.295H153.471V410.984H159.412L155.633 415.832V420.328H156.354L156.53 420.188C156.828 419.995 157.426 419.784 157.971 419.784C158.762 419.784 159.36 420.047 159.746 420.592C160.116 421.136 160.309 422.12 160.309 423.56C160.309 424.79 160.256 425.738 160.168 426.388C160.08 427.055 159.957 427.477 159.834 427.635C159.694 427.793 159.518 427.881 159.307 427.881C158.657 427.881 158.34 426.915 158.34 425V422.489H153.471L153.366 422.77Z" fill="white"/>
<path d="M174.634 423.349C174.493 423.753 174.352 424.755 174.352 425.721C174.352 427.617 174.933 429.146 176.075 430.287C177.218 431.446 178.747 432.026 180.645 432.026C182.474 432.026 183.985 431.394 185.181 430.129C186.358 428.882 186.956 427.231 186.956 425.194C186.956 422.647 185.831 420.346 184.425 418.748C182.368 416.429 179.714 414.251 179.749 411.705C179.749 410.616 180.048 410.071 180.645 410.071C181.366 410.089 181.735 411.107 181.735 413.145V414.761H186.587L186.657 414.497C186.815 414.128 186.956 413.285 186.956 412.425C186.956 410.458 186.358 408.859 185.181 407.612C183.985 406.383 182.474 405.768 180.663 405.768C178.835 405.768 177.323 406.4 176.145 407.682C174.95 408.965 174.352 410.668 174.352 412.776C174.352 413.988 174.599 415.147 175.091 416.236C175.583 417.343 176.181 418.273 176.901 419.064C178.94 421.365 181.595 423.525 181.559 426.089C181.542 427.161 181.243 427.705 180.645 427.705C179.925 427.705 179.573 426.687 179.573 424.649V423.033H174.704L174.634 423.349Z" fill="white"/>
<path d="M194.707 427.547C194.567 427.336 194.444 426.739 194.32 425.756C194.197 424.772 194.145 423.385 194.145 421.575C194.145 419.784 194.197 418.396 194.32 417.413C194.444 416.429 194.567 415.832 194.707 415.604C194.971 415.182 195.481 415.182 195.744 415.604C195.867 415.832 196.008 416.429 196.131 417.413C196.254 418.396 196.307 419.784 196.307 421.575C196.307 423.385 196.254 424.772 196.131 425.756C196.008 426.739 195.867 427.336 195.744 427.547C195.481 427.986 194.971 427.986 194.707 427.547ZM194.145 437.963V431.833L192.879 427.161H193.424L193.74 428.32C193.934 429.11 194.356 429.883 194.971 430.656C195.586 431.446 196.342 431.833 197.203 431.833C198.381 431.833 199.418 431.007 200.332 429.356C201.246 427.705 201.703 425.123 201.703 421.593C201.703 418.063 201.246 415.481 200.332 413.812C199.418 412.161 198.381 411.336 197.203 411.336C196.149 411.336 195.129 412.126 194.637 412.952C194.373 413.356 194.145 413.83 193.934 414.374C193.494 415.446 193.477 415.779 193.424 416.008H192.879L194.145 412.056V411.705H189.1V437.963H194.145Z" fill="white"/>
<path d="M208.347 425.896C208.347 424.474 208.646 423.753 209.261 423.753C209.859 423.753 210.158 424.474 210.158 425.896C210.158 427.336 209.859 428.057 209.261 428.057C208.646 428.057 208.347 427.336 208.347 425.896ZM216.451 431.481V431.13L216.205 431.042C215.906 430.99 215.554 430.375 215.554 429.321V418.537C215.554 413.742 213.568 411.336 209.613 411.336C208.031 411.336 206.712 411.828 205.64 412.829C204.568 413.83 204.023 415.007 204.023 416.377C204.04 417.343 204.164 418.063 204.392 418.537H208.892V417.272C208.892 415.832 209.156 415.112 209.683 415.112C210.228 415.112 210.509 415.832 210.509 417.272V419.977L211.775 424.649H211.23L210.949 423.49C210.773 422.7 210.369 421.927 209.753 421.136C209.138 420.364 208.365 419.977 207.451 419.977C206.308 419.977 205.324 420.504 204.515 421.54C203.706 422.577 203.302 424.034 203.302 425.896C203.302 427.776 203.706 429.233 204.515 430.27C205.324 431.306 206.308 431.833 207.451 431.833C208.593 431.833 209.595 431.025 210.105 430.217C210.351 429.813 210.58 429.339 210.773 428.794C211.16 427.705 211.177 427.389 211.23 427.161H211.775L210.509 431.481H216.451Z" fill="white"/>
<path d="M225.274 424.649C225.274 426.932 224.975 428.074 224.378 428.057C223.534 428.057 223.112 425.896 223.112 421.575C223.112 417.272 223.534 415.112 224.378 415.112C224.975 415.112 225.274 416.254 225.274 418.537V419.784H229.774L229.844 419.538C229.985 419.257 230.126 418.414 230.126 417.448C230.126 415.586 229.616 414.093 228.579 412.987C227.542 411.88 226.206 411.336 224.553 411.336C222.532 411.336 220.897 412.179 219.632 413.883C218.348 415.586 217.716 418.168 217.716 421.593C217.716 425.018 218.348 427.582 219.632 429.286C220.897 430.99 222.532 431.833 224.553 431.833C226.206 431.833 227.542 431.288 228.579 430.182C229.616 429.075 230.126 427.6 230.126 425.721C230.126 424.649 230.003 423.859 229.774 423.385H225.274V424.649Z" fill="white"/>
<path d="M239.494 425.369C239.494 427.178 239.195 428.074 238.598 428.057C237.807 428.074 237.385 426.388 237.332 423.033H243.994L244.135 422.7C244.328 422.225 244.539 420.855 244.539 419.257C244.539 416.658 244.012 414.69 242.939 413.338C241.867 412.003 240.479 411.336 238.773 411.336C236.752 411.336 235.117 412.179 233.852 413.883C232.568 415.586 231.936 418.168 231.936 421.593C231.936 425.018 232.568 427.582 233.852 429.286C235.117 430.99 236.752 431.833 238.773 431.833C240.303 431.833 241.586 431.288 242.623 430.217C243.66 429.146 244.17 427.758 244.17 426.089C244.17 425.492 244.117 425.018 243.994 424.649H239.494V425.369ZM237.332 420.153C237.385 418.73 237.473 417.641 237.631 416.851C237.772 416.078 237.912 415.586 238.07 415.393C238.211 415.2 238.387 415.112 238.598 415.112C239.195 415.112 239.494 416.5 239.494 419.257V420.153H237.332Z" fill="white"/>
<path d="M246.577 425.036C246.49 425.334 246.331 426.037 246.331 426.81C246.331 428.302 246.876 429.497 247.949 430.428C249.021 431.359 250.533 431.833 252.449 431.833C254.329 431.833 255.806 431.306 256.913 430.252C258.021 429.198 258.566 427.811 258.566 426.089C258.566 424.86 258.197 423.736 257.441 422.7C256.685 421.663 255.859 420.855 254.962 420.258C254.066 419.661 253.257 418.994 252.501 418.273C251.745 417.553 251.359 416.868 251.359 416.201C251.359 415.481 251.798 415.112 252.343 415.112C253.011 415.112 253.345 415.779 253.345 417.097V418.168H257.845L257.95 417.957C258.038 417.676 258.214 417.009 258.214 416.377C258.214 414.884 257.687 413.672 256.632 412.741C255.577 411.81 254.118 411.336 252.273 411.336C250.497 411.336 249.056 411.845 247.966 412.864C246.876 413.883 246.331 415.165 246.331 416.728C246.331 417.659 246.507 418.537 246.859 419.327C247.544 420.943 248.617 421.909 249.847 422.945C250.462 423.455 251.025 423.911 251.534 424.28C252.572 425.053 253.345 426.019 253.345 426.985C253.345 427.705 252.923 428.057 252.378 428.057C251.552 428.057 251.183 427.547 251.183 425.914V424.825H246.683L246.577 425.036Z" fill="white"/>
<path d="M117.099 376.149L120.123 385.086L123.163 376.149H125.579L121.579 387.436H118.683L114.683 376.149H117.099Z" fill="url(#paint9_linear_1507_1365)"/>
<path d="M135.452 376.149V387.436H133.196V376.149H135.452Z" fill="url(#paint10_linear_1507_1365)"/>
<path d="M146.149 383.247V387.436H143.893V376.149H148.005C149.338 376.149 150.341 376.469 151.013 377.108C151.696 377.748 152.037 378.617 152.037 379.714C152.037 380.791 151.685 381.649 150.981 382.288C150.288 382.928 149.296 383.247 148.005 383.247H146.149ZM147.765 381.441C149.088 381.441 149.749 380.865 149.749 379.714C149.749 379.149 149.594 378.718 149.285 378.419C148.976 378.121 148.469 377.972 147.765 377.972H146.149V381.441H147.765Z" fill="url(#paint11_linear_1507_1365)"/>
<path d="M177.467 376.149V377.94H174.347V387.436H172.091V377.94H168.987V376.149H177.467Z" fill="url(#paint12_linear_1507_1365)"/>
<path d="M190.405 375.989C191.461 375.989 192.415 376.234 193.269 376.725C194.133 377.215 194.81 377.902 195.301 378.787C195.802 379.661 196.053 380.652 196.053 381.761C196.053 382.869 195.802 383.866 195.301 384.75C194.81 385.635 194.133 386.322 193.269 386.813C192.415 387.303 191.461 387.548 190.405 387.548C189.349 387.548 188.389 387.303 187.525 386.813C186.671 386.322 185.994 385.635 185.493 384.75C185.002 383.866 184.757 382.869 184.757 381.761C184.757 380.652 185.002 379.661 185.493 378.787C185.994 377.902 186.671 377.215 187.525 376.725C188.389 376.234 189.349 375.989 190.405 375.989ZM190.405 378.068C189.743 378.068 189.162 378.217 188.661 378.515C188.159 378.814 187.765 379.245 187.477 379.81C187.199 380.364 187.061 381.015 187.061 381.761C187.061 382.507 187.199 383.162 187.477 383.727C187.765 384.281 188.159 384.708 188.661 385.006C189.162 385.304 189.743 385.454 190.405 385.454C191.066 385.454 191.647 385.304 192.149 385.006C192.65 384.708 193.039 384.281 193.317 383.727C193.605 383.162 193.749 382.507 193.749 381.761C193.749 381.015 193.605 380.364 193.317 379.81C193.039 379.245 192.65 378.814 192.149 378.515C191.647 378.217 191.066 378.068 190.405 378.068Z" fill="url(#paint13_linear_1507_1365)"/>
<path d="M208.533 381.697L213.317 387.436H210.581L206.405 382.272V387.436H204.149V376.149H206.405V381.217L210.597 376.149H213.317L208.533 381.697Z" fill="url(#paint14_linear_1507_1365)"/>
<path d="M223.227 377.94V380.865H227.227V382.592H223.227V385.63H227.707V387.436H220.971V376.149H227.707V377.94H223.227Z" fill="url(#paint15_linear_1507_1365)"/>
<path d="M245.345 387.436H243.089L238.033 379.762V387.436H235.777V376.149H238.033L243.089 383.887V376.149H245.345V387.436Z" fill="url(#paint16_linear_1507_1365)"/>
<defs>
<filter id="filter0_d_1507_1365" x="0" y="-13" width="353" height="550" filterUnits="userSpaceOnUse" color-interpolation-filters="sRGB">
<feFlood flood-opacity="0" result="BackgroundImageFix"/>
<feColorMatrix in="SourceAlpha" type="matrix" values="0 0 0 0 0 0 0 0 0 0 0 0 0 0 0 0 0 0 127 0" result="hardAlpha"/>
<feOffset/>
<feGaussianBlur stdDeviation="16"/>
<feComposite in2="hardAlpha" operator="out"/>
<feColorMatrix type="matrix" values="0 0 0 0 0.845378 0 0 0 0 0.616807 0 0 0 0 0.253782 0 0 0 1 0"/>
<feBlend mode="normal" in2="BackgroundImageFix" result="effect1_dropShadow_1507_1365"/>
<feBlend mode="normal" in="SourceGraphic" in2="effect1_dropShadow_1507_1365" result="shape"/>
</filter>
<linearGradient id="paint0_linear_1507_1365" x1="176.5" y1="20" x2="176.5" y2="504" gradientUnits="userSpaceOnUse">
<stop stop-color="#D89D41"/>
<stop offset="0.46875" stop-color="#A2742A"/>
<stop offset="1" stop-color="#654511"/>
</linearGradient>
<linearGradient id="paint1_linear_1507_1365" x1="33" y1="301.758" x2="269.719" y2="303.273" gradientUnits="userSpaceOnUse">
<stop stop-color="#D18D21"/>
<stop offset="0.383082" stop-color="#F4EEE4"/>
<stop offset="1" stop-color="#D89D41"/>
</linearGradient>
<linearGradient id="paint2_linear_1507_1365" x1="126.52" y1="409.465" x2="273.897" y2="409.34" gradientUnits="userSpaceOnUse">
<stop stop-color="#D18D21"/>
<stop offset="0.510417" stop-color="white" stop-opacity="0"/>
<stop offset="1" stop-color="#D89D41"/>
</linearGradient>
<linearGradient id="paint3_linear_1507_1365" x1="8.0015e-09" y1="11.8793" x2="15.8308" y2="12.0401" gradientUnits="userSpaceOnUse">
<stop stop-color="#D18D21"/>
<stop offset="0.383082" stop-color="#F4EEE4"/>
<stop offset="1" stop-color="#D89D41"/>
</linearGradient>
<linearGradient id="paint4_linear_1507_1365" x1="8.0015e-09" y1="11.7412" x2="15.8308" y2="11.9039" gradientUnits="userSpaceOnUse">
<stop stop-color="#D18D21"/>
<stop offset="0.383082" stop-color="#F4EEE4"/>
<stop offset="1" stop-color="#D89D41"/>
</linearGradient>
<linearGradient id="paint5_linear_1507_1365" x1="154.7" y1="214.007" x2="212.398" y2="214.661" gradientUnits="userSpaceOnUse">
<stop stop-color="#D18D21"/>
<stop offset="0.383082" stop-color="#F4EEE4"/>
<stop offset="1" stop-color="#D89D41"/>
</linearGradient>
<linearGradient id="paint6_linear_1507_1365" x1="153" y1="202.693" x2="192.566" y2="203.72" gradientUnits="userSpaceOnUse">
<stop stop-color="#D18D21"/>
<stop offset="0.383082" stop-color="#F4EEE4"/>
<stop offset="1" stop-color="#D89D41"/>
</linearGradient>
<linearGradient id="paint7_linear_1507_1365" x1="132.891" y1="165.625" x2="205.545" y2="167.44" gradientUnits="userSpaceOnUse">
<stop stop-color="#D18D21"/>
<stop offset="0.383082" stop-color="#F4EEE4"/>
<stop offset="1" stop-color="#D89D41"/>
</linearGradient>
<linearGradient id="paint8_linear_1507_1365" x1="288.181" y1="325.852" x2="80.1539" y2="401.356" gradientUnits="userSpaceOnUse">
<stop stop-color="#D18D21"/>
<stop offset="0.453125" stop-color="#D59632"/>
<stop offset="0.9999" stop-color="#D89D41"/>
<stop offset="1" stop-color="white" stop-opacity="0"/>
</linearGradient>
<linearGradient id="paint9_linear_1507_1365" x1="114.683" y1="382.718" x2="220.876" y2="395.682" gradientUnits="userSpaceOnUse">
<stop stop-color="#D18D21"/>
<stop offset="0.383082" stop-color="#F4EEE4"/>
<stop offset="1" stop-color="#D89D41"/>
</linearGradient>
<linearGradient id="paint10_linear_1507_1365" x1="114.683" y1="382.718" x2="220.876" y2="395.682" gradientUnits="userSpaceOnUse">
<stop stop-color="#D18D21"/>
<stop offset="0.383082" stop-color="#F4EEE4"/>
<stop offset="1" stop-color="#D89D41"/>
</linearGradient>
<linearGradient id="paint11_linear_1507_1365" x1="114.683" y1="382.718" x2="220.876" y2="395.682" gradientUnits="userSpaceOnUse">
<stop stop-color="#D18D21"/>
<stop offset="0.383082" stop-color="#F4EEE4"/>
<stop offset="1" stop-color="#D89D41"/>
</linearGradient>
<linearGradient id="paint12_linear_1507_1365" x1="114.683" y1="382.718" x2="220.876" y2="395.682" gradientUnits="userSpaceOnUse">
<stop stop-color="#D18D21"/>
<stop offset="0.383082" stop-color="#F4EEE4"/>
<stop offset="1" stop-color="#D89D41"/>
</linearGradient>
<linearGradient id="paint13_linear_1507_1365" x1="114.683" y1="382.718" x2="220.876" y2="395.682" gradientUnits="userSpaceOnUse">
<stop stop-color="#D18D21"/>
<stop offset="0.383082" stop-color="#F4EEE4"/>
<stop offset="1" stop-color="#D89D41"/>
</linearGradient>
<linearGradient id="paint14_linear_1507_1365" x1="114.683" y1="382.718" x2="220.876" y2="395.682" gradientUnits="userSpaceOnUse">
<stop stop-color="#D18D21"/>
<stop offset="0.383082" stop-color="#F4EEE4"/>
<stop offset="1" stop-color="#D89D41"/>
</linearGradient>
<linearGradient id="paint15_linear_1507_1365" x1="114.683" y1="382.718" x2="220.876" y2="395.682" gradientUnits="userSpaceOnUse">
<stop stop-color="#D18D21"/>
<stop offset="0.383082" stop-color="#F4EEE4"/>
<stop offset="1" stop-color="#D89D41"/>
</linearGradient>
<linearGradient id="paint16_linear_1507_1365" x1="114.683" y1="382.718" x2="220.876" y2="395.682" gradientUnits="userSpaceOnUse">
<stop stop-color="#D18D21"/>
<stop offset="0.383082" stop-color="#F4EEE4"/>
<stop offset="1" stop-color="#D89D41"/>
</linearGradient>
</defs>
</svg>
