<svg width="453" height="588" viewBox="0 0 453 588" fill="none" xmlns="http://www.w3.org/2000/svg">
<g filter="url(#filter0_d_1508_1163)">
<mask id="path-1-outside-1_1508_1163" maskUnits="userSpaceOnUse" x="20.7677" y="20.7631" width="411.764" height="546.832" fill="black">
<rect fill="white" x="20.7677" y="20.7631" width="411.764" height="546.832"/>
<path fill-rule="evenodd" clip-rule="evenodd" d="M147.614 62.1954C145.57 61.9941 143.6 63.1985 143.033 65.1729L75.472 300.788C75.3743 301.129 75.5799 301.481 75.9206 301.579C84.5386 304.05 89.5232 313.034 87.054 321.645C84.5849 330.256 75.597 335.233 66.979 332.762C66.6383 332.664 66.2771 332.854 66.1794 333.195L34.0266 445.325C33.4604 447.299 34.4928 449.365 36.333 450.277C52.9346 458.51 62.7914 476.274 60.9829 494.702C60.7824 496.746 61.9868 498.715 63.961 499.281L255.93 554.328C257.905 554.894 259.97 553.862 260.883 552.022C269.114 535.436 286.887 525.594 305.328 527.411C307.373 527.612 309.343 526.407 309.909 524.433L342.061 412.303C342.159 411.962 341.954 411.61 341.613 411.512C332.995 409.041 328.01 400.057 330.479 391.446C332.949 382.835 341.936 377.858 350.554 380.329C350.895 380.426 351.256 380.236 351.354 379.896L418.916 144.281C419.482 142.306 418.449 140.241 416.609 139.328C399.651 130.919 389.73 112.564 392.092 93.7157C392.352 91.6338 391.145 89.5952 389.129 89.0168L197.579 34.091C195.563 33.5127 193.459 34.6019 192.577 36.5057C184.591 53.7416 166.451 64.0504 147.614 62.1954Z"/>
</mask>
<path fill-rule="evenodd" clip-rule="evenodd" d="M147.614 62.1954C145.57 61.9941 143.6 63.1985 143.033 65.1729L75.472 300.788C75.3743 301.129 75.5799 301.481 75.9206 301.579C84.5386 304.05 89.5232 313.034 87.054 321.645C84.5849 330.256 75.597 335.233 66.979 332.762C66.6383 332.664 66.2771 332.854 66.1794 333.195L34.0266 445.325C33.4604 447.299 34.4928 449.365 36.333 450.277C52.9346 458.51 62.7914 476.274 60.9829 494.702C60.7824 496.746 61.9868 498.715 63.961 499.281L255.93 554.328C257.905 554.894 259.97 553.862 260.883 552.022C269.114 535.436 286.887 525.594 305.328 527.411C307.373 527.612 309.343 526.407 309.909 524.433L342.061 412.303C342.159 411.962 341.954 411.61 341.613 411.512C332.995 409.041 328.01 400.057 330.479 391.446C332.949 382.835 341.936 377.858 350.554 380.329C350.895 380.426 351.256 380.236 351.354 379.896L418.916 144.281C419.482 142.306 418.449 140.241 416.609 139.328C399.651 130.919 389.73 112.564 392.092 93.7157C392.352 91.6338 391.145 89.5952 389.129 89.0168L197.579 34.091C195.563 33.5127 193.459 34.6019 192.577 36.5057C184.591 53.7416 166.451 64.0504 147.614 62.1954Z" fill="url(#paint0_linear_1508_1163)"/>
<path d="M192.577 36.5057L191.669 36.0853L192.577 36.5057ZM305.328 527.411L305.23 528.406L305.328 527.411ZM255.93 554.328L255.655 555.289L255.93 554.328ZM260.883 552.022L259.987 551.578L260.883 552.022ZM63.961 499.281L64.2366 498.32L63.961 499.281ZM36.333 450.277L35.8887 451.173L36.333 450.277ZM392.092 93.7157L393.084 93.84L392.092 93.7157ZM147.614 62.1954L147.712 61.2002L147.614 62.1954ZM142.072 64.8973L74.5107 300.512L76.4332 301.063L143.995 65.4486L142.072 64.8973ZM75.645 302.54C83.7328 304.859 88.4095 313.29 86.0928 321.369L88.0153 321.92C90.6369 312.778 85.3444 303.241 76.1963 300.618L75.645 302.54ZM86.0928 321.369C83.7761 329.448 75.3425 334.12 67.2547 331.801L66.7034 333.723C75.8515 336.346 85.3937 331.063 88.0153 321.92L86.0928 321.369ZM65.2181 332.919L33.0653 445.049L34.9879 445.601L67.1406 333.471L65.2181 332.919ZM35.8887 451.173C52.1185 459.221 61.7556 476.59 59.9877 494.604L61.9782 494.799C63.8273 475.958 53.7507 457.798 36.7772 449.381L35.8887 451.173ZM63.6853 500.243L255.655 555.289L256.206 553.366L64.2366 498.32L63.6853 500.243ZM261.778 552.467C269.825 536.253 287.202 526.63 305.23 528.406L305.426 526.415C286.572 524.559 268.403 534.619 259.987 551.578L261.778 552.467ZM310.87 524.709L343.023 412.579L341.1 412.027L308.947 524.157L310.87 524.709ZM341.888 410.551C333.801 408.231 329.124 399.801 331.441 391.721L329.518 391.17C326.897 400.313 332.189 409.85 341.337 412.473L341.888 410.551ZM331.441 391.721C333.757 383.642 342.191 378.971 350.279 381.29L350.83 379.368C341.682 376.744 332.14 382.028 329.518 391.17L331.441 391.721ZM352.315 380.171L419.877 144.557L417.954 144.005L350.393 379.62L352.315 380.171ZM417.053 138.433C400.475 130.212 390.775 112.265 393.084 93.84L391.099 93.5914C388.685 112.864 398.827 131.627 416.165 140.224L417.053 138.433ZM389.404 88.0556L197.855 33.1298L197.304 35.0523L388.853 89.9781L389.404 88.0556ZM191.669 36.0853C183.863 52.9339 166.128 63.0137 147.712 61.2002L147.516 63.1906C166.775 65.0871 185.319 54.5493 193.484 36.9261L191.669 36.0853ZM197.855 33.1298C195.316 32.4017 192.737 33.7817 191.669 36.0853L193.484 36.9261C194.181 35.4221 195.809 34.6237 197.304 35.0523L197.855 33.1298ZM419.877 144.557C420.589 142.071 419.281 139.537 417.053 138.433L416.165 140.224C417.617 140.945 418.374 142.542 417.954 144.005L419.877 144.557ZM350.279 381.29C351.126 381.533 352.058 381.067 352.315 380.171L350.393 379.62C350.454 379.406 350.664 379.32 350.83 379.368L350.279 381.29ZM343.023 412.579C343.28 411.683 342.736 410.793 341.888 410.551L341.337 412.473C341.172 412.426 341.039 412.242 341.1 412.027L343.023 412.579ZM305.23 528.406C307.705 528.649 310.157 527.194 310.87 524.709L308.947 524.157C308.528 525.621 307.04 526.574 305.426 526.415L305.23 528.406ZM255.655 555.289C258.14 556.002 260.673 554.694 261.778 552.467L259.987 551.578C259.266 553.03 257.669 553.786 256.206 553.366L255.655 555.289ZM59.9877 494.604C59.7449 497.078 61.2004 499.53 63.6853 500.243L64.2366 498.32C62.7732 497.901 61.8198 496.413 61.9782 494.799L59.9877 494.604ZM33.0653 445.049C32.3527 447.535 33.661 450.069 35.8887 451.173L36.7772 449.381C35.3246 448.661 34.5682 447.064 34.9879 445.601L33.0653 445.049ZM74.5107 300.512C74.2538 301.408 74.7979 302.297 75.645 302.54L76.1963 300.618C76.3618 300.665 76.4947 300.849 76.4332 301.063L74.5107 300.512ZM393.084 93.84C393.4 91.3209 391.943 88.7836 389.404 88.0556L388.853 89.9781C390.348 90.4067 391.305 91.9467 391.099 93.5914L393.084 93.84ZM67.2547 331.801C66.4076 331.558 65.475 332.023 65.2181 332.919L67.1406 333.471C67.0792 333.685 66.8689 333.771 66.7034 333.723L67.2547 331.801ZM143.995 65.4486C144.414 63.985 145.902 63.0317 147.516 63.1906L147.712 61.2002C145.237 60.9565 142.785 62.412 142.072 64.8973L143.995 65.4486Z" fill="url(#paint1_linear_1508_1163)" mask="url(#path-1-outside-1_1508_1163)"/>
</g>
<mask id="mask0_1508_1163" style="mask-type:alpha" maskUnits="userSpaceOnUse" x="33" y="33" width="387" height="522">
<path fill-rule="evenodd" clip-rule="evenodd" d="M147.623 62.1636C145.579 61.962 143.609 63.1665 143.043 65.141L75.5371 300.561C75.4394 300.901 75.645 301.254 75.9857 301.352C84.6037 303.823 89.5899 312.801 87.1227 321.405C84.6556 330.009 75.6694 334.981 67.0514 332.509C66.7106 332.412 66.3495 332.602 66.2517 332.943L34.1261 444.978C33.5599 446.952 34.5925 449.018 36.4329 449.93C53.0343 458.16 62.894 475.911 61.0908 494.324C60.8907 496.368 62.095 498.337 64.0691 498.903L256.039 553.95C258.013 554.516 260.078 553.484 260.992 551.645C269.22 535.074 286.988 525.245 305.428 527.063C307.472 527.265 309.442 526.06 310.008 524.086L342.134 412.05C342.232 411.71 342.026 411.357 341.685 411.259C333.067 408.788 328.081 399.81 330.548 391.206C333.015 382.602 342.002 377.631 350.62 380.102C350.96 380.199 351.321 380.009 351.419 379.669L418.925 144.249C419.491 142.274 418.458 140.209 416.618 139.296C399.66 130.89 389.736 112.548 392.092 93.7156C392.353 91.6337 391.146 89.5952 389.129 89.0169L197.579 34.091C195.562 33.5127 193.459 34.6018 192.576 36.5053C184.594 53.7249 166.459 64.021 147.623 62.1636Z" fill="#FBF6ED"/>
</mask>
<g mask="url(#mask0_1508_1163)">
<g opacity="0.5">
<ellipse opacity="0.1" cx="279.281" cy="46.4181" rx="13.3824" ry="13.3606" transform="rotate(16 279.281 46.4181)" fill="white"/>
<g opacity="0.5">
<path d="M215.984 272.455L280.557 282.273L259.64 554.622L106.799 510.796L215.984 272.455Z" fill="url(#paint2_linear_1508_1163)"/>
<ellipse cx="220.691" cy="160.882" rx="7.94998" ry="7.93706" transform="rotate(16 220.691 160.882)" fill="white"/>
<ellipse cx="303.225" cy="184.548" rx="7.94998" ry="7.93706" transform="rotate(16 303.225 184.548)" fill="white"/>
<path fill-rule="evenodd" clip-rule="evenodd" d="M258.587 275.786L239.451 274.277L237.5 299.223L237.561 299.228L236.602 313.677L268.329 315.802L268.795 308.768C269.234 302.155 264.229 296.435 257.616 295.992L257.009 295.951L258.587 275.786Z" fill="white"/>
<rect width="19.1946" height="20.4062" transform="matrix(0.996904 0.0786285 -0.0779947 0.996954 239.451 274.277)" fill="url(#paint3_linear_1508_1163)"/>
<path fill-rule="evenodd" clip-rule="evenodd" d="M211.69 262.325L228.717 271.185L217.153 293.375L217.099 293.347L210.254 306.108L182.222 291.098L185.555 284.885C188.687 279.045 195.963 276.846 201.805 279.975L202.342 280.262L211.69 262.325Z" fill="white"/>
<rect width="19.1946" height="20.1689" transform="matrix(-0.887089 -0.461598 -0.462162 0.886796 228.717 271.185)" fill="url(#paint4_linear_1508_1163)"/>
<rect x="229.621" y="204.728" width="69.9598" height="66.6713" rx="6" transform="rotate(16 229.621 204.728)" fill="url(#paint5_linear_1508_1163)"/>
<path fill-rule="evenodd" clip-rule="evenodd" d="M273.194 134.046C280.858 133.951 287.013 127.661 286.918 119.997C282.791 120.048 279.101 121.895 276.59 124.787C276.33 123.275 275.701 121.805 274.685 120.515C270.545 123.765 269.832 129.755 273.088 133.89C273.123 133.862 273.158 133.834 273.193 133.806C273.193 133.886 273.193 133.966 273.194 134.046Z" fill="#FEAA7B"/>
<path fill-rule="evenodd" clip-rule="evenodd" d="M251.894 207.812C270.465 213.137 289.829 202.423 295.145 183.883C300.462 165.343 289.717 145.996 271.147 140.671C252.576 135.346 233.212 146.059 227.896 164.6C222.579 183.14 233.324 202.487 251.894 207.812ZM249.269 216.967C272.904 223.744 297.549 210.109 304.316 186.513C311.082 162.916 297.407 138.293 273.772 131.516C250.137 124.738 225.491 138.373 218.725 161.97C211.959 185.567 225.634 210.19 249.269 216.967Z" fill="white"/>
<rect x="218.288" y="198.175" width="69.9598" height="73.021" rx="6" transform="rotate(16 218.288 198.175)" fill="white"/>
<rect width="19.9739" height="29.9905" transform="matrix(0.672713 -0.739903 0.74077 0.671758 189.931 206.37)" fill="white"/>
<ellipse cx="192.255" cy="194.636" rx="12" ry="11.9805" transform="rotate(16 192.255 194.636)" fill="white"/>
<rect width="19.9739" height="29.9905" transform="matrix(-0.178404 -0.983957 -0.984186 0.177135 305.043 239.378)" fill="white"/>
<ellipse rx="12" ry="11.9805" transform="matrix(-0.961262 -0.275637 -0.275637 0.961262 309.29 228.196)" fill="white"/>
<rect x="223.611" y="219.518" width="48" height="19.9675" rx="2" transform="rotate(16 223.611 219.518)" fill="url(#paint6_linear_1508_1163)"/>
<path fill-rule="evenodd" clip-rule="evenodd" d="M292.84 189.828C285.485 204.63 268.377 212.538 251.894 207.812C235.411 203.085 225.094 187.313 226.7 170.862L217.408 168.198C214.438 189.754 227.709 210.785 249.269 216.967C270.828 223.149 293.228 212.347 302.132 192.492L292.84 189.828Z" fill="url(#paint7_linear_1508_1163)"/>
<ellipse cx="261.178" cy="173.75" rx="35.8012" ry="35.7431" transform="rotate(16 261.178 173.75)" fill="#1F1D2E"/>
<path opacity="0.2" d="M270.008 208.229C279.219 205.94 287.138 200.089 292.025 191.965C296.911 183.841 298.363 174.108 296.062 164.908C293.762 155.709 287.896 147.795 279.757 142.909C271.617 138.022 261.87 136.564 252.659 138.853L261.334 173.541L270.008 208.229Z" fill="white"/>
</g>
<circle r="21.8184" transform="matrix(-0.875014 0.484098 -0.48552 -0.874225 175.102 67.1196)" fill="white"/>
<circle r="14.7855" transform="matrix(-0.875014 0.484098 -0.48552 -0.874225 243.174 85.697)" fill="white"/>
<path fill-rule="evenodd" clip-rule="evenodd" d="M299.503 53.9945C304.77 54.0886 308.967 58.4286 308.877 63.6882C308.788 68.9477 304.445 73.1352 299.178 73.0411C293.911 72.9471 289.714 68.6071 289.804 63.3475C289.894 58.0879 294.236 53.9004 299.503 53.9945ZM299.647 45.5477C309.585 45.7252 317.505 53.9146 317.336 63.8392C317.167 73.7639 308.973 81.6654 299.034 81.4879C289.096 81.3104 281.176 73.121 281.345 63.1964C281.515 53.2718 289.708 45.3702 299.647 45.5477Z" fill="white"/>
</g>
<line x1="324.427" y1="390.357" x2="80.2671" y2="320.345" stroke="url(#paint8_linear_1508_1163)" stroke-width="2" stroke-dasharray="10 10"/>
<path fill-rule="evenodd" clip-rule="evenodd" d="M242.218 539.192L250.474 510.401L247.59 509.574L239.334 538.365L242.218 539.192ZM235.489 537.262L243.745 508.471L240.861 507.644L232.605 536.435L235.489 537.262ZM237.016 506.542L228.76 535.333L225.876 534.506L234.132 505.715L237.016 506.542ZM222.031 533.403L230.287 504.612L227.403 503.785L219.147 532.576L222.031 533.403ZM223.558 502.683L215.303 531.474L212.419 530.647L220.675 501.856L223.558 502.683ZM208.574 529.544L216.829 500.753L213.946 499.927L205.69 528.718L208.574 529.544ZM210.101 498.824L201.845 527.615L198.961 526.788L207.217 497.997L210.101 498.824ZM195.116 525.686L203.372 496.895L200.488 496.068L192.232 524.859L195.116 525.686ZM196.643 494.965L188.387 523.756L185.504 522.929L193.759 494.138L196.643 494.965ZM181.658 521.827L189.914 493.036L187.03 492.209L178.775 521L181.658 521.827ZM183.185 491.106L174.93 519.897L172.046 519.07L180.302 490.279L183.185 491.106ZM168.201 517.968L176.456 489.177L173.573 488.35L165.317 517.141L168.201 517.968ZM169.728 487.247L161.472 516.038L158.588 515.211L166.844 486.42L169.728 487.247ZM154.743 514.109L162.999 485.318L160.115 484.491L151.859 513.282L154.743 514.109ZM156.27 483.388L148.014 512.179L145.131 511.352L153.386 482.561L156.27 483.388ZM141.285 510.25L149.541 481.459L146.657 480.632L138.402 509.423L141.285 510.25ZM142.812 479.529L134.557 508.32L131.673 507.493L139.929 478.702L142.812 479.529ZM127.828 506.391L136.083 477.6L133.2 476.773L124.944 505.564L127.828 506.391ZM129.355 475.67L121.099 504.461L118.215 503.635L126.471 474.844L129.355 475.67ZM114.37 502.532L122.626 473.741L119.742 472.914L111.486 501.705L114.37 502.532ZM115.897 471.812L107.641 500.603L104.758 499.776L113.013 470.985L115.897 471.812ZM100.912 498.673L109.168 469.882L106.284 469.055L98.0287 497.846L100.912 498.673ZM102.439 467.953L94.1837 496.744L91.2999 495.917L99.5556 467.126L102.439 467.953ZM87.4548 494.814L95.7105 466.023L92.8267 465.196L84.571 493.987L87.4548 494.814Z" fill="white"/>
</g>
<g clip-path="url(#clip0_1508_1163)">
<path d="M256.362 241.353L261.009 242.685C261.625 242.862 262.145 243.276 262.456 243.836C262.767 244.397 262.843 245.057 262.666 245.673L254.679 273.527C254.502 274.142 254.088 274.663 253.528 274.973C252.967 275.283 252.306 275.358 251.69 275.182L214.522 264.524C213.905 264.347 213.385 263.933 213.074 263.373C212.763 262.813 212.688 262.152 212.864 261.536L220.851 233.683C221.028 233.067 221.442 232.547 222.002 232.236C222.563 231.926 223.224 231.851 223.84 232.028L228.486 233.36L229.151 231.039C230.211 227.345 232.695 224.224 236.058 222.361C239.421 220.499 243.387 220.048 247.083 221.108C250.78 222.168 253.904 224.652 255.769 228.014C257.634 231.375 258.087 235.338 257.028 239.032L256.362 241.353ZM234.955 254.638L233.445 259.902L238.091 261.234L239.601 255.97C240.633 255.713 241.552 255.123 242.214 254.291C242.876 253.459 243.245 252.432 243.263 251.369C243.281 250.306 242.948 249.266 242.315 248.411C241.682 247.557 240.785 246.934 239.762 246.641C238.739 246.348 237.648 246.4 236.658 246.789C235.669 247.179 234.835 247.884 234.287 248.795C233.74 249.706 233.508 250.773 233.629 251.829C233.75 252.885 234.216 253.873 234.955 254.638ZM251.716 240.021L252.382 237.7C253.088 235.237 252.786 232.595 251.543 230.354C250.3 228.113 248.217 226.457 245.752 225.751C243.288 225.044 240.644 225.344 238.402 226.586C236.16 227.828 234.504 229.908 233.798 232.371L233.132 234.692L251.716 240.021Z" fill="white"/>
</g>
<path d="M117.162 439.096L121.471 429.295L121.809 429.392L120.271 439.987L126.506 441.775L134.479 417.86L129.122 416.324L124.262 435.888L123.738 435.738L125.564 422.228L122.1 421.235L116.473 433.654L115.949 433.504L122.195 414.337L116.838 412.801L110.927 437.308L117.162 439.096Z" fill="white"/>
<path d="M138.396 438.826C137.897 440.565 137.363 441.344 136.793 441.162C136.028 440.961 136.087 439.224 136.961 435.984L143.365 437.821L143.592 437.539C143.909 437.136 144.489 435.877 144.93 434.341C145.646 431.842 145.682 429.806 145.024 428.21C144.361 426.632 143.21 425.607 141.571 425.137C139.628 424.58 137.824 424.94 136.138 426.229C134.435 427.513 133.115 429.82 132.171 433.113C131.227 436.405 131.128 439.044 131.892 441.036C132.639 443.022 133.978 444.283 135.921 444.84C137.391 445.262 138.775 445.092 140.067 444.348C141.359 443.604 142.232 442.411 142.692 440.807C142.856 440.233 142.936 439.762 142.92 439.374L138.594 438.134L138.396 438.826ZM137.755 433.216C138.198 431.863 138.583 430.84 138.953 430.124C139.301 429.42 139.572 428.986 139.777 428.844C139.965 428.697 140.158 428.661 140.361 428.719C140.936 428.884 140.841 430.3 140.08 432.95L139.834 433.811L137.755 433.216Z" fill="white"/>
<path d="M150.096 444.447C150.019 444.205 150.065 443.597 150.218 442.618C150.371 441.638 150.703 440.29 151.201 438.551C151.695 436.829 152.128 435.51 152.518 434.598C152.907 433.687 153.19 433.147 153.388 432.966C153.758 432.633 154.248 432.774 154.385 433.252C154.44 433.505 154.411 434.118 154.258 435.097C154.105 436.077 153.773 437.425 153.28 439.147C152.781 440.886 152.348 442.205 151.958 443.117C151.569 444.028 151.269 444.564 151.093 444.732C150.718 445.082 150.228 444.941 150.096 444.447ZM146.916 447.628L148.614 443.62L148.969 443.721L148.953 444.923C148.922 445.736 149.114 446.595 149.492 447.508C149.866 448.437 150.486 449.017 151.314 449.254C152.446 449.579 153.671 449.071 155.004 447.736C156.338 446.401 157.489 444.045 158.462 440.651C159.435 437.258 159.708 434.65 159.289 432.794C158.865 430.955 158.096 429.876 156.964 429.551C155.95 429.26 154.752 429.739 154.051 430.397C153.687 430.713 153.336 431.106 152.983 431.571C152.266 432.48 152.157 432.795 152.043 433L151.519 432.85L154.024 428.708L155.413 423.863L150.564 422.472L143.621 446.683L146.916 447.628Z" fill="white"/>
<path d="M160.097 442.344C159.916 442.658 159.512 443.492 159.246 444.421C158.66 446.464 158.753 448.244 159.515 449.797C160.276 451.349 161.5 452.376 163.189 452.86C165.082 453.403 166.823 453.135 168.434 452.044C170.024 450.965 171.186 449.142 171.927 446.559C172.629 444.111 172.568 442.028 171.76 440.317C170.936 438.6 169.541 437.47 167.581 436.908L167.683 436.553L170.773 436.873L175.02 433.797L176.162 429.812L164.74 426.537L163.447 431.045L169.158 432.682L164.189 436.301L162.95 440.623L163.643 440.821L163.85 440.735C164.191 440.631 164.823 440.594 165.347 440.744C166.108 440.962 166.609 441.38 166.831 442.01C167.036 442.635 166.951 443.634 166.554 445.018C166.215 446.2 165.903 447.097 165.639 447.698C165.371 448.315 165.136 448.686 164.974 448.804C164.796 448.917 164.602 448.953 164.4 448.895C163.774 448.716 163.737 447.7 164.264 445.86L164.957 443.446L160.276 442.103L160.097 442.344Z" fill="white"/>
<path d="M180.382 448.764C180.135 449.113 179.724 450.037 179.458 450.966C178.935 452.789 179.071 454.418 179.855 455.83C180.634 457.259 181.944 458.238 183.769 458.761C185.526 459.265 187.154 459.074 188.651 458.188C190.127 457.314 191.157 455.892 191.718 453.933C192.42 451.485 191.973 448.963 191.062 447.039C189.724 444.244 187.773 441.419 188.508 438.98C188.809 437.933 189.246 437.492 189.82 437.657C190.508 437.873 190.582 438.954 190.021 440.912L189.575 442.465L194.239 443.803L194.379 443.569C194.633 443.258 195.001 442.486 195.238 441.659C195.78 439.768 195.646 438.067 194.858 436.543C194.048 435.032 192.764 434.025 191.023 433.525C189.266 433.022 187.639 433.213 186.153 434.121C184.651 435.024 183.607 436.497 183.026 438.523C182.692 439.688 182.609 440.87 182.782 442.052C182.95 443.251 183.268 444.311 183.743 445.269C185.068 448.043 187.024 450.851 186.284 453.307C185.972 454.332 185.534 454.773 184.96 454.608C184.267 454.409 184.21 453.333 184.771 451.375L185.217 449.821L180.536 448.479L180.382 448.764Z" fill="white"/>
<path d="M198.52 458.332C198.443 458.091 198.49 457.483 198.643 456.503C198.795 455.524 199.127 454.176 199.626 452.437C200.12 450.715 200.553 449.395 200.942 448.484C201.332 447.572 201.614 447.032 201.813 446.851C202.182 446.519 202.672 446.659 202.809 447.137C202.865 447.391 202.835 448.003 202.683 448.983C202.53 449.962 202.198 451.31 201.704 453.033C201.205 454.772 200.772 456.091 200.383 457.002C199.994 457.914 199.694 458.449 199.517 458.618C199.143 458.967 198.653 458.827 198.52 458.332ZM195.109 468.189L196.798 462.297L196.87 457.457L197.393 457.607L197.378 458.808C197.346 459.621 197.539 460.481 197.917 461.393C198.291 462.322 198.911 462.902 199.739 463.14C200.871 463.464 202.095 462.957 203.429 461.622C204.763 460.286 205.914 457.931 206.887 454.537C207.86 451.143 208.132 448.536 207.713 446.68C207.29 444.841 206.52 443.761 205.388 443.437C204.375 443.146 203.177 443.625 202.476 444.283C202.111 444.598 201.761 444.991 201.408 445.456C200.69 446.365 200.581 446.681 200.468 446.886L199.944 446.736L202.25 443.286L202.347 442.948L197.497 441.558L190.259 466.798L195.109 468.189Z" fill="white"/>
<path d="M212.087 460.505C212.479 459.137 212.965 458.527 213.556 458.697C214.131 458.862 214.22 459.636 213.827 461.004C213.43 462.388 212.945 462.998 212.37 462.833C211.779 462.664 211.69 461.889 212.087 460.505ZM218.337 468.107L218.434 467.77L218.222 467.617C217.949 467.484 217.78 466.796 218.071 465.783L221.043 455.417C222.365 450.808 221.119 447.947 217.317 446.857C215.796 446.421 214.393 446.53 213.087 447.197C211.78 447.864 210.932 448.845 210.554 450.162C210.305 451.095 210.225 451.822 210.314 452.34L214.639 453.581L214.988 452.365C215.385 450.981 215.837 450.361 216.344 450.506C216.868 450.657 216.939 451.426 216.542 452.811L215.797 455.411L215.726 460.251L215.202 460.101L215.251 458.909C215.3 458.101 215.124 457.246 214.751 456.317C214.372 455.404 213.735 454.82 212.857 454.568C211.759 454.253 210.667 454.488 209.604 455.261C208.541 456.035 207.751 457.324 207.238 459.114C206.72 460.921 206.706 462.433 207.198 463.652C207.69 464.871 208.491 465.649 209.589 465.964C210.687 466.279 211.873 465.779 212.586 465.143C212.934 464.822 213.284 464.429 213.62 463.959C214.292 463.019 214.396 462.72 214.51 462.515L215.033 462.665L212.626 466.47L218.337 468.107Z" fill="white"/>
<path d="M228.702 463.972C228.073 466.167 227.471 467.182 226.901 467C226.09 466.767 226.28 464.574 227.471 460.421C228.657 456.285 229.658 454.324 230.469 454.557C231.044 454.722 231.016 455.901 230.387 458.096L230.043 459.295L234.369 460.535L234.504 460.318C234.717 460.087 235.084 459.315 235.351 458.387C235.864 456.597 235.785 455.021 235.093 453.672C234.401 452.322 233.267 451.431 231.679 450.975C229.736 450.418 227.932 450.778 226.246 452.067C224.543 453.351 223.223 455.658 222.279 458.951C221.335 462.243 221.236 464.882 222 466.874C222.747 468.86 224.086 470.121 226.029 470.678C227.618 471.134 229.052 470.979 230.354 470.201C231.656 469.423 232.552 468.145 233.07 466.339C233.366 465.309 233.465 464.515 233.376 463.996L229.051 462.756L228.702 463.972Z" fill="white"/>
<path d="M242.173 468.583C241.674 470.322 241.14 471.101 240.57 470.92C239.805 470.718 239.864 468.981 240.738 465.742L247.142 467.578L247.369 467.296C247.686 466.894 248.266 465.635 248.707 464.099C249.424 461.6 249.459 459.564 248.801 457.968C248.138 456.389 246.987 455.365 245.348 454.895C243.405 454.338 241.601 454.698 239.915 455.986C238.212 457.27 236.892 459.578 235.948 462.87C235.004 466.162 234.905 468.802 235.669 470.793C236.416 472.78 237.755 474.041 239.698 474.598C241.168 475.019 242.552 474.85 243.844 474.106C245.137 473.362 246.009 472.168 246.469 470.565C246.634 469.99 246.714 469.52 246.697 469.132L242.371 467.891L242.173 468.583ZM241.532 462.973C241.975 461.62 242.36 460.598 242.73 459.881C243.078 459.177 243.349 458.743 243.554 458.601C243.742 458.454 243.936 458.418 244.138 458.476C244.713 458.641 244.618 460.057 243.858 462.708L243.611 463.569L241.532 462.973Z" fill="white"/>
<path d="M249.074 470.215C248.907 470.478 248.561 471.11 248.348 471.852C247.937 473.288 248.131 474.586 248.905 475.776C249.679 476.967 251.002 477.839 252.844 478.367C254.652 478.886 256.216 478.786 257.571 478.078C258.926 477.371 259.833 476.187 260.307 474.533C260.646 473.351 260.601 472.168 260.16 470.964C259.719 469.759 259.148 468.755 258.45 467.934C257.753 467.113 257.16 466.248 256.632 465.348C256.104 464.447 255.921 463.682 256.105 463.041C256.303 462.348 256.827 462.115 257.351 462.265C257.993 462.449 258.13 463.183 257.767 464.449L257.472 465.479L261.798 466.719L261.957 466.546C262.119 466.3 262.472 465.707 262.646 465.099C263.058 463.664 262.885 462.354 262.128 461.168C261.37 459.983 260.099 459.125 258.324 458.616C256.618 458.126 255.092 458.219 253.763 458.898C252.435 459.576 251.558 460.659 251.127 462.161C250.87 463.056 250.797 463.949 250.917 464.806C251.131 466.548 251.895 467.772 252.793 469.107C253.244 469.766 253.658 470.36 254.047 470.855C254.831 471.884 255.308 473.026 255.042 473.955C254.843 474.647 254.341 474.868 253.817 474.718C253.023 474.49 252.808 473.899 253.259 472.329L253.559 471.282L249.233 470.042L249.074 470.215Z" fill="white"/>
<path d="M138.086 387.533L138.53 396.957L143.915 389.205L146.237 389.871L139.281 399.618L136.498 398.82L135.764 386.867L138.086 387.533Z" fill="url(#paint9_linear_1508_1163)"/>
<path d="M155.728 392.592L152.617 403.442L150.449 402.82L153.56 391.97L155.728 392.592Z" fill="url(#paint10_linear_1508_1163)"/>
<path d="M164.054 402.364L162.9 406.39L160.731 405.768L163.842 394.919L167.795 396.052C169.077 396.42 169.952 397.003 170.422 397.803C170.902 398.606 170.991 399.535 170.688 400.591C170.391 401.625 169.816 402.353 168.963 402.774C168.121 403.197 167.079 403.231 165.838 402.875L164.054 402.364ZM166.106 401.073C167.377 401.437 168.171 401.066 168.489 399.96C168.644 399.417 168.615 398.959 168.4 398.587C168.184 398.215 167.738 397.932 167.062 397.738L165.508 397.293L164.552 400.627L166.106 401.073Z" fill="url(#paint11_linear_1508_1163)"/>
<path d="M196.115 404.173L195.622 405.894L192.623 405.034L190.005 414.163L187.836 413.541L190.454 404.412L187.47 403.557L187.964 401.836L196.115 404.173Z" fill="url(#paint12_linear_1508_1163)"/>
<path d="M208.596 407.585C209.611 407.877 210.461 408.375 211.146 409.082C211.842 409.791 212.303 410.639 212.531 411.624C212.772 412.603 212.74 413.625 212.434 414.69C212.129 415.756 211.613 416.644 210.888 417.357C210.172 418.072 209.331 418.546 208.366 418.779C207.41 419.015 206.425 418.987 205.41 418.696C204.395 418.405 203.54 417.905 202.844 417.196C202.159 416.489 201.698 415.642 201.459 414.653C201.232 413.667 201.271 412.642 201.576 411.576C201.882 410.511 202.391 409.626 203.103 408.921C203.829 408.209 204.669 407.735 205.625 407.499C206.591 407.265 207.581 407.294 208.596 407.585ZM208.023 409.583C207.387 409.401 206.788 409.384 206.223 409.533C205.659 409.682 205.161 409.988 204.728 410.451C204.309 410.908 203.996 411.494 203.791 412.211C203.585 412.929 203.538 413.597 203.649 414.216C203.773 414.829 204.035 415.347 204.434 415.772C204.834 416.197 205.352 416.501 205.987 416.683C206.623 416.865 207.223 416.882 207.787 416.734C208.351 416.585 208.843 416.282 209.262 415.826C209.695 415.362 210.014 414.772 210.22 414.055C210.425 413.338 210.466 412.673 210.342 412.061C210.231 411.442 209.976 410.919 209.576 410.494C209.177 410.069 208.659 409.766 208.023 409.583Z" fill="url(#paint13_linear_1508_1163)"/>
<path d="M224.449 418.069L227.466 424.904L224.836 424.15L222.245 418.035L220.822 422.999L218.653 422.377L221.764 411.528L223.933 412.15L222.536 417.021L227.962 413.305L230.577 414.055L224.449 418.069Z" fill="url(#paint14_linear_1508_1163)"/>
<path d="M239.609 418.507L238.803 421.32L242.648 422.422L242.172 424.082L238.327 422.979L237.49 425.899L241.796 427.134L241.298 428.871L234.823 427.014L237.934 416.164L244.409 418.021L243.916 419.742L239.609 418.507Z" fill="url(#paint15_linear_1508_1163)"/>
<path d="M258.253 433.732L256.085 433.111L253.34 424.341L251.225 431.717L249.056 431.095L252.167 420.246L254.336 420.867L257.063 429.699L259.196 422.261L261.364 422.883L258.253 433.732Z" fill="url(#paint16_linear_1508_1163)"/>
<defs>
<filter id="filter0_d_1508_1163" x="0.870117" y="0.93457" width="451.201" height="586.549" filterUnits="userSpaceOnUse" color-interpolation-filters="sRGB">
<feFlood flood-opacity="0" result="BackgroundImageFix"/>
<feColorMatrix in="SourceAlpha" type="matrix" values="0 0 0 0 0 0 0 0 0 0 0 0 0 0 0 0 0 0 127 0" result="hardAlpha"/>
<feOffset/>
<feGaussianBlur stdDeviation="16"/>
<feComposite in2="hardAlpha" operator="out"/>
<feColorMatrix type="matrix" values="0 0 0 0 0.845378 0 0 0 0 0.616807 0 0 0 0 0.253782 0 0 0 1 0"/>
<feBlend mode="normal" in2="BackgroundImageFix" result="effect1_dropShadow_1508_1163"/>
<feBlend mode="normal" in="SourceGraphic" in2="effect1_dropShadow_1508_1163" result="shape"/>
</filter>
<linearGradient id="paint0_linear_1508_1163" x1="293.354" y1="61.554" x2="159.946" y2="526.805" gradientUnits="userSpaceOnUse">
<stop stop-color="#D89D41"/>
<stop offset="0.46875" stop-color="#A2742A"/>
<stop offset="1" stop-color="#654511"/>
</linearGradient>
<linearGradient id="paint1_linear_1508_1163" x1="77.7502" y1="292.843" x2="304.881" y2="359.548" gradientUnits="userSpaceOnUse">
<stop stop-color="#D18D21"/>
<stop offset="0.383082" stop-color="#F4EEE4"/>
<stop offset="1" stop-color="#D89D41"/>
</linearGradient>
<linearGradient id="paint2_linear_1508_1163" x1="137.959" y1="422.155" x2="279.661" y2="462.658" gradientUnits="userSpaceOnUse">
<stop stop-color="#D18D21"/>
<stop offset="0.510417" stop-color="white" stop-opacity="0"/>
<stop offset="1" stop-color="#D89D41"/>
</linearGradient>
<linearGradient id="paint3_linear_1508_1163" x1="8.0015e-09" y1="11.8793" x2="15.8308" y2="12.0401" gradientUnits="userSpaceOnUse">
<stop stop-color="#D18D21"/>
<stop offset="0.383082" stop-color="#F4EEE4"/>
<stop offset="1" stop-color="#D89D41"/>
</linearGradient>
<linearGradient id="paint4_linear_1508_1163" x1="8.0015e-09" y1="11.7412" x2="15.8308" y2="11.9039" gradientUnits="userSpaceOnUse">
<stop stop-color="#D18D21"/>
<stop offset="0.383082" stop-color="#F4EEE4"/>
<stop offset="1" stop-color="#D89D41"/>
</linearGradient>
<linearGradient id="paint5_linear_1508_1163" x1="229.621" y1="243.54" x2="287.319" y2="244.194" gradientUnits="userSpaceOnUse">
<stop stop-color="#D18D21"/>
<stop offset="0.383082" stop-color="#F4EEE4"/>
<stop offset="1" stop-color="#D89D41"/>
</linearGradient>
<linearGradient id="paint6_linear_1508_1163" x1="223.611" y1="231.142" x2="263.177" y2="232.169" gradientUnits="userSpaceOnUse">
<stop stop-color="#D18D21"/>
<stop offset="0.383082" stop-color="#F4EEE4"/>
<stop offset="1" stop-color="#D89D41"/>
</linearGradient>
<linearGradient id="paint7_linear_1508_1163" x1="211.295" y1="189.517" x2="280.634" y2="211.288" gradientUnits="userSpaceOnUse">
<stop stop-color="#D18D21"/>
<stop offset="0.383082" stop-color="#F4EEE4"/>
<stop offset="1" stop-color="#D89D41"/>
</linearGradient>
<linearGradient id="paint8_linear_1508_1163" x1="316.405" y1="386.341" x2="95.6246" y2="401.58" gradientUnits="userSpaceOnUse">
<stop stop-color="#D18D21"/>
<stop offset="0.453125" stop-color="#D59632"/>
<stop offset="0.9999" stop-color="#D89D41"/>
<stop offset="1" stop-color="white" stop-opacity="0"/>
</linearGradient>
<linearGradient id="paint9_linear_1508_1163" x1="133.953" y1="393.182" x2="232.459" y2="434.914" gradientUnits="userSpaceOnUse">
<stop stop-color="#D18D21"/>
<stop offset="0.383082" stop-color="#F4EEE4"/>
<stop offset="1" stop-color="#D89D41"/>
</linearGradient>
<linearGradient id="paint10_linear_1508_1163" x1="133.953" y1="393.182" x2="232.459" y2="434.914" gradientUnits="userSpaceOnUse">
<stop stop-color="#D18D21"/>
<stop offset="0.383082" stop-color="#F4EEE4"/>
<stop offset="1" stop-color="#D89D41"/>
</linearGradient>
<linearGradient id="paint11_linear_1508_1163" x1="133.953" y1="393.182" x2="232.459" y2="434.914" gradientUnits="userSpaceOnUse">
<stop stop-color="#D18D21"/>
<stop offset="0.383082" stop-color="#F4EEE4"/>
<stop offset="1" stop-color="#D89D41"/>
</linearGradient>
<linearGradient id="paint12_linear_1508_1163" x1="133.953" y1="393.182" x2="232.459" y2="434.914" gradientUnits="userSpaceOnUse">
<stop stop-color="#D18D21"/>
<stop offset="0.383082" stop-color="#F4EEE4"/>
<stop offset="1" stop-color="#D89D41"/>
</linearGradient>
<linearGradient id="paint13_linear_1508_1163" x1="133.953" y1="393.182" x2="232.459" y2="434.914" gradientUnits="userSpaceOnUse">
<stop stop-color="#D18D21"/>
<stop offset="0.383082" stop-color="#F4EEE4"/>
<stop offset="1" stop-color="#D89D41"/>
</linearGradient>
<linearGradient id="paint14_linear_1508_1163" x1="133.953" y1="393.182" x2="232.459" y2="434.914" gradientUnits="userSpaceOnUse">
<stop stop-color="#D18D21"/>
<stop offset="0.383082" stop-color="#F4EEE4"/>
<stop offset="1" stop-color="#D89D41"/>
</linearGradient>
<linearGradient id="paint15_linear_1508_1163" x1="133.953" y1="393.182" x2="232.459" y2="434.914" gradientUnits="userSpaceOnUse">
<stop stop-color="#D18D21"/>
<stop offset="0.383082" stop-color="#F4EEE4"/>
<stop offset="1" stop-color="#D89D41"/>
</linearGradient>
<linearGradient id="paint16_linear_1508_1163" x1="133.953" y1="393.182" x2="232.459" y2="434.914" gradientUnits="userSpaceOnUse">
<stop stop-color="#D18D21"/>
<stop offset="0.383082" stop-color="#F4EEE4"/>
<stop offset="1" stop-color="#D89D41"/>
</linearGradient>
<clipPath id="clip0_1508_1163">
<rect width="62.1911" height="62.09" fill="white" transform="translate(217.949 210.242) rotate(16)"/>
</clipPath>
</defs>
</svg>
