<svg width="126" height="15" viewBox="0 0 126 15" fill="none" xmlns="http://www.w3.org/2000/svg">
<path d="M100.39 14.737V0.796424H99.0986V14.737H100.39ZM82.0848 2.44436L81.9958 14.737H83.2428V0.796424H81.5504L76.8738 11.0403L72.1973 0.796424H70.5048V14.737H71.7519L71.6628 2.44436L76.3839 12.5992H77.4083L82.0848 2.44436ZM49.2598 0.796424H48.0127V14.737H55.7179V13.579H49.2598V0.796424ZM123.105 10.2386L124.575 14.6925H126L121.056 0.57373H120.121L115.222 14.6925H116.647L118.117 10.2386L120.611 2.66705L123.105 10.2386ZM30.6426 10.2832L32.1124 14.737H33.5376L28.6384 0.618269H27.7031L22.8038 14.737H24.2291L25.6988 10.2832L28.193 2.71159L30.6426 10.2832ZM7.61612 14.737H9.26405L3.29586 7.03184L8.72959 0.796424H7.08165L1.24708 7.74446V0.796424H0V14.737H1.24708V9.39239L2.44963 8.01169L7.61612 14.737Z" fill="white"/>
</svg>
