<svg width="142" height="145" viewBox="0 0 142 145" fill="none" xmlns="http://www.w3.org/2000/svg">
<ellipse cx="30.03" cy="58.6017" rx="7.94998" ry="7.94352" fill="white"/>
<ellipse cx="115.89" cy="58.6017" rx="7.94998" ry="7.94352" fill="white"/>
<rect x="50.7003" y="98.3193" width="69.9598" height="66.7256" rx="6" fill="#9DE5D8"/>
<path fill-rule="evenodd" clip-rule="evenodd" d="M73.1037 18.2962C80.4501 16.0909 84.6268 8.34495 82.4214 0.998535C78.466 2.18593 75.4294 4.97952 73.8131 8.45214C73.1468 7.07118 72.1368 5.83152 70.8057 4.87148C67.7221 9.14016 68.6866 15.0991 72.9577 18.1795C72.9845 18.1424 73.011 18.1051 73.0372 18.0678C73.0587 18.144 73.0808 18.2201 73.1037 18.2962Z" fill="#FEAA7B"/>
<path fill-rule="evenodd" clip-rule="evenodd" d="M72.9599 95.1417C92.2788 95.1417 107.94 79.4934 107.94 60.1903C107.94 40.8871 92.2788 25.2388 72.9599 25.2388C53.6411 25.2388 37.98 40.8871 37.98 60.1903C37.98 79.4934 53.6411 95.1417 72.9599 95.1417ZM72.9599 104.674C97.5476 104.674 117.48 84.7579 117.48 60.1903C117.48 35.6226 97.5476 15.7065 72.9599 15.7065C48.3723 15.7065 28.4401 35.6226 28.4401 60.1903C28.4401 84.7579 48.3723 104.674 72.9599 104.674Z" fill="white"/>
<rect x="37.9998" y="95.1418" width="69.9598" height="73.0804" rx="6" fill="white"/>
<rect width="19.9869" height="29.9952" transform="matrix(0.442419 -0.896808 0.897093 0.441841 12.9995 110.848)" fill="white"/>
<ellipse cx="12" cy="98.919" rx="12" ry="11.9902" fill="white"/>
<rect width="19.9869" height="29.9952" transform="matrix(-0.81538 0.578925 -0.579451 -0.815007 124.06 129.478)" fill="white"/>
<ellipse cx="119.272" cy="140.45" rx="12" ry="11.9902" transform="rotate(-151.633 119.272 140.45)" fill="white"/>
<rect x="49" y="114.206" width="48" height="19.9837" rx="2" fill="#9DE5D8"/>
<path fill-rule="evenodd" clip-rule="evenodd" d="M107.362 66.5452C104.371 82.8142 90.1061 95.1418 72.9592 95.1418C55.8122 95.1418 41.5469 82.8142 38.556 66.5452L28.8901 66.5452C31.9762 88.1026 50.5309 104.674 72.9592 104.674C95.3875 104.674 113.942 88.1026 117.028 66.5452H107.362Z" fill="#9DE5D8"/>
<ellipse cx="72.4966" cy="59.8114" rx="35.8012" ry="35.7721" fill="#1F1D2E"/>
<path opacity="0.2" d="M90.4876 90.5468C98.7103 85.8033 104.71 77.9903 107.168 68.8265C109.625 59.6627 108.339 49.8989 103.591 41.6829C98.8439 33.4668 91.0245 27.4717 81.8533 25.0163C72.6821 22.5608 62.9103 23.8463 54.6876 28.5898L72.5876 59.5683L90.4876 90.5468Z" fill="white"/>
</svg>
