<svg width="113" height="29" viewBox="0 0 113 29" fill="none" xmlns="http://www.w3.org/2000/svg">
<path d="M5.28125 22.7188L6.40625 12.4844H6.71875L7.84375 22.7188H12.3125L13.125 0.3125H9.4375L9.92188 19.0312H9.4375L8 6.71875H5.125L3.67188 19.0312H3.20312L3.67188 0.3125H0L0.796875 22.7188H5.28125Z" fill="white"/>
<path d="M20.3275 18.0781C20.3275 19.0312 20.265 19.6719 20.14 20C20.015 20.3281 19.8119 20.4844 19.5306 20.4844C19.3275 20.4844 19.1712 20.3906 19.0619 20.1875C18.8275 19.8125 18.5619 18.1875 18.5619 15.2031H23.2025L23.2962 14.8438C23.4837 14.4219 23.6869 13.2188 23.6869 11.8438C23.6869 9.57812 23.3119 7.89062 22.5462 6.78125C21.7806 5.67188 20.8275 5.125 19.6869 5.125C16.5931 5.125 15.0463 8.10938 15.0463 14.0781C15.0463 20.0469 16.5931 23.0312 19.6869 23.0312C20.7494 23.0312 21.6556 22.6094 22.4056 21.7656C23.1556 20.9375 23.5306 19.8125 23.5306 18.4062C23.515 17.6562 23.4056 17.0625 23.2025 16.6406H20.1712L20.3275 18.0781ZM18.5619 12.9531C18.5619 11.4688 18.6244 10.3125 18.7337 9.48438C18.8431 8.65625 18.9525 8.15625 19.0619 7.95312C19.1712 7.76562 19.3275 7.67188 19.5306 7.67188C19.7181 7.67188 19.8587 7.73438 19.9681 7.85938C20.1556 8.125 20.3275 9.15625 20.3275 11.2031C20.3275 11.8438 20.2806 12.4219 20.1712 12.9531H18.5619Z" fill="white"/>
<path d="M27.6706 22.7188L27.9988 19.5156H28.4831L28.7019 20.4219C28.8269 21 29.1081 21.5781 29.53 22.1562C29.9519 22.7344 30.4519 23.0312 31.03 23.0312C31.8425 23.0312 32.5144 22.5156 33.1706 21.2656C33.8269 20.0312 34.2331 17.5 34.2331 14.0781C34.2331 10.6562 33.8269 8.125 33.1706 6.875C32.5144 5.64062 31.8425 5.125 31.03 5.125C30.3269 5.125 29.655 5.73438 29.3113 6.34375C29.1394 6.65625 28.9675 7.01562 28.8269 7.42188C28.53 8.23438 28.53 8.46875 28.4831 8.64062H27.9988L28.9519 5.125V0.3125H25.5925V22.7188H27.6706ZM29.9206 20.4844C29.7331 20.4844 29.5769 20.375 29.4675 20.1562C29.2175 19.7344 28.9519 17.7812 28.9519 14.0781C28.9519 12.2188 29.0144 10.7969 29.1238 9.79688C29.2331 8.8125 29.3425 8.20312 29.4675 7.98438C29.5769 7.78125 29.7331 7.67188 29.9206 7.67188C30.4519 7.67188 30.7175 9.8125 30.7175 14.0781C30.7175 18.3438 30.4519 20.4844 29.9206 20.4844Z" fill="white"/>
<path d="M36.3575 14.5312C36.1856 14.9531 36.0137 16.0156 36.0137 17.125C36.0137 19.0469 36.42 20.5 37.2325 21.5156C38.0294 22.5312 39.0606 23.0312 40.3262 23.0312C41.6231 23.0312 42.7012 22.4375 43.545 21.2344C44.3887 20.0469 44.8106 18.25 44.8106 15.8438C44.795 11.1406 43.1387 8.79688 39.8419 8.79688V8.48438L41.7637 8L44.4825 3.20312V0.3125H36.17V3.51562H40.6544L37.4512 9.125V12.1562H37.9356L38.0919 12.0312C38.2637 11.8594 38.7325 11.6719 39.2169 11.6719C39.8887 11.6719 40.3887 11.9531 40.6856 12.5C40.9825 13.0625 41.1231 14.1719 41.1231 15.8438C41.1231 17.125 41.0919 18.0938 41.0137 18.7344C40.9356 19.375 40.8575 19.7812 40.7637 19.9219C40.67 20.0781 40.5294 20.1562 40.3419 20.1562C39.795 20.1875 39.5762 19.8125 39.5294 17.2812C39.5294 16.3125 39.5762 15.2969 39.6856 14.2344H36.4825L36.3575 14.5312Z" fill="white"/>
<path d="M51.9188 15.4844C51.7938 15.875 51.6688 16.8281 51.6688 17.7656C51.6688 19.375 52.075 20.6562 52.9031 21.6094C53.7156 22.5625 54.7469 23.0312 55.9813 23.0312C57.2469 23.0312 58.2781 22.5312 59.0906 21.5469C59.9031 20.5625 60.3094 19.1406 60.3094 17.2812C60.3094 16 60.0438 14.7656 59.5125 13.5625C58.9813 12.375 58.4031 11.4062 57.7625 10.6406C57.1219 9.875 56.5281 8.98438 55.9969 7.96875C55.45 6.95312 55.1844 5.96875 55.1844 4.98438C55.1844 3.34375 55.4188 2.875 55.9813 2.875C56.6219 2.875 56.95 3.89062 56.95 5.92188C56.95 6.5625 56.9031 7.20312 56.7938 7.84375H59.9813L60.0594 7.54688C60.1844 7.17188 60.3094 6.21875 60.3094 5.28125C60.3094 3.65625 59.9031 2.375 59.075 1.42188C58.2469 0.46875 57.2156 0 55.9813 0C54.7313 0 53.7 0.5 52.8875 1.48438C52.075 2.48438 51.6688 3.90625 51.6688 5.76562C51.6688 6.82812 51.8406 7.84375 52.2 8.79688C52.9031 10.7188 53.9813 12.0781 54.9813 13.4375C55.9813 14.8125 56.7938 16.4531 56.7938 18.0781C56.7938 19.7031 56.5438 20.1562 55.9813 20.1562C55.3406 20.1719 55.0281 19.1562 55.0281 17.125C55.0281 16.4844 55.075 15.8438 55.1844 15.2031H51.9813L51.9188 15.4844Z" fill="white"/>
<path d="M65.5744 28.4844V23.0312L64.6212 19.5156H65.1056L65.3244 20.4219C65.4494 21 65.7306 21.5781 66.1525 22.1562C66.5744 22.7344 67.0744 23.0312 67.6525 23.0312C68.465 23.0312 69.1369 22.5156 69.7931 21.2656C70.4494 20.0312 70.8556 17.5 70.8556 14.0781C70.8556 10.6562 70.4494 8.125 69.7931 6.875C69.1369 5.64062 68.465 5.125 67.6525 5.125C66.9494 5.125 66.2775 5.73438 65.9337 6.34375C65.7619 6.65625 65.59 7.01562 65.4494 7.42188C65.1525 8.23438 65.1525 8.46875 65.1056 8.64062H64.6212L65.5744 5.76562V5.4375H62.215V28.4844H65.5744ZM66.5431 20.4844C66.3556 20.4844 66.1994 20.375 66.09 20.1562C65.84 19.7344 65.5744 17.7812 65.5744 14.0781C65.5744 12.2188 65.6369 10.7969 65.7462 9.79688C65.8556 8.8125 65.965 8.20312 66.09 7.98438C66.1994 7.78125 66.3556 7.67188 66.5431 7.67188C67.0744 7.67188 67.34 9.8125 67.34 14.0781C67.34 18.3438 67.0744 20.4844 66.5431 20.4844Z" fill="white"/>
<path d="M81.7456 22.7188V22.4062L81.5894 22.3281C81.3863 22.2031 81.105 21.7188 81.105 20.9531V11.6406C81.105 9.29688 80.7925 7.625 80.1675 6.625C79.5269 5.625 78.5113 5.125 77.105 5.125C75.9644 5.125 75.0113 5.53125 74.2456 6.34375C73.48 7.17188 73.105 8.25 73.105 9.59375C73.1206 10.4688 73.23 11.1094 73.4331 11.5156H76.4644V9.92188C76.4644 8.42188 76.6831 7.67188 77.105 7.67188C77.5269 7.6875 77.7456 8.4375 77.7456 9.92188V12.6406L78.7144 16.3125H78.23L78.0425 15.4219C77.8863 14.8438 77.5738 14.2656 77.1206 13.6719C76.6675 13.0938 76.1206 12.7969 75.5113 12.7969C74.6988 12.7969 73.9956 13.2344 73.3863 14.125C72.7769 15.0156 72.4644 16.2656 72.4644 17.9062C72.4644 19.5469 72.7769 20.8125 73.3863 21.7031C73.9956 22.5938 74.6988 23.0312 75.5113 23.0312C76.2769 23.0312 77.0113 22.4219 77.3863 21.7969C77.5581 21.5 77.73 21.1406 77.8863 20.7344C78.1831 19.9219 78.1831 19.6875 78.23 19.5156H78.7144L77.9175 22.4062V22.7188H81.7456ZM76.7925 20.4844C76.3394 20.4844 75.9956 20.1562 75.9956 17.9062C75.9956 15.6562 76.3394 15.3594 76.7925 15.3594C77.3238 15.3594 77.5894 16.2188 77.5894 17.9219C77.5894 19.625 77.3238 20.4844 76.7925 20.4844Z" fill="white"/>
<path d="M88.4638 17.5938C88.4638 19.5156 88.1981 20.4844 87.6669 20.4844C87.4638 20.4844 87.3075 20.375 87.1981 20.1562C86.9638 19.7344 86.6981 17.7812 86.6981 14.0781C86.6981 12.2188 86.7606 10.7969 86.87 9.79688C86.9794 8.8125 87.0888 8.20312 87.2138 7.98438C87.3231 7.78125 87.4794 7.67188 87.6669 7.67188C88.1981 7.6875 88.4638 8.64062 88.4638 10.5625C88.4638 11.1875 88.4169 11.8281 88.3075 12.4844H91.3388L91.4325 12.25C91.5106 11.9531 91.6669 11.0625 91.6669 10.0781C91.6669 6.82812 90.1825 5.125 87.8231 5.125C84.7294 5.125 83.1825 8.10938 83.1825 14.0781C83.1825 20.0469 84.7294 23.0312 87.8231 23.0312C90.1825 23.0312 91.6669 21.3281 91.6669 18.0781C91.6513 16.9688 91.5419 16.1562 91.3388 15.6719H88.3075L88.4638 17.5938Z" fill="white"/>
<path d="M98.6975 18.0781C98.6975 19.0312 98.635 19.6719 98.51 20C98.385 20.3281 98.1819 20.4844 97.9006 20.4844C97.6975 20.4844 97.5413 20.3906 97.4319 20.1875C97.1975 19.8125 96.9319 18.1875 96.9319 15.2031H101.573L101.666 14.8438C101.854 14.4219 102.057 13.2188 102.057 11.8438C102.057 9.57812 101.682 7.89062 100.916 6.78125C100.151 5.67188 99.1975 5.125 98.0569 5.125C94.9631 5.125 93.4163 8.10938 93.4163 14.0781C93.4163 20.0469 94.9631 23.0312 98.0569 23.0312C99.1194 23.0312 100.026 22.6094 100.776 21.7656C101.526 20.9375 101.901 19.8125 101.901 18.4062C101.885 17.6562 101.776 17.0625 101.573 16.6406H98.5413L98.6975 18.0781ZM96.9319 12.9531C96.9319 11.4688 96.9944 10.3125 97.1038 9.48438C97.2131 8.65625 97.3225 8.15625 97.4319 7.95312C97.5413 7.76562 97.6975 7.67188 97.9006 7.67188C98.0881 7.67188 98.2288 7.73438 98.3381 7.85938C98.5256 8.125 98.6975 9.15625 98.6975 11.2031C98.6975 11.8438 98.6506 12.4219 98.5413 12.9531H96.9319Z" fill="white"/>
<path d="M103.869 17.0156C103.791 17.375 103.65 18.1094 103.65 18.875C103.65 21.4375 105.244 23.0312 107.806 23.0312C109.103 23.0312 110.15 22.6094 110.947 21.7812C111.728 20.9531 112.119 19.8281 112.119 18.4062C112.119 16.7031 111.353 15.125 110.369 14C108.978 12.3906 107.15 10.7031 107.166 8.64062C107.166 8 107.384 7.67188 107.806 7.67188C108.338 7.6875 108.603 8.375 108.603 9.76562V11.2031H111.65L111.744 10.9375C111.822 10.6406 111.963 9.92188 111.963 9.28125C111.963 6.71875 110.369 5.125 107.806 5.125C106.588 5.125 105.588 5.53125 104.822 6.34375C104.041 7.17188 103.65 8.25 103.65 9.59375C103.65 11.3906 104.431 13 105.384 14.1094C106.775 15.6875 108.65 17.2969 108.603 19.3594C108.603 20.1094 108.338 20.4844 107.806 20.4844C107.244 20.4844 107.009 20.0312 107.009 18.4062V16.7969H103.963L103.869 17.0156Z" fill="white"/>
</svg>
