<svg width="13" height="27" viewBox="0 0 13 27" fill="none" xmlns="http://www.w3.org/2000/svg">
<path fill-rule="evenodd" clip-rule="evenodd" d="M11.2674 25.9223C11.174 26.4667 10.657 26.8322 10.1127 26.7388L1.24231 25.2167C0.697981 25.1232 0.332436 24.6063 0.425842 24.0619C0.519248 23.5176 1.03623 23.1521 1.58056 23.2455L8.13266 24.3698C3.73793 17.6315 1.97403 11.9987 1.34439 7.91222C0.999899 5.67642 0.99619 3.91152 1.08275 2.69081C1.12601 2.08066 1.19179 1.60693 1.24864 1.27873C1.27707 1.11463 1.30326 0.986929 1.3233 0.896742C1.33331 0.851649 1.34179 0.815934 1.34823 0.78974L1.35632 0.757606L1.3591 0.746927L1.36015 0.742939L1.3606 0.741284C1.3608 0.740551 1.36098 0.739855 2.32651 1.00014C3.29204 1.26043 3.29221 1.25981 3.29237 1.25923L3.29263 1.25824L3.29032 1.26755C3.28744 1.27926 3.28241 1.30026 3.27571 1.33042C3.26231 1.39073 3.24224 1.48767 3.21929 1.62011C3.1734 1.885 3.11605 2.29197 3.07774 2.83226C3.00115 3.91244 3.00055 5.52744 3.32106 7.60766C3.90121 11.3729 5.53754 16.6889 9.71623 23.1363L10.8183 16.7137C10.9117 16.1694 11.4287 15.8038 11.973 15.8973C12.5174 15.9907 12.8829 16.5076 12.7895 17.052L11.2674 25.9223Z" fill="white"/>
</svg>
